<svg width="26" height="26" viewBox="0 0 26 26" fill="none" xmlns="http://www.w3.org/2000/svg">
<g clip-path="url(#clip0_2036_612)">
<path d="M15.2868 24.0358C15.6853 24.0358 16.0083 24.3588 16.0083 24.7572C16.0083 25.1557 15.6853 25.4787 15.2868 25.4787V24.0358ZM24.2275 11.2971H9.2821V9.85416H24.2275V11.2971ZM9.2821 11.2971C4.81913 11.2971 1.44192 14.27 1.44192 17.6664H-0.00106049C-0.00106049 13.2304 4.28875 9.85416 9.2821 9.85416V11.2971ZM1.44192 17.6664C1.44192 21.0629 4.81913 24.0358 9.2821 24.0358V25.4787C4.28875 25.4787 -0.00106049 22.1025 -0.00106049 17.6664H1.44192ZM9.2821 24.0358H15.2868V25.4787H9.2821V24.0358Z" fill="#522AF9"/>
<path d="M17.6122 17.2763L24.1673 10.7219C24.2476 10.6416 24.2476 10.5111 24.1673 10.4308L17.6122 3.875" stroke="#522AF9" stroke-width="1.44298" stroke-miterlimit="10" stroke-linecap="round"/>
</g>
<defs>
<clipPath id="clip0_2036_612">
<rect width="25.2771" height="24.8" fill="white" transform="matrix(-1 0 0 1 25.2761 0.678741)"/>
</clipPath>
</defs>
</svg>
