<svg width="1919" height="1052" viewBox="0 0 1919 1052" fill="none" xmlns="http://www.w3.org/2000/svg">
<mask id="mask0_6088_287" style="mask-type:alpha" maskUnits="userSpaceOnUse" x="0" y="0" width="1919" height="1052">
<rect width="1919" height="1052" fill="#522AF9"/>
</mask>
<g mask="url(#mask0_6088_287)">
<g opacity="0.6">
<path d="M47.6222 568.431C28.3484 546.747 0.623794 534.307 -28.414 534.307H-221.936C-260.504 534.307 -296.362 556.669 -313.2 591.088C-318.305 601.391 -321.587 612.497 -322.943 624.048L-341.391 780.492C-345.711 817.048 -335.121 851.764 -311.548 878.229C-288.123 904.567 -255.103 919.08 -218.589 919.08H-86.1295C-52.0085 919.08 -18.5441 905.985 8.07918 882.206C34.6812 858.47 51.5193 826.716 55.5011 792.804L72.6146 647.784C75.9822 619.013 66.8748 590.073 47.6011 568.41L47.6222 568.431ZM-236.783 792.825L-219.69 647.848C-219.14 643.109 -215.116 639.534 -210.329 639.534H-43.0705C-37.4366 639.534 -33.0524 644.442 -33.709 650.048L-49.1068 780.534C-51.1824 798.283 -68.4865 813.875 -86.1295 813.875H-218.589C-222.825 813.875 -228.734 812.923 -232.78 808.374C-237.016 803.593 -237.291 797.268 -236.762 792.804L-236.783 792.825ZM341.113 399.083L324.339 541.289C320.484 573.91 304.281 604.416 278.717 627.221C253.111 650.069 220.959 662.657 188.194 662.657H92.3544C90.1728 662.657 88.4996 660.753 88.7538 658.595L89.7916 649.815C93.3922 619.013 84.7507 588.063 65.9853 563.608C64.0367 561.069 65.8794 557.43 69.0564 557.43H188.194C203.189 557.43 217.909 544.145 219.71 528.976L236.463 386.834C236.887 383.301 236.696 378.351 233.519 374.775C230.511 371.391 225.915 370.671 222.611 370.671H91.1894C76.0034 370.671 63.2107 382.032 61.4316 397.094L45.1442 535.408C44.8053 538.306 41.5012 539.766 39.1079 538.115C19.4105 524.555 -4.09933 517.066 -28.4351 517.066H-54.6772C-56.8587 517.066 -58.5319 515.162 -58.2777 513.004L-35.7211 321.697C-31.951 289.625 -4.73472 265.445 27.6071 265.445H222.632C257.812 265.445 289.646 279.428 312.266 304.857C334.992 330.349 345.243 363.817 341.113 399.083Z" fill="url(#paint0_linear_6088_287)"/>
<path d="M34.3639 112.894H-98.1382C-119.297 112.894 -139.312 130.876 -141.833 152.179L-162.377 326.52C-166.804 364.113 -198.722 392.44 -236.613 392.44H-415.923C-434.413 392.44 -451.887 408.159 -454.068 426.775L-470.843 568.96C-471.436 573.868 -471.118 580.828 -466.289 586.244C-461.608 591.49 -455.042 592.59 -450.362 592.59H-335.545C-332.241 592.59 -329.953 595.848 -331.012 598.979C-333.596 606.553 -335.375 614.402 -336.328 622.462L-343.043 679.412C-343.381 682.247 -345.796 684.383 -348.655 684.383H-450.362C-483.593 684.383 -513.647 671.182 -534.976 647.235C-556.431 623.118 -566.068 591.512 -562.128 558.213L-545.375 416.049C-541.732 385.078 -526.334 356.053 -501.998 334.348C-477.641 312.6 -447.079 300.626 -415.923 300.626H-276.198C-262.326 300.626 -250.655 290.26 -249.046 276.509L-233.118 141.433C-229.306 109.128 -213.23 78.8764 -187.857 56.2402C-162.441 33.5617 -130.586 21.0801 -98.1382 21.0801H34.3639C68.8661 21.0801 100.085 34.7887 122.261 59.6462C144.542 84.6729 154.56 117.506 150.515 152.137L140.031 240.757C139.65 243.888 137.002 246.257 133.825 246.257H53.913C50.1853 246.257 47.2837 242.999 47.7073 239.297L59.1869 141.454C59.8646 135.636 59.441 127.301 53.5318 120.637C47.8132 114.227 39.9342 112.873 34.3427 112.873H34.3639V112.894Z" fill="url(#paint1_linear_6088_287)"/>
</g>
<g opacity="0.3">
<path d="M1791.53 677.831C1761.91 644.46 1719.29 625.316 1674.66 625.316H1377.22C1317.94 625.316 1262.82 659.729 1236.94 712.701C1229.1 728.556 1224.05 745.649 1221.97 763.425L1193.61 1004.19C1186.97 1060.45 1203.25 1113.87 1239.48 1154.6C1275.49 1195.14 1326.24 1217.47 1382.36 1217.47H1585.95C1638.4 1217.47 1689.83 1197.32 1730.75 1160.72C1771.64 1124.19 1797.52 1075.33 1803.64 1023.14L1829.95 799.955C1835.12 755.676 1821.12 711.138 1791.5 677.799L1791.53 677.831ZM1354.4 1023.17L1380.67 800.052C1381.51 792.759 1387.7 787.257 1395.06 787.257H1652.14C1660.79 787.257 1667.53 794.81 1666.52 803.438L1642.86 1004.25C1639.67 1031.57 1613.07 1055.56 1585.95 1055.56H1382.36C1375.85 1055.56 1366.77 1054.1 1360.55 1047.1C1354.04 1039.74 1353.62 1030.01 1354.43 1023.14L1354.4 1023.17ZM2242.63 417.209L2216.85 636.06C2210.93 686.264 2186.02 733.212 2146.73 768.309C2107.37 803.471 2057.95 822.842 2007.59 822.842H1860.29C1856.93 822.842 1854.36 819.912 1854.75 816.591L1856.35 803.08C1861.88 755.676 1848.6 708.045 1819.76 670.408C1816.76 666.501 1819.59 660.902 1824.48 660.902H2007.59C2030.64 660.902 2053.27 640.455 2056.03 617.112L2081.78 398.358C2082.43 392.921 2082.14 385.302 2077.26 379.8C2072.64 374.591 2065.57 373.484 2060.49 373.484H1858.5C1835.15 373.484 1815.49 390.968 1812.76 414.148L1787.72 627.009C1787.2 631.47 1782.12 633.716 1778.45 631.177C1748.17 610.307 1712.03 598.782 1674.63 598.782H1634.3C1630.94 598.782 1628.37 595.852 1628.76 592.531L1663.43 298.114C1669.23 248.756 1711.06 211.543 1760.77 211.543H2060.53C2114.6 211.543 2163.53 233.064 2198.29 272.198C2233.22 311.43 2248.98 362.935 2242.63 417.209Z" fill="url(#paint2_linear_6088_287)"/>
<path d="M1771.15 -23.2288H1567.5C1534.97 -23.2288 1504.21 4.44502 1500.34 37.2304L1468.76 305.537C1461.96 363.391 1412.9 406.986 1354.66 406.986H1079.06C1050.64 406.986 1023.78 431.176 1020.43 459.827L994.643 678.645C993.731 686.199 994.219 696.91 1001.64 705.245C1008.84 713.319 1018.93 715.012 1026.12 715.012H1202.6C1207.68 715.012 1211.19 720.026 1209.56 724.844C1205.59 736.5 1202.86 748.579 1201.39 760.983L1191.07 848.628C1190.55 852.991 1186.84 856.279 1182.45 856.279H1026.12C975.045 856.279 928.851 835.963 896.069 799.108C863.092 761.993 848.28 713.352 854.335 662.106L880.085 443.32C885.684 395.656 909.351 350.987 946.756 317.583C984.193 284.114 1031.17 265.686 1079.06 265.686H1293.81C1315.14 265.686 1333.07 249.733 1335.55 228.571L1360.03 20.6912C1365.89 -29.0241 1390.6 -75.5813 1429.6 -110.418C1468.66 -145.319 1517.62 -164.528 1567.5 -164.528H1771.15C1824.18 -164.528 1872.17 -143.431 1906.25 -105.176C1940.5 -66.6605 1955.9 -16.1313 1949.68 37.1653L1933.57 173.549C1932.98 178.367 1928.91 182.014 1924.03 182.014H1801.2C1795.47 182.014 1791.01 177 1791.66 171.302L1809.31 20.7238C1810.35 11.7705 1809.7 -1.05719 1800.61 -11.3128C1791.83 -21.1777 1779.71 -23.2614 1771.12 -23.2614H1771.15V-23.2288Z" fill="url(#paint3_linear_6088_287)"/>
</g>
</g>
<defs>
<linearGradient id="paint0_linear_6088_287" x1="-0.163483" y1="265.445" x2="-0.163483" y2="919.08" gradientUnits="userSpaceOnUse">
<stop stop-color="#301993"/>
<stop offset="0.89" stop-color="#522AF9"/>
</linearGradient>
<linearGradient id="paint1_linear_6088_287" x1="-205.799" y1="21.0801" x2="-205.799" y2="684.383" gradientUnits="userSpaceOnUse">
<stop stop-color="#301993"/>
<stop offset="0.89" stop-color="#522AF9"/>
</linearGradient>
<linearGradient id="paint2_linear_6088_287" x1="1718.08" y1="211.543" x2="1718.08" y2="1217.47" gradientUnits="userSpaceOnUse">
<stop stop-color="#522AF9"/>
<stop offset="1" stop-color="#301993"/>
</linearGradient>
<linearGradient id="paint3_linear_6088_287" x1="1402.02" y1="-164.528" x2="1402.02" y2="856.279" gradientUnits="userSpaceOnUse">
<stop stop-color="#522AF9"/>
<stop offset="1" stop-color="#301993"/>
</linearGradient>
</defs>
</svg>
