<svg width="22" height="32" viewBox="0 0 22 32" fill="none" xmlns="http://www.w3.org/2000/svg">
<g clip-path="url(#clip0_2124_407)">
<path d="M7.91879 0.593262C10.1662 1.80413 11.7942 3.51987 12.9418 5.70316C14.0427 7.79522 14.4616 10.049 14.5863 12.3878C14.656 13.694 14.8213 14.9972 15.0094 16.293C15.0739 16.7388 15.2911 17.1846 15.524 17.5806C15.8691 18.1695 16.4336 18.2058 16.9014 17.6988C17.575 16.9669 17.8463 16.0619 17.9294 15.0977C18.0365 13.8703 17.7631 12.7009 17.2413 11.4361C17.4274 11.5885 17.5209 11.6434 17.5854 11.7212C19.4555 13.9563 20.9087 16.4195 21.3848 19.3264C21.9826 22.9818 21.1873 26.3045 18.6343 29.0859C17.3899 30.4409 15.787 31.1987 13.9865 31.546C13.8233 31.5771 13.6528 31.5688 13.4709 31.5802C13.4948 31.5159 13.4979 31.4755 13.5187 31.4589C15.6633 29.7276 15.8254 26.9503 13.7557 25.106C12.9106 24.3534 11.8357 23.8195 10.7972 23.3302C9.36477 22.6542 8.17867 21.7844 7.57886 20.2709C6.84911 18.4307 6.83144 16.6041 7.69113 14.7961C7.74934 14.6737 7.80756 14.5514 7.8824 14.3948C6.22747 15.9385 3.99561 19.8396 4.20455 23.3032C4.41869 26.8653 6.43538 29.3669 9.21092 31.5813C8.90114 31.5564 8.73898 31.5585 8.58409 31.5294C3.71805 30.6047 0.564121 26.8498 0.331267 21.912C0.183654 18.7905 1.45292 16.321 3.50287 14.1398C4.77005 12.7921 6.14223 11.5387 7.35016 10.1423C9.31279 7.87297 9.78786 5.24182 8.86476 2.39401C8.66725 1.78443 8.26599 1.2412 7.91879 0.594298V0.593262Z" fill="white"/>
</g>
<defs>
<clipPath id="clip0_2124_407">
<rect width="21.2532" height="30.9859" fill="white" transform="translate(0.320038 0.593262)"/>
</clipPath>
</defs>
</svg>
