<svg width="22" height="19" viewBox="0 0 22 19" fill="none" xmlns="http://www.w3.org/2000/svg">
<path d="M0.442959 6.89364C0.45061 7.02115 0.508599 7.1404 0.60417 7.22515C0.699741 7.3099 0.825066 7.35322 0.952573 7.34556C1.08008 7.33791 1.19933 7.27993 1.28408 7.18435C1.36883 7.08878 1.41215 6.96346 1.4045 6.83595C1.35502 6.06506 1.46694 5.29233 1.73308 4.56714C1.99923 3.84196 2.41376 3.18029 2.95017 2.62442C3.43816 2.12121 4.02262 1.72156 4.6686 1.44937C5.31457 1.17719 6.0088 1.03806 6.70977 1.04029C7.77948 1.04029 9.07034 1.74462 10.4381 3.07634C10.5388 3.17529 10.6744 3.23074 10.8155 3.23074C10.9567 3.23074 11.0922 3.17529 11.1929 3.07634C12.2975 1.94735 13.8013 1.29732 15.3804 1.26625H15.4165C16.0222 1.2613 16.6227 1.37908 17.1817 1.61251C17.7406 1.84593 18.2466 2.19016 18.6689 2.62442C19.6636 3.66449 20.2188 5.04821 20.2188 6.48739C20.2188 7.92658 19.6636 9.31029 18.6689 10.3504L10.9429 17.8023C10.9029 17.8418 10.8489 17.8639 10.7927 17.8639C10.7365 17.8639 10.6825 17.8418 10.6425 17.8023L5.35401 12.6941C5.30855 12.6502 5.25489 12.6157 5.1961 12.5926C5.13732 12.5694 5.07454 12.5581 5.01137 12.5592C4.88379 12.5615 4.76234 12.6143 4.67372 12.7061C4.5851 12.7979 4.53658 12.9212 4.53884 13.0488C4.54109 13.1763 4.59393 13.2978 4.68574 13.3864L9.97419 18.4946C10.1932 18.7079 10.4869 18.8273 10.7927 18.8273C11.0985 18.8273 11.3922 18.7079 11.6112 18.4946L19.366 11.0307C20.5395 9.81074 21.1951 8.18375 21.1951 6.491C21.1951 4.79824 20.5395 3.17126 19.366 1.95135C18.8558 1.42521 18.2443 1.00785 17.5684 0.724441C16.8925 0.441029 16.1662 0.297434 15.4333 0.302313C13.7232 0.310728 12.077 0.953115 10.8131 2.10519C9.34919 0.756639 7.96938 0.0787557 6.70977 0.0787557C5.88037 0.0766257 5.05905 0.241788 4.29494 0.564366C3.53083 0.886943 2.83963 1.36031 2.26267 1.95615C1.63266 2.60735 1.14542 3.38281 0.832088 4.23299C0.518758 5.08316 0.386225 5.98935 0.442959 6.89364Z" fill="#72AAFF"/>
<path d="M3.68574 10.7494C3.76883 10.7481 3.85014 10.7252 3.92176 10.6831C3.99338 10.641 4.05286 10.581 4.0944 10.509L4.87805 9.23738L5.94295 10.9345C5.99032 11.0101 6.05779 11.071 6.13781 11.1105C6.21783 11.1499 6.30725 11.1663 6.39607 11.1578C6.48488 11.1493 6.56958 11.1163 6.64069 11.0624C6.7118 11.0086 6.76652 10.936 6.79872 10.8528L8.19775 7.247L9.48862 12.36C9.51239 12.4547 9.56446 12.54 9.63789 12.6044C9.71132 12.6688 9.80264 12.7093 9.89967 12.7205H9.95496C10.0426 12.7205 10.1285 12.6965 10.2035 12.6512C10.2785 12.6059 10.3397 12.5409 10.3804 12.4633L11.9838 9.39123L12.5968 10.485C12.6391 10.5583 12.7001 10.6192 12.7736 10.6614C12.847 10.7036 12.9303 10.7257 13.015 10.7254H15.2482C15.3757 10.7254 15.498 10.6747 15.5882 10.5845C15.6783 10.4944 15.729 10.3721 15.729 10.2446C15.729 10.1171 15.6783 9.9948 15.5882 9.90464C15.498 9.81448 15.3757 9.76382 15.2482 9.76382H13.3011L12.3901 8.13883C12.3477 8.06546 12.2867 8.00459 12.2132 7.96238C12.1398 7.92016 12.0565 7.89811 11.9718 7.89844C11.8798 7.89822 11.7897 7.92436 11.7122 7.97379C11.6346 8.02321 11.5729 8.09384 11.5343 8.17729L10.092 10.9201L8.76265 5.56912C8.73734 5.47061 8.68144 5.38267 8.60299 5.31793C8.52454 5.2532 8.42758 5.21502 8.32606 5.20887C8.22453 5.20273 8.12367 5.22894 8.03799 5.28374C7.9523 5.33853 7.8862 5.4191 7.84919 5.51383L6.24583 9.6244L5.2843 8.08354C5.24121 8.0146 5.18134 7.95771 5.1103 7.91819C5.03925 7.87868 4.95934 7.85782 4.87805 7.85758C4.79497 7.85892 4.71365 7.88176 4.64203 7.92389C4.57041 7.96602 4.51093 8.026 4.4694 8.09796L3.41892 9.79988H1.71459C1.58709 9.79988 1.4648 9.85053 1.37464 9.9407C1.28448 10.0309 1.23383 10.1531 1.23383 10.2806C1.23383 10.4082 1.28448 10.5304 1.37464 10.6206C1.4648 10.7108 1.58709 10.7614 1.71459 10.7614L3.68574 10.7494Z" fill="#72AAFF"/>
</svg>
