<svg width="75" height="75" viewBox="0 0 75 75" fill="none" xmlns="http://www.w3.org/2000/svg">
<g clip-path="url(#clip0_6052_210)">
<circle cx="37.5002" cy="37.5" r="37.5" fill="white"/>
<g clip-path="url(#clip1_6052_210)">
<path d="M24.3138 28.4241C26.7637 28.4241 28.7497 26.4381 28.7497 23.9882C28.7497 21.5383 26.7637 19.5522 24.3138 19.5522C21.8639 19.5522 19.8778 21.5383 19.8778 23.9882C19.8778 26.4381 21.8639 28.4241 24.3138 28.4241Z" stroke="#522AF9" stroke-width="1.54922" stroke-miterlimit="10"/>
<path d="M37.6577 23.1465C40.1076 23.1465 42.0937 21.1605 42.0937 18.7106C42.0937 16.2607 40.1076 14.2747 37.6577 14.2747C35.2078 14.2747 33.2218 16.2607 33.2218 18.7106C33.2218 21.1605 35.2078 23.1465 37.6577 23.1465Z" stroke="#522AF9" stroke-width="1.54922" stroke-miterlimit="10"/>
<path d="M37.6577 45.166C41.893 45.166 45.3264 41.7326 45.3264 37.4974C45.3264 33.2621 41.893 29.8287 37.6577 29.8287C33.4224 29.8287 29.9891 33.2621 29.9891 37.4974C29.9891 41.7326 33.4224 45.166 37.6577 45.166Z" stroke="#522AF9" stroke-width="1.54922" stroke-miterlimit="10"/>
<path d="M18.5094 41.9334C20.9593 41.9334 22.9453 39.9474 22.9453 37.4975C22.9453 35.0476 20.9593 33.0615 18.5094 33.0615C16.0595 33.0615 14.0734 35.0476 14.0734 37.4975C14.0734 39.9474 16.0595 41.9334 18.5094 41.9334Z" stroke="#522AF9" stroke-width="1.54922" stroke-miterlimit="10"/>
<path d="M56.491 41.9334C58.9409 41.9334 60.927 39.9474 60.927 37.4975C60.927 35.0476 58.9409 33.0615 56.491 33.0615C54.0411 33.0615 52.0551 35.0476 52.0551 37.4975C52.0551 39.9474 54.0411 41.9334 56.491 41.9334Z" stroke="#522AF9" stroke-width="1.54922" stroke-miterlimit="10"/>
<path d="M50.9294 28.4241C53.3793 28.4241 55.3653 26.4381 55.3653 23.9882C55.3653 21.5383 53.3793 19.5522 50.9294 19.5522C48.4795 19.5522 46.4935 21.5383 46.4935 23.9882C46.4935 26.4381 48.4795 28.4241 50.9294 28.4241Z" stroke="#522AF9" stroke-width="1.54922" stroke-miterlimit="10"/>
<path d="M37.6577 37.6059C39.1608 37.6059 40.3792 36.3874 40.3792 34.8844C40.3792 33.3814 39.1608 32.163 37.6577 32.163C36.1547 32.163 34.9363 33.3814 34.9363 34.8844C34.9363 36.3874 36.1547 37.6059 37.6577 37.6059Z" stroke="#522AF9" stroke-width="1.03281" stroke-miterlimit="10"/>
<path d="M50.9293 55.4425C53.3792 55.4425 55.3653 53.4565 55.3653 51.0066C55.3653 48.5567 53.3792 46.5707 50.9293 46.5707C48.4794 46.5707 46.4934 48.5567 46.4934 51.0066C46.4934 53.4565 48.4794 55.4425 50.9293 55.4425Z" stroke="#522AF9" stroke-width="1.54922" stroke-miterlimit="10"/>
<path d="M37.5854 60.7203C40.0353 60.7203 42.0213 58.7342 42.0213 56.2843C42.0213 53.8344 40.0353 51.8484 37.5854 51.8484C35.1355 51.8484 33.1495 53.8344 33.1495 56.2843C33.1495 58.7342 35.1355 60.7203 37.5854 60.7203Z" stroke="#522AF9" stroke-width="1.54922" stroke-miterlimit="10"/>
<path d="M24.3138 55.4425C26.7637 55.4425 28.7497 53.4565 28.7497 51.0066C28.7497 48.5567 26.7637 46.5707 24.3138 46.5707C21.8639 46.5707 19.8778 48.5567 19.8778 51.0066C19.8778 53.4565 21.8639 55.4425 24.3138 55.4425Z" stroke="#522AF9" stroke-width="1.54922" stroke-miterlimit="10"/>
<path d="M32.3594 32.1733L27.5775 27.443" stroke="#522AF9" stroke-width="1.54922" stroke-miterlimit="10"/>
<path d="M47.9187 47.557L43.2659 42.9558" stroke="#522AF9" stroke-width="1.54922" stroke-miterlimit="10"/>
<path d="M32.4214 42.8887L27.6911 47.6706" stroke="#522AF9" stroke-width="1.54922" stroke-miterlimit="10"/>
<path d="M47.8052 27.3293L43.204 31.977" stroke="#522AF9" stroke-width="1.54922" stroke-miterlimit="10"/>
<path d="M37.7507 45.0782V51.8019" stroke="#522AF9" stroke-width="1.54922" stroke-miterlimit="10"/>
<path d="M37.7507 23.1981V29.7358" stroke="#522AF9" stroke-width="1.54922" stroke-miterlimit="10"/>
<path d="M45.3264 37.4974H52.05" stroke="#522AF9" stroke-width="1.54922" stroke-miterlimit="10"/>
<path d="M23.4462 37.4974H29.9891" stroke="#522AF9" stroke-width="1.54922" stroke-miterlimit="10"/>
<path d="M33.2528 43.6995C32.7932 43.2451 32.5298 42.7183 32.5298 42.1555C32.5298 40.4926 34.8226 39.1396 37.6577 39.1396C40.4928 39.1396 42.7856 40.4875 42.7856 42.1555C42.7856 42.7132 42.5274 43.2348 42.0781 43.684" stroke="#522AF9" stroke-width="1.03281" stroke-miterlimit="10"/>
</g>
</g>
<defs>
<clipPath id="clip0_6052_210">
<rect width="75" height="75" fill="white" transform="translate(0.000244141)"/>
</clipPath>
<clipPath id="clip1_6052_210">
<rect width="48.4028" height="48" fill="white" transform="translate(13.2988 13.5)"/>
</clipPath>
</defs>
</svg>
