<svg width="17" height="12" viewBox="0 0 17 12" fill="none" xmlns="http://www.w3.org/2000/svg">
<path d="M14.6394 0.646484H2.94426C1.77209 0.646484 0.817871 1.60071 0.817871 2.77288V9.68365C0.817871 10.8558 1.77209 11.81 2.94426 11.81H14.6394C15.8116 11.81 16.7658 10.8558 16.7658 9.68365V2.77288C16.7658 1.60071 15.8116 0.646484 14.6394 0.646484ZM15.7026 9.68365C15.7026 10.2697 15.2255 10.7468 14.6394 10.7468H2.94426C2.35818 10.7468 1.88107 10.2697 1.88107 9.68365V2.77288C1.88107 2.18679 2.35818 1.70968 2.94426 1.70968H14.6394C15.2255 1.70968 15.7026 2.18679 15.7026 2.77288V9.68365ZM14.3018 3.83539C14.4487 4.08923 14.3623 4.41482 14.1085 4.56168L10.257 6.79167C9.80514 7.05349 9.29813 7.18373 8.79177 7.18373C8.28542 7.18373 7.77842 7.05348 7.32655 6.79167L3.47506 4.56168C3.22122 4.41483 3.13418 4.08923 3.2817 3.83539C3.42855 3.58155 3.75415 3.49451 4.00799 3.64203L7.85948 5.87202C8.43493 6.20426 9.14926 6.20426 9.72407 5.87202L13.5756 3.64271C13.8301 3.49452 14.155 3.58155 14.3018 3.83539Z" fill="#522AF9"/>
</svg>
