<svg width="24" height="29" viewBox="0 0 24 29" fill="none" xmlns="http://www.w3.org/2000/svg">
<path d="M6.26384 28.3711C5.70552 28.004 5.21068 27.5504 4.79836 27.0277C4.3448 26.4883 3.92457 25.9222 3.53995 25.3328C2.63737 24.026 1.92954 22.5977 1.43818 21.0919C0.847913 19.3427 0.562073 17.6661 0.562073 16.0263C0.562073 14.1949 0.962958 12.5961 1.74703 11.2528C2.32825 10.2028 3.18279 9.32531 4.22225 8.71119C5.2296 8.09283 6.38706 7.75444 7.57269 7.73165C7.98774 7.73165 8.43464 7.79113 8.90897 7.90482C9.24968 8.00015 9.66473 8.15058 10.1718 8.33774C10.8169 8.5835 11.1718 8.73393 11.2922 8.77067C11.67 8.9071 11.9877 8.96657 12.2373 8.96657C12.4267 8.96657 12.6939 8.9071 12.9975 8.81614C13.1683 8.75667 13.4904 8.65172 13.9515 8.45669C14.4081 8.29227 14.7674 8.15146 15.0532 8.0465C15.4913 7.91881 15.9152 7.80075 16.293 7.74127C16.741 7.67148 17.1956 7.65299 17.6479 7.68617C18.4316 7.7368 19.2036 7.90093 19.9391 8.17332C21.1417 8.65172 22.1143 9.39862 22.8382 10.4604C22.5322 10.6467 22.2451 10.8617 21.9807 11.1023C21.4051 11.6066 20.9148 12.1986 20.5284 12.8559C20.0234 13.7541 19.7616 14.766 19.7683 15.7936C19.7868 17.0557 20.1143 18.1673 20.7594 19.1284C21.2337 19.8408 21.8501 20.45 22.5709 20.9187C22.9399 21.1645 23.2576 21.3333 23.5621 21.447C23.4196 21.8843 23.2674 22.3076 23.0877 22.7274C22.6803 23.6688 22.1865 24.5713 21.6125 25.4237C21.101 26.1575 20.7001 26.7041 20.3957 27.068C19.9214 27.6233 19.4647 28.0475 19.0037 28.3431C18.4966 28.6755 17.8975 28.853 17.2886 28.853C16.8763 28.8686 16.464 28.8193 16.0674 28.7069C15.7267 28.5932 15.3895 28.4699 15.0576 28.3291C14.7126 28.1725 14.3569 28.0401 13.993 27.9329C13.0937 27.7046 12.1507 27.7031 11.2506 27.9286C10.8815 28.0335 10.5267 28.156 10.1762 28.3064C9.68331 28.511 9.35588 28.6483 9.1665 28.7069C8.78862 28.8163 8.39659 28.8845 8.00013 28.9072C7.38685 28.9072 6.81517 28.7341 6.2488 28.3833L6.26384 28.3711ZM14.3523 6.84307C13.5506 7.23926 12.7851 7.40805 12.0249 7.35295C11.9054 6.59643 12.0249 5.82242 12.3426 4.97495C12.6131 4.25696 13.0127 3.59325 13.5222 3.01586C14.0603 2.40804 14.7132 1.90984 15.4444 1.54918C16.2231 1.15299 16.9656 0.938712 17.6753 0.907227C17.7674 1.69961 17.6753 2.47886 17.3807 3.32109C17.1079 4.06562 16.709 4.75886 16.201 5.37113C15.6825 5.97979 15.0461 6.47993 14.3293 6.84219L14.3523 6.84307Z" fill="white"/>
</svg>
