<svg width="371" height="159" viewBox="0 0 371 159" fill="none" xmlns="http://www.w3.org/2000/svg">
<rect opacity="0.1" y="0.679688" width="371" height="158" rx="20" fill="url(#paint0_linear_4022_2446)"/>
<path d="M146.211 64.0833H163.808L164.354 69.2669C163.035 69.0395 161.671 68.9031 160.352 68.8122C159.034 68.7212 157.67 68.6758 156.305 68.6758H153.213V76.2693H164.308L163.444 81.1801C162.262 81.0437 161.08 80.9527 159.852 80.8618C158.624 80.7709 157.306 80.7709 155.942 80.7709H153.213V90.2742H155.487C156.942 90.2742 158.397 90.2287 159.898 90.0923C161.398 90.0013 162.944 89.8195 164.536 89.5921L163.626 94.7757H146.211C146.438 92.4113 146.62 89.9559 146.757 87.3641C146.893 84.7722 146.939 82.0895 146.939 79.2703C146.939 76.9514 146.893 74.5414 146.757 71.9951C146.62 69.5397 146.438 66.9024 146.211 64.0833ZM170.583 72.1315C171.22 75.0416 171.993 77.8608 172.857 80.589C173.721 83.3172 174.721 85.9545 175.812 88.5008C177.04 85.909 178.04 83.3172 178.813 80.7709C179.586 78.1791 180.132 75.6327 180.45 73.0864L186.907 72.177C186.089 75.4508 184.952 78.952 183.497 82.7261C182.042 86.5001 180.177 90.5924 177.995 94.9576H172.766C171.493 91.0471 170.083 87.2276 168.582 83.59C167.082 79.9524 165.49 76.4512 163.763 73.0409L170.583 72.1315ZM199.911 89.4557C199.866 88.91 199.821 88.2735 199.775 87.455C199.73 86.6365 199.73 85.5907 199.73 84.363C197.183 84.363 195.274 84.7268 193.955 85.4543C192.636 86.1818 192 87.2276 192 88.5918C192 89.3647 192.272 90.0013 192.773 90.456C193.273 90.9107 193.955 91.1381 194.864 91.1381C195.728 91.1381 196.592 91.0017 197.456 90.7289C198.275 90.456 199.093 90.0013 199.911 89.4557ZM200.23 92.1839C198.729 93.2752 197.365 94.0937 196.047 94.5938C194.728 95.094 193.409 95.3668 192.045 95.3668C190.135 95.3668 188.635 94.8667 187.589 93.8208C186.543 92.775 185.998 91.32 185.998 89.4102C185.998 86.8639 187.134 84.8632 189.408 83.4991C191.681 82.135 195.092 81.362 199.593 81.2256V80.6345C199.593 79.2703 199.184 78.27 198.365 77.5879C197.547 76.9059 196.319 76.5421 194.682 76.5421C193.591 76.5421 192.5 76.6785 191.409 76.9514C190.317 77.2242 189.181 77.6334 188.089 78.1791L188.271 73.8594C189.499 73.3137 190.817 72.859 192.182 72.5862C193.546 72.3134 194.91 72.1315 196.319 72.1315C197.638 72.1315 198.775 72.2679 199.775 72.5862C200.775 72.9045 201.639 73.3592 202.412 73.9958C203.413 74.8143 204.095 75.8601 204.504 77.1332C204.913 78.4064 205.141 80.3616 205.141 82.9989V85.0451C205.141 88.0461 205.322 89.9559 205.732 90.6834C206.095 91.4109 206.868 91.8201 207.914 91.8201H208.278L208.187 94.412C207.505 94.6393 206.868 94.8212 206.141 94.9121C205.459 95.0031 204.731 95.094 204.004 95.094C203.003 95.094 202.185 94.8667 201.548 94.3665C200.912 93.9118 200.503 93.1843 200.23 92.1839ZM229.922 94.8212H223.192C223.374 91.9566 223.465 89.6376 223.556 87.8188C223.647 85.9999 223.647 84.3175 223.647 82.7716C223.647 80.6345 223.329 79.1339 222.738 78.27C222.146 77.4061 221.146 76.9514 219.782 76.9514C219.1 76.9514 218.327 77.0423 217.508 77.2696C216.69 77.497 215.826 77.8153 214.917 78.27V80.589C214.917 83.5445 214.962 86.1818 215.053 88.5463C215.144 90.9107 215.235 93.0024 215.417 94.8667H208.733C208.915 92.6386 209.096 90.547 209.187 88.6372C209.278 86.7275 209.324 84.9541 209.324 83.3172C209.324 81.0437 209.278 78.9975 209.187 77.2242C209.096 75.4054 208.915 73.9048 208.733 72.5862C209.506 72.5862 210.324 72.5407 211.143 72.4498C211.961 72.4043 212.734 72.2679 213.462 72.177L214.507 75.3599C216.372 74.2231 218.009 73.3592 219.418 72.8136C220.828 72.2679 222.101 71.9951 223.238 71.9951C225.42 71.9951 226.921 72.7226 227.876 74.1322C228.785 75.5418 229.24 77.9517 229.24 81.4074V84.6813C229.24 86.4092 229.285 88.0916 229.422 89.774C229.558 91.4564 229.695 93.1388 229.922 94.8212ZM241.289 75.8601C240.153 75.8601 239.198 76.2238 238.47 76.9514C237.743 77.6789 237.379 78.6338 237.379 79.725C237.379 80.9073 237.743 81.9076 238.425 82.6351C239.152 83.3627 240.062 83.7264 241.199 83.7264C242.381 83.7264 243.29 83.3627 244.018 82.6351C244.745 81.9076 245.109 80.9527 245.109 79.7705C245.109 78.5883 244.745 77.6334 244.063 76.9059C243.381 76.2238 242.472 75.8601 241.289 75.8601ZM237.561 94.8667C236.924 95.3668 236.47 95.8215 236.197 96.3217C235.924 96.7764 235.788 97.2766 235.788 97.7768C235.788 98.868 236.333 99.732 237.379 100.459C238.425 101.142 239.834 101.505 241.517 101.505C243.199 101.505 244.518 101.187 245.564 100.55C246.609 99.9139 247.11 99.0954 247.11 98.095C247.11 96.9583 245.518 96.1398 242.335 95.6851C240.38 95.3668 238.789 95.1395 237.561 94.8667ZM246.973 73.4047C248.337 73.4047 249.656 73.3592 250.838 73.3137C252.02 73.2683 253.157 73.1773 254.158 73.0409L253.612 76.6331H253.475C252.521 76.6785 251.793 76.724 251.384 76.724C251.202 76.724 250.929 76.724 250.611 76.724C250.247 76.724 250.02 76.724 249.883 76.724C250.156 77.2697 250.338 77.8153 250.429 78.3155C250.565 78.8611 250.611 79.3613 250.611 79.8615C250.611 82.0895 249.792 83.9083 248.155 85.2724C246.519 86.6365 244.336 87.3186 241.653 87.3186C241.108 87.3186 240.562 87.2731 239.971 87.2276C239.38 87.1822 238.743 87.0458 238.152 86.9548C237.925 87.2276 237.743 87.455 237.606 87.7278C237.47 88.0006 237.424 88.228 237.424 88.4553C237.424 89.0919 237.743 89.5921 238.334 89.9104C238.925 90.2287 240.198 90.5015 242.199 90.7743C242.608 90.8198 243.154 90.9107 243.881 90.9562C247.246 91.32 249.474 91.9566 250.565 92.775C251.247 93.3207 251.748 93.9572 252.111 94.6848C252.475 95.4578 252.612 96.3217 252.612 97.2766C252.612 99.6865 251.566 101.596 249.52 103.006C247.428 104.461 244.654 105.143 241.199 105.143C237.97 105.143 235.424 104.552 233.514 103.37C231.604 102.187 230.649 100.641 230.649 98.7316C230.649 97.8677 230.968 97.0492 231.559 96.2762C232.15 95.5032 233.105 94.7302 234.423 93.9118C233.787 93.5935 233.287 93.2297 232.923 92.7295C232.605 92.2748 232.423 91.6837 232.423 91.0471C232.423 90.2742 232.696 89.4557 233.287 88.6827C233.878 87.9097 234.742 87.0912 235.969 86.2728C234.651 85.6817 233.696 84.8177 232.968 83.7264C232.286 82.6351 231.923 81.3165 231.923 79.816C231.923 77.4515 232.741 75.5418 234.423 74.1322C236.106 72.7226 238.334 71.9951 241.199 71.9951C242.335 71.9951 243.427 72.1315 244.381 72.3589C245.245 72.5407 246.155 72.9045 246.973 73.4047ZM268.39 81.3165V81.0437C268.39 79.4068 268.026 78.0881 267.253 77.1787C266.48 76.2693 265.389 75.8146 264.025 75.8146C262.57 75.8146 261.387 76.3148 260.523 77.2696C259.659 78.2245 259.205 79.5886 259.114 81.271H268.39V81.3165ZM273.755 84.7268H259.068C259.068 86.7275 259.659 88.2735 260.796 89.3193C261.933 90.3651 263.615 90.9107 265.798 90.9107C266.753 90.9107 267.799 90.7743 268.89 90.547C269.981 90.2742 271.163 89.9104 272.391 89.4102L272.073 93.7299C270.8 94.321 269.572 94.7302 268.253 95.0485C266.98 95.3214 265.662 95.5032 264.343 95.5032C260.887 95.5032 258.159 94.5029 256.204 92.4567C254.248 90.456 253.248 87.6369 253.248 84.0902C253.248 80.4071 254.203 77.497 256.158 75.3144C258.113 73.1319 260.705 72.0406 263.979 72.0406C267.071 72.0406 269.481 73.0409 271.209 75.0416C272.937 77.0423 273.801 79.816 273.801 83.4536C273.801 83.8174 273.801 84.0902 273.801 84.2721C273.801 84.363 273.801 84.5449 273.755 84.7268ZM265.298 62.3099H270.8C269.617 63.8104 268.299 65.1746 266.844 66.4022C265.389 67.6299 263.843 68.6758 262.206 69.5852L259.341 68.7667C260.523 67.8118 261.615 66.8115 262.615 65.7657C263.615 64.6744 264.525 63.5376 265.298 62.3099ZM282.349 61.6733C282.213 64.0833 282.076 66.7205 281.985 69.5852C281.894 72.4498 281.849 75.4963 281.849 78.6338C281.849 81.2256 281.894 83.8174 281.985 86.5001C282.076 89.1829 282.167 91.9566 282.349 94.7757H275.801C275.983 92.2294 276.12 89.5921 276.211 86.9094C276.302 84.2266 276.347 81.4529 276.347 78.6338C276.347 75.0871 276.256 71.9496 276.12 69.3123C275.983 66.6751 275.756 64.538 275.483 62.9465C276.665 62.8101 277.802 62.6282 278.939 62.4009C280.121 62.219 281.258 61.9916 282.349 61.6733ZM291.761 72.086C291.625 73.5411 291.534 75.178 291.489 76.9514C291.443 78.7247 291.398 80.6799 291.398 82.817C291.398 84.8177 291.443 86.8184 291.489 88.7736C291.534 90.7743 291.671 92.7295 291.761 94.6848H285.214C285.396 92.775 285.532 90.8653 285.623 88.9555C285.714 87.0458 285.759 85.2269 285.759 83.4081C285.759 81.1801 285.714 79.1794 285.578 77.4061C285.441 75.6327 285.259 73.9958 285.032 72.5407C286.078 72.5407 287.124 72.4953 288.215 72.4043C289.352 72.3589 290.534 72.2224 291.761 72.086ZM288.988 62.0826C289.988 62.0826 290.761 62.3554 291.307 62.901C291.852 63.4467 292.125 64.2197 292.125 65.1746C292.125 66.2204 291.716 67.1298 290.943 67.9028C290.17 68.6758 289.215 69.085 288.124 69.085C287.26 69.085 286.578 68.7667 286.032 68.1301C285.487 67.4935 285.214 66.7205 285.214 65.7202C285.214 64.6744 285.578 63.8104 286.26 63.0829C287.033 62.4463 287.942 62.0826 288.988 62.0826ZM309.54 72.6317L310.177 77.4515C309.54 77.1332 308.858 76.9059 308.131 76.7695C307.403 76.6331 306.676 76.5421 305.948 76.5421C303.948 76.5421 302.356 77.1787 301.219 78.4519C300.037 79.725 299.446 81.4529 299.446 83.6355C299.446 85.7726 299.946 87.455 300.946 88.6827C301.947 89.9104 303.356 90.5015 305.13 90.5015C306.039 90.5015 306.949 90.4106 307.812 90.1832C308.722 90.0013 309.631 89.683 310.632 89.2283L310.268 93.8208C309.268 94.321 308.222 94.7302 307.176 94.9576C306.13 95.2304 304.993 95.3214 303.811 95.3214C300.719 95.3214 298.264 94.321 296.399 92.3203C294.535 90.3196 293.626 87.6369 293.626 84.3175C293.626 80.4526 294.717 77.4515 296.854 75.269C298.991 73.0864 301.992 71.9951 305.766 71.9951C306.357 71.9951 306.949 72.0406 307.54 72.1315C308.085 72.3134 308.767 72.4498 309.54 72.6317ZM322.045 76.4967C320.271 76.4967 318.953 77.1332 317.998 78.3609C317.088 79.5886 316.634 81.4074 316.634 83.7719C316.634 86.1364 317.088 87.9552 317.998 89.1829C318.907 90.4106 320.271 91.0471 322.045 91.0471C323.818 91.0471 325.182 90.4106 326.137 89.1829C327.046 87.9552 327.501 86.1364 327.501 83.7719C327.501 81.362 327.046 79.5886 326.137 78.3609C325.228 77.0878 323.863 76.4967 322.045 76.4967ZM322.045 71.9951C325.5 71.9951 328.229 73.0864 330.32 75.2235C332.366 77.3606 333.412 80.2252 333.412 83.8174C333.412 87.4095 332.366 90.2742 330.32 92.3658C328.274 94.5029 325.5 95.5487 322.045 95.5487C318.589 95.5487 315.861 94.4574 313.769 92.3658C311.723 90.2287 310.677 87.3641 310.677 83.8174C310.677 80.2252 311.723 77.3606 313.769 75.2235C315.861 73.0409 318.634 71.9951 322.045 71.9951Z" fill="#E8EBF8"/>
<path d="M146.62 114.965C146.939 115.01 147.439 115.056 147.893 115.056C149.03 115.056 149.803 114.783 150.349 114.283C151.031 113.646 151.486 112.509 151.486 110.872C151.486 109.326 151.122 108.235 150.44 107.644C149.94 107.189 149.212 106.916 148.212 106.916C147.575 106.916 147.03 106.962 146.62 107.053V114.965ZM148.166 108.19C148.257 108.144 148.348 108.144 148.485 108.144C149.439 108.144 149.849 109.144 149.849 110.781C149.849 113.009 149.212 113.737 148.439 113.737C148.348 113.737 148.257 113.737 148.166 113.691V108.19ZM163.444 110.145H161.625V108.28H163.581V106.916H160.08V114.965H163.717V113.601H161.625V111.418H163.444V110.145ZM178.995 114.965H182.633V113.646H180.587V106.916H179.041V114.965H178.995ZM192.955 115.101C194.455 115.101 195.546 113.873 195.546 110.827C195.546 109.008 195.001 106.871 193.045 106.871C191.272 106.871 190.408 108.781 190.408 110.963C190.363 113.146 191.09 115.101 192.955 115.101ZM192.955 113.737C192.272 113.737 191.954 112.555 192 110.963C192 109.508 192.272 108.235 192.955 108.235C193.637 108.235 193.864 109.508 193.864 110.918C193.909 112.509 193.637 113.737 192.955 113.737ZM205.459 114.965V113.146C205.459 111.554 205.413 110.281 205.368 109.463H205.413C205.595 110.19 205.959 111.191 206.232 111.873L207.46 114.919H208.869V106.871H207.505V108.644C207.505 110.145 207.596 111.509 207.641 112.373H207.596C207.369 111.691 206.959 110.645 206.732 110.008L205.504 106.871H204.095V114.919H205.459V114.965ZM217.827 114.965C218.145 115.01 218.645 115.056 219.1 115.056C220.237 115.056 221.01 114.783 221.555 114.283C222.237 113.646 222.692 112.509 222.692 110.872C222.692 109.326 222.328 108.235 221.646 107.644C221.146 107.189 220.419 106.916 219.418 106.916C218.782 106.916 218.236 106.962 217.827 107.053V114.965ZM219.418 108.19C219.509 108.144 219.6 108.144 219.737 108.144C220.691 108.144 221.101 109.144 221.101 110.781C221.101 113.009 220.464 113.737 219.691 113.737C219.6 113.737 219.509 113.737 219.418 113.691V108.19ZM231.286 114.965H232.832V111.736H233.059C233.605 111.736 233.832 112.009 233.969 113.009C234.105 113.873 234.287 114.692 234.378 114.919H236.015C235.878 114.601 235.651 113.646 235.515 112.737C235.378 111.873 235.105 111.372 234.514 111.145V111.1C235.333 110.736 235.742 109.963 235.742 109.099C235.742 108.417 235.606 107.871 235.105 107.417C234.56 106.916 233.832 106.825 232.968 106.825C232.377 106.825 231.741 106.871 231.241 106.962V114.965H231.286ZM232.832 108.19C232.923 108.144 233.059 108.144 233.196 108.144C233.878 108.19 234.196 108.644 234.196 109.326C234.196 110.008 233.787 110.599 233.105 110.599H232.832V108.19ZM244.472 106.962V115.01H246.018V106.962H244.472ZM256.386 114.965V113.146C256.386 111.554 256.34 110.281 256.295 109.463H256.34C256.522 110.19 256.886 111.191 257.159 111.873L258.386 114.919H259.796V106.871H258.432V108.644C258.432 110.145 258.523 111.509 258.568 112.373H258.523C258.295 111.691 257.886 110.645 257.659 110.008L256.431 106.871H255.021V114.919H256.386V114.965ZM271.482 113.146L271.845 114.965H273.346L271.8 106.916H269.936L268.208 114.965H269.708L270.072 113.146H271.482ZM270.209 111.918L270.527 110.236C270.618 109.781 270.709 108.917 270.8 108.417H270.845C270.936 108.963 271.027 109.736 271.118 110.236L271.391 111.918H270.209Z" fill="#E8EBF8"/>
<path d="M146.62 45.1677H149.439C149.394 45.8952 149.349 46.6228 149.303 47.3958C149.258 48.1687 149.258 48.9417 149.258 49.7602H153.85C153.85 48.8963 153.805 48.0778 153.805 47.3048C153.759 46.5318 153.714 45.8498 153.668 45.1677H156.533C156.442 46.1226 156.351 47.032 156.305 48.0323C156.26 48.9872 156.215 49.9876 156.215 50.9879C156.215 52.0792 156.215 53.125 156.305 54.0799C156.351 55.0348 156.442 55.9442 156.533 56.8536H153.668C153.714 56.126 153.759 55.3076 153.759 54.4891C153.805 53.6252 153.805 52.6703 153.85 51.579H149.258C149.258 52.5339 149.303 53.4433 149.303 54.3527C149.349 55.2166 149.394 56.0806 149.439 56.899H146.62C146.711 55.8987 146.757 54.9438 146.802 53.9889C146.848 53.0341 146.893 52.0337 146.893 51.0788C146.893 50.2149 146.893 49.3055 146.802 48.3506C146.757 47.2593 146.711 46.259 146.62 45.1677ZM169.037 49.8511C168.355 49.8511 167.855 50.0785 167.491 50.5332C167.127 50.9879 166.991 51.67 166.991 52.5794C166.991 53.4888 167.173 54.1708 167.491 54.6255C167.855 55.0802 168.355 55.3076 169.037 55.3076C169.719 55.3076 170.219 55.0802 170.583 54.6255C170.947 54.1708 171.083 53.4888 171.083 52.5794C171.083 51.67 170.901 50.9879 170.583 50.5332C170.219 50.0785 169.719 49.8511 169.037 49.8511ZM169.037 48.1687C170.356 48.1687 171.356 48.578 172.175 49.3964C172.948 50.2149 173.357 51.3062 173.357 52.6248C173.357 53.9889 172.948 55.0802 172.175 55.8532C171.402 56.6717 170.356 57.0355 169.037 57.0355C167.719 57.0355 166.718 56.6262 165.9 55.8078C165.127 54.9893 164.717 53.9435 164.717 52.5794C164.717 51.2153 165.127 50.124 165.9 49.351C166.673 48.578 167.719 48.1687 169.037 48.1687ZM186.043 48.4416L186.225 49.9876C185.907 49.8966 185.634 49.8057 185.361 49.7602C185.088 49.7147 184.861 49.6693 184.633 49.6693C184.179 49.6693 183.815 49.7602 183.542 49.8966C183.269 50.0785 183.133 50.2604 183.133 50.5332C183.133 50.897 183.542 51.3062 184.361 51.7609C184.497 51.8518 184.588 51.8973 184.633 51.9428C185.361 52.3975 185.861 52.7612 186.089 53.0795C186.316 53.3978 186.407 53.7616 186.407 54.2163C186.407 55.0348 186.089 55.6713 185.452 56.1715C184.815 56.6717 183.951 56.899 182.906 56.899C182.633 56.899 182.36 56.899 182.087 56.8536C181.814 56.8081 181.496 56.7626 181.223 56.7172L180.859 55.0348C181.178 55.1257 181.541 55.2166 181.86 55.2621C182.178 55.3076 182.496 55.3531 182.769 55.3531C183.224 55.3531 183.588 55.2621 183.86 55.0802C184.133 54.8983 184.27 54.7165 184.27 54.4436C184.27 54.1254 183.906 53.7161 183.178 53.2614C183.087 53.1705 182.997 53.125 182.951 53.0795C182.178 52.5794 181.632 52.1701 181.405 51.8518C181.178 51.5335 181.087 51.1698 181.087 50.7151C181.087 49.9421 181.405 49.3055 182.042 48.8053C182.678 48.3052 183.497 48.0778 184.497 48.0778C184.724 48.0778 184.997 48.0778 185.225 48.1233C185.452 48.2597 185.725 48.3506 186.043 48.4416ZM196.819 50.6696C196.774 51.1243 196.774 51.4426 196.729 51.7154C196.729 51.9883 196.729 52.2156 196.729 52.352C196.729 53.3069 196.91 54.0799 197.183 54.5801C197.502 55.0802 197.956 55.3531 198.593 55.3531C199.229 55.3531 199.775 55.0802 200.139 54.5801C200.503 54.0799 200.684 53.3524 200.684 52.443C200.684 51.67 200.503 51.0334 200.184 50.5787C199.821 50.124 199.366 49.9421 198.729 49.9421C198.411 49.9421 198.138 49.9876 197.82 50.124C197.547 50.2604 197.183 50.4423 196.819 50.6696ZM196.729 55.9896C196.729 56.6717 196.774 57.3992 196.819 58.1267C196.865 58.8543 196.91 59.6727 197.001 60.4912H194.501C194.591 59.4454 194.637 58.3086 194.682 56.99C194.728 55.7168 194.728 54.3527 194.728 52.9431C194.728 51.8064 194.728 50.897 194.682 50.1694C194.637 49.4419 194.591 48.8508 194.501 48.3961C194.819 48.3961 195.092 48.3961 195.41 48.3506C195.728 48.3052 196.001 48.3052 196.274 48.2597L196.638 49.4419C197.183 48.9872 197.683 48.6689 198.184 48.487C198.684 48.3052 199.138 48.1687 199.639 48.1687C200.639 48.1687 201.412 48.578 202.049 49.351C202.685 50.124 203.003 51.1243 203.003 52.352C203.003 53.7616 202.64 54.8983 201.958 55.7623C201.276 56.6262 200.366 57.0809 199.275 57.0809C198.82 57.0809 198.365 56.99 197.956 56.8081C197.502 56.6262 197.092 56.3534 196.729 55.9896ZM213.416 48.2142C213.371 48.7599 213.325 49.3964 213.325 50.033C213.28 50.7151 213.28 51.4426 213.28 52.2611C213.28 53.0341 213.28 53.7616 213.325 54.5346C213.371 55.3076 213.371 56.0351 213.416 56.7626H210.961C211.052 56.0351 211.097 55.3076 211.143 54.6255C211.188 53.898 211.188 53.2159 211.188 52.5339C211.188 51.7154 211.143 50.9424 211.097 50.2604C211.052 49.5783 210.961 48.9872 210.87 48.4416C211.279 48.4416 211.643 48.4416 212.098 48.3961C212.507 48.3052 212.961 48.2597 213.416 48.2142ZM212.37 44.4402C212.734 44.4402 213.052 44.5311 213.234 44.7585C213.462 44.9858 213.553 45.2586 213.553 45.6224C213.553 46.0316 213.416 46.3499 213.098 46.6682C212.825 46.941 212.461 47.1229 212.052 47.1229C211.734 47.1229 211.461 46.9865 211.279 46.7592C211.052 46.5318 210.961 46.2135 210.961 45.8498C210.961 45.4405 211.097 45.1222 211.37 44.8494C211.643 44.5766 211.961 44.4402 212.37 44.4402ZM222.465 48.3506L223.01 46.2135C223.329 46.1681 223.647 46.1226 223.92 46.0771C224.193 46.0316 224.465 45.9407 224.738 45.8498C224.693 46.1681 224.647 46.5318 224.647 46.941C224.602 47.3503 224.556 47.8505 224.556 48.487H226.693L226.33 49.9876H224.556C224.511 50.806 224.511 51.4426 224.511 51.8064C224.511 52.1701 224.511 52.4884 224.511 52.6703C224.511 53.7616 224.647 54.4891 224.875 54.8529C225.102 55.2166 225.557 55.3985 226.193 55.3985C226.284 55.3985 226.421 55.3985 226.557 55.3985C226.693 55.3985 226.83 55.3531 226.966 55.3531L226.648 56.899C226.375 56.9445 226.148 56.99 225.875 57.0355C225.648 57.0809 225.42 57.0809 225.193 57.0809C224.238 57.0809 223.511 56.8081 223.056 56.2625C222.601 55.7168 222.374 54.8529 222.374 53.6707C222.374 53.3524 222.419 52.3065 222.465 50.4877V50.033H221.055L221.146 49.0327L222.465 48.3506ZM239.289 54.7619C239.289 54.5801 239.243 54.3072 239.243 53.9889C239.243 53.6707 239.243 53.3069 239.243 52.8067C238.288 52.8067 237.561 52.9431 237.061 53.2159C236.561 53.4888 236.333 53.898 236.333 54.3982C236.333 54.671 236.424 54.9438 236.606 55.0802C236.788 55.2621 237.061 55.3531 237.379 55.3531C237.697 55.3531 238.061 55.3076 238.379 55.1712C238.698 55.1257 239.016 54.9893 239.289 54.7619ZM239.425 55.8078C238.88 56.217 238.334 56.5353 237.834 56.7172C237.334 56.899 236.833 56.99 236.333 56.99C235.606 56.99 235.06 56.8081 234.651 56.3989C234.242 55.9896 234.06 55.444 234.06 54.7619C234.06 53.8071 234.469 53.0341 235.333 52.5339C236.197 52.0337 237.47 51.7154 239.198 51.67V51.4426C239.198 50.9424 239.061 50.5332 238.743 50.3058C238.425 50.033 237.97 49.8966 237.334 49.8966C236.924 49.8966 236.515 49.9421 236.106 50.033C235.697 50.124 235.287 50.3058 234.878 50.4877L234.924 48.8508C235.378 48.6234 235.878 48.487 236.424 48.3506C236.924 48.2597 237.47 48.1687 237.97 48.1687C238.47 48.1687 238.88 48.2142 239.289 48.3506C239.653 48.487 240.016 48.6234 240.289 48.8963C240.653 49.2146 240.926 49.5783 241.062 50.0785C241.199 50.5332 241.289 51.3062 241.289 52.3065V53.0795C241.289 54.2163 241.38 54.9438 241.517 55.2166C241.653 55.4895 241.926 55.6259 242.335 55.6259H242.472L242.426 56.5807C242.153 56.6717 241.926 56.7172 241.653 56.7626C241.38 56.8081 241.108 56.8081 240.835 56.8081C240.471 56.8081 240.153 56.7172 239.925 56.5353C239.698 56.4443 239.516 56.1715 239.425 55.8078ZM252.475 44.2583C252.43 45.1677 252.384 46.1681 252.339 47.2593C252.293 48.3506 252.293 49.4874 252.293 50.6696C252.293 51.6245 252.293 52.6248 252.339 53.6252C252.384 54.6255 252.43 55.6713 252.475 56.7626H250.02C250.111 55.8078 250.156 54.8074 250.202 53.8071C250.247 52.8067 250.247 51.7609 250.247 50.6696C250.247 49.3055 250.202 48.1687 250.156 47.1684C250.111 46.1681 250.02 45.3496 249.929 44.7585C250.384 44.713 250.793 44.6221 251.247 44.5311C251.657 44.4857 252.066 44.3947 252.475 44.2583Z" fill="#E8EBF8"/>
<path d="M76.3687 65.5837H92.4652C79.2788 65.902 72.3673 73.8139 70.9123 87.1367V71.0402C70.9123 67.539 72.913 65.5837 76.3687 65.5837Z" fill="#E8EBF8"/>
<path d="M133.889 94.1393H117.792C130.979 93.8211 137.89 85.9092 139.345 72.5864V88.6829C139.391 92.1387 137.39 94.1393 133.889 94.1393Z" fill="#E8EBF8"/>
<path d="M90.6009 109.417V102.778C91.7831 77.8607 117.656 82.6351 121.884 65.5837H127.932C121.839 78.8611 99.6495 76.1783 98.5582 98.868V105.325C98.5582 108.326 100.559 110.781 103.06 110.781H114.336C118.065 110.781 120.884 108.553 121.839 104.779C121.839 109.735 120.202 114.101 113.882 115.055H95.2389C92.6925 115.01 90.6009 112.509 90.6009 109.417Z" fill="#E8EBF8"/>
<path d="M118.883 50.3058V56.9445C117.701 81.8622 91.8286 77.0878 87.5999 94.1392H81.5523C87.6453 80.8618 109.835 83.5446 110.926 60.8549V54.3981C110.926 51.3971 108.925 48.9417 106.425 48.9417H94.6023C91.4194 48.9417 88.964 51.7608 88.191 54.7619C88.191 49.8056 90.0553 45.0767 96.7394 44.6675H114.291C116.792 44.6675 118.883 47.2138 118.883 50.3058Z" fill="#E8EBF8"/>
<defs>
<linearGradient id="paint0_linear_4022_2446" x1="339.22" y1="-65.0276" x2="-8.05636" y2="41.4887" gradientUnits="userSpaceOnUse">
<stop stop-color="#DCDAE2"/>
<stop offset="1" stop-color="#7A7786" stop-opacity="0"/>
</linearGradient>
</defs>
</svg>
