<svg width="41" height="41" viewBox="0 0 41 41" fill="none" xmlns="http://www.w3.org/2000/svg">
<rect x="0.408936" y="0.308594" width="40" height="40" rx="12" fill="#F3EFFF"/>
<path d="M27.7689 12.3086H13.0489C12.6949 12.3086 12.4089 12.5946 12.4089 12.9486V27.6686C12.4089 28.0226 12.6949 28.3086 13.0489 28.3086H27.7689C28.1229 28.3086 28.4089 28.0226 28.4089 27.6686V12.9486C28.4089 12.5946 28.1229 12.3086 27.7689 12.3086ZM17.1549 25.9426H14.7809V18.3066H17.1549V25.9426ZM15.9689 17.2626C15.6968 17.2626 15.4308 17.1819 15.2045 17.0307C14.9782 16.8795 14.8018 16.6646 14.6977 16.4132C14.5935 16.1617 14.5663 15.8851 14.6194 15.6181C14.6725 15.3512 14.8035 15.1061 14.996 14.9136C15.1884 14.7212 15.4336 14.5901 15.7005 14.537C15.9674 14.4839 16.2441 14.5112 16.4955 14.6153C16.7469 14.7195 16.9618 14.8958 17.113 15.1221C17.2642 15.3484 17.3449 15.6144 17.3449 15.8866C17.3429 16.6466 16.7269 17.2626 15.9689 17.2626ZM26.0429 25.9426H23.6709V22.2286C23.6709 21.3426 23.6549 20.2046 22.4369 20.2046C21.2029 20.2046 21.0129 21.1686 21.0129 22.1646V25.9426H18.6429V18.3066H20.9189V19.3506H20.9509C21.2669 18.7506 22.0409 18.1166 23.1969 18.1166C25.6009 18.1166 26.0429 19.6986 26.0429 21.7546V25.9426Z" fill="#522AF9"/>
</svg>
