<svg width="17" height="17" viewBox="0 0 17 17" fill="none" xmlns="http://www.w3.org/2000/svg">
<path d="M9.96383 4.36471C10.6543 4.49942 11.2888 4.8371 11.7863 5.33453C12.2837 5.83196 12.6214 6.46651 12.7561 7.15696M9.96383 1.53711C11.3983 1.69647 12.736 2.33886 13.7572 3.3588C14.7784 4.37873 15.4225 5.7156 15.5837 7.14989M14.8768 12.791V14.9117C14.8776 15.1085 14.8373 15.3034 14.7584 15.4838C14.6795 15.6642 14.5638 15.8261 14.4188 15.9592C14.2737 16.0923 14.1024 16.1936 13.9159 16.2567C13.7294 16.3198 13.5318 16.3432 13.3357 16.3255C11.1605 16.0891 9.07101 15.3458 7.23519 14.1553C5.5272 13.0699 4.07912 11.6219 2.99379 9.91387C1.79912 8.06972 1.05564 5.97007 0.823609 3.78505C0.805944 3.58957 0.829176 3.39255 0.891825 3.20654C0.954474 3.02053 1.05517 2.8496 1.1875 2.70464C1.31983 2.55968 1.48089 2.44386 1.66043 2.36455C1.83997 2.28525 2.03406 2.24419 2.23034 2.24401H4.35104C4.6941 2.24063 5.02669 2.36212 5.28681 2.58582C5.54692 2.80952 5.71682 3.12017 5.76484 3.45988C5.85435 4.13855 6.02035 4.80491 6.25967 5.44627C6.35478 5.69928 6.37536 5.97426 6.31898 6.23862C6.2626 6.50297 6.13162 6.74563 5.94156 6.93782L5.0438 7.83559C6.05011 9.60534 7.51544 11.0707 9.2852 12.077L10.183 11.1792C10.3752 10.9892 10.6178 10.8582 10.8822 10.8018C11.1465 10.7454 11.4215 10.766 11.6745 10.8611C12.3159 11.1004 12.9822 11.2664 13.6609 11.3559C14.0043 11.4044 14.3179 11.5774 14.5421 11.8419C14.7663 12.1065 14.8854 12.4443 14.8768 12.791Z" stroke="#522AF9" stroke-width="1.22024" stroke-linecap="round" stroke-linejoin="round"/>
</svg>
