<svg width="372" height="159" viewBox="0 0 372 159" fill="none" xmlns="http://www.w3.org/2000/svg">
<rect opacity="0.1" x="0.0358276" y="0.679688" width="371" height="158" rx="20" fill="url(#paint0_linear_4022_2458)"/>
<path d="M252.568 80.2651C248.746 76.1491 243.258 70.0731 236.986 63.1151C248.844 49.9831 257.86 39.9871 257.86 39.9871H241.69C241.69 39.9871 236.3 45.8671 228.95 54.1971C227.872 52.9231 226.696 51.7471 225.618 50.4731C223.168 47.7291 220.522 44.9851 217.778 42.9271C214.446 40.3791 212.976 40.0851 208.762 40.0851H193.768C182.694 40.0851 173.678 50.3751 173.678 63.2131C173.678 75.9531 182.694 86.3411 193.768 86.3411H208.664C212.878 86.3411 214.348 85.9491 217.68 83.4991C220.522 81.3431 223.07 78.6971 225.52 75.9531C226.598 74.6791 227.774 73.5031 228.852 72.2291C231.792 75.5611 234.438 78.5011 236.496 80.8531C239.632 84.2831 243.16 86.4391 248.746 86.4391H261.584C260.702 86.4391 257.37 85.8511 252.274 80.5591H252.372L252.568 80.2651ZM202.882 83.1071C202.882 83.1071 202.196 83.8911 201.02 84.6751C199.746 84.1851 198.57 83.5971 197.296 82.8131C191.318 79.0891 187.594 71.4451 187.594 63.0171C187.594 54.6871 191.318 47.0431 197.296 43.2211C198.57 42.4371 199.746 41.8491 201.02 41.3591C202.098 42.1431 202.882 42.9271 202.882 42.9271C208.664 49.3951 215.034 56.4511 220.914 63.0171C215.034 69.5831 208.664 76.6391 202.882 83.1071Z" fill="white"/>
<path d="M225.716 75.6611C223.266 78.4051 220.62 81.1491 217.876 83.2071C214.544 85.7551 213.074 86.0491 208.86 86.0491H196.904C200.236 86.0491 202.98 83.0111 202.98 83.0111C219.836 64.2931 241.788 39.8911 241.788 39.8911H257.958C257.958 39.8911 242.572 56.9431 225.716 75.6611Z" fill="white"/>
<path d="M225.716 50.3751C223.266 47.6311 220.62 44.8871 217.876 42.8291C214.544 40.2811 213.074 39.9871 208.86 39.9871H196.904C200.236 39.9871 202.98 43.0251 202.98 43.0251C214.838 56.2551 229.342 72.2291 236.79 80.5591C239.926 83.9891 243.454 86.1451 249.04 86.1451H262.172C262.172 86.1451 258.546 86.5371 252.666 80.2651C246.59 73.7971 236.594 62.4291 225.716 50.3751Z" fill="white"/>
<path d="M187.692 63.0191C187.692 54.6891 191.416 47.0451 197.394 43.2231C201.51 40.5771 205.724 40.0871 207.978 39.8911H193.866C182.792 39.8911 173.776 50.1811 173.776 63.0191C173.776 75.8571 182.792 86.1471 193.866 86.1471H207.978C205.626 86.0491 201.412 85.4611 197.394 82.8151C191.416 79.0911 187.692 71.4471 187.692 63.0191Z" fill="white"/>
<path d="M115.27 115.94C115.27 117.508 113.212 117.704 109.586 117.704C105.274 117.704 103.902 116.626 103.902 113.588C103.902 110.55 104.784 109.374 108.998 108.884L111.448 108.59C112.428 108.59 112.624 108.198 112.624 106.63C112.624 104.964 112.33 103.886 109.39 103.886C108.312 103.886 107.038 103.984 106.156 104.278C105.666 104.376 105.078 104.278 105.078 103.298C105.078 102.906 105.176 102.612 105.568 102.514C106.352 102.024 108.018 101.73 109.586 101.73C113.996 101.73 115.27 103.004 115.27 106.826V115.94ZM112.624 111.922C112.624 110.942 112.134 110.55 110.762 110.55H109.194C107.332 110.55 106.744 111.138 106.744 113.294C106.744 115.45 107.136 115.842 109.194 115.842C111.84 115.842 112.526 115.744 112.526 113.686V111.922H112.624Z" fill="white"/>
<path d="M120.562 97.2189C120.562 96.3369 121.248 96.1409 121.934 96.1409C122.62 96.1409 123.306 96.2389 123.306 97.2189V113.487C123.306 115.055 123.698 115.643 124.972 115.643H125.56C126.148 115.643 126.246 116.035 126.246 116.427C126.246 116.819 126.148 117.211 125.756 117.309C125.462 117.407 124.58 117.603 123.894 117.603C121.052 117.603 120.562 116.133 120.562 113.585V97.1209V97.2189Z" fill="white"/>
<path d="M129.479 103.396C129.479 101.926 131.439 101.73 135.163 101.73C139.573 101.73 141.729 103.396 141.729 109.374C141.729 114.862 140.553 117.508 133.595 117.508C132.517 117.508 132.223 117.704 132.223 118.586V121.82C132.223 122.8 131.537 122.898 130.851 122.898C130.165 122.898 129.479 122.8 129.479 121.82V103.298V103.396ZM132.223 112.804C132.223 114.764 132.811 115.45 134.575 115.45C138.397 115.45 138.887 114.47 138.887 109.668C138.887 104.866 138.005 103.886 135.359 103.886C132.713 103.886 132.321 104.082 132.321 105.748V112.902L132.223 112.804Z" fill="white"/>
<path d="M158.389 116.623C158.389 117.505 157.703 117.701 157.017 117.701C156.331 117.701 155.645 117.505 155.645 116.623V107.019C155.645 104.471 154.665 103.883 152.215 103.883C151.137 103.883 150.353 103.981 149.863 104.177C149.275 104.373 149.275 104.765 149.275 105.255V116.623C149.275 117.505 148.589 117.701 147.903 117.701C147.217 117.701 146.531 117.505 146.531 116.623V97.2189C146.531 96.3369 147.217 96.1409 147.903 96.1409C148.589 96.1409 149.275 96.2389 149.275 97.2189V100.649C149.275 101.433 149.471 101.825 150.157 101.825C151.333 101.825 152.117 101.727 153.391 101.727C157.017 101.727 158.389 103.099 158.389 106.333V116.525V116.623Z" fill="white"/>
<path d="M174.168 115.94C174.168 117.508 172.11 117.704 168.484 117.704C164.172 117.704 162.8 116.626 162.8 113.588C162.8 110.55 163.682 109.374 167.896 108.884L170.346 108.59C171.326 108.59 171.522 108.198 171.522 106.63C171.522 104.964 171.228 103.886 168.288 103.886C167.21 103.886 165.936 103.984 165.054 104.278C164.564 104.376 163.976 104.278 163.976 103.298C163.976 102.906 164.074 102.612 164.466 102.514C165.25 102.024 166.916 101.73 168.484 101.73C172.894 101.73 174.168 103.004 174.168 106.826V115.94ZM171.522 111.922C171.522 110.942 171.032 110.55 169.66 110.55H168.092C166.23 110.55 165.642 111.138 165.642 113.294C165.642 115.45 166.034 115.842 168.092 115.842C170.738 115.842 171.424 115.744 171.424 113.686V111.922H171.522Z" fill="white"/>
<path d="M183.772 101.73C185.438 101.73 186.516 101.926 187.006 102.122C187.398 102.318 187.594 102.71 187.594 103.004C187.594 103.69 187.202 104.082 186.516 103.984C185.732 103.984 184.948 103.886 184.066 103.886C182.204 103.886 181.616 104.376 181.616 105.552C181.616 106.434 182.596 107.316 184.458 108.688C186.908 110.354 187.79 111.726 187.79 113.588C187.79 116.92 185.34 117.802 182.106 117.802C180.832 117.802 179.852 117.606 179.264 117.41C178.774 117.214 178.578 116.92 178.578 116.43C178.578 115.842 178.97 115.352 179.656 115.45C180.44 115.548 181.224 115.646 182.204 115.646C183.674 115.646 185.046 115.352 185.046 113.686C185.046 112.608 184.458 111.726 182.106 109.962C179.656 108.296 178.774 107.12 178.774 105.454C178.774 102.416 181.028 101.534 183.772 101.534V101.73Z" fill="white"/>
<path d="M198.178 101.73C202.686 101.73 204.646 104.278 204.646 109.374C204.646 116.038 202 117.802 198.178 117.802C194.356 117.802 191.612 116.038 191.612 110.158C191.612 104.278 193.572 101.73 198.178 101.73ZM198.178 103.886C195.14 103.886 194.552 104.866 194.552 109.766C194.552 114.96 195.532 115.744 198.178 115.744C201.02 115.744 201.706 114.96 201.706 109.766C201.706 104.572 200.824 103.886 198.178 103.886Z" fill="white"/>
<path d="M221.306 116.623C221.306 117.505 220.62 117.701 219.934 117.701C219.248 117.701 218.562 117.505 218.562 116.623V107.019C218.562 104.471 217.582 103.883 215.132 103.883C214.054 103.883 213.27 103.981 212.78 104.177C212.192 104.373 212.192 104.765 212.192 105.255V116.623C212.192 117.505 211.506 117.701 210.82 117.701C210.134 117.701 209.448 117.505 209.448 116.623V104.079C209.448 102.903 209.742 102.511 210.722 102.315C212.192 102.021 213.858 101.825 215.23 101.825C220.13 101.825 221.306 103.295 221.306 106.529V116.721V116.623Z" fill="white"/>
<path d="M228.068 96.0449C229.44 96.0449 229.734 96.4369 229.734 97.6129C229.734 99.0829 229.342 99.4749 228.068 99.4749C226.794 99.4749 226.402 99.1809 226.402 97.8089C226.402 96.4369 226.794 96.0449 228.068 96.0449ZM229.44 116.625C229.44 117.507 228.754 117.703 228.068 117.703C227.382 117.703 226.696 117.507 226.696 116.625V102.905C226.696 102.023 227.382 101.827 228.068 101.827C228.754 101.827 229.44 101.925 229.44 102.905V116.625Z" fill="white"/>
<path d="M241.2 115.643C242.082 115.643 242.572 115.643 243.258 115.447C243.846 115.447 244.238 115.741 244.238 116.427C244.238 116.917 244.14 117.113 243.748 117.309C243.062 117.603 241.886 117.799 240.906 117.799C236.986 117.799 234.438 116.231 234.438 109.763C234.438 102.609 237.672 101.629 240.906 101.629C241.984 101.629 243.062 101.629 243.748 102.119C244.14 102.315 244.238 102.609 244.238 103.099C244.238 103.687 243.944 104.079 243.258 103.883C242.572 103.883 241.886 103.687 241.102 103.687C238.26 103.687 237.28 104.765 237.28 109.665C237.28 113.781 238.064 115.545 241.2 115.545V115.643Z" fill="white"/>
<defs>
<linearGradient id="paint0_linear_4022_2458" x1="339.256" y1="-65.0276" x2="-8.02053" y2="41.4887" gradientUnits="userSpaceOnUse">
<stop stop-color="#DCDAE2"/>
<stop offset="1" stop-color="#7A7786" stop-opacity="0"/>
</linearGradient>
</defs>
</svg>
