<svg width="32" height="32" viewBox="0 0 32 32" fill="none" xmlns="http://www.w3.org/2000/svg">
<circle cx="16.2365" cy="15.9785" r="15.3574" fill="#522AF9"/>
<path d="M23.8745 14.8067H17.4069V8.33904C17.4069 7.69212 16.8818 7.16699 16.2348 7.16699C15.5879 7.16699 15.0628 7.69212 15.0628 8.33904V14.8067H8.59673C7.94981 14.8067 7.42468 15.3318 7.42468 15.9787C7.42468 16.6256 7.94981 17.1508 8.59673 17.1508H15.0644V23.6184C15.0644 24.2653 15.5895 24.7905 16.2364 24.7905C16.8833 24.7905 17.4085 24.2653 17.4085 23.6184V17.1508H23.8761C24.523 17.1508 25.0482 16.6256 25.0482 15.9787C25.0482 15.3318 24.523 14.8067 23.8761 14.8067H23.8745Z" fill="white"/>
</svg>
