<svg width="917" height="911" viewBox="0 0 917 911" fill="none" xmlns="http://www.w3.org/2000/svg">
<g clip-path="url(#clip0_6116_1566)">
<path opacity="0.6" d="M618.5 555.062C598.977 533.073 570.895 520.458 541.483 520.458H345.463C306.397 520.458 270.076 543.134 253.021 578.039C247.851 588.487 244.525 599.75 243.152 611.463L224.466 770.111C220.09 807.182 230.817 842.387 254.694 869.225C278.422 895.935 311.867 910.652 348.853 910.652H483.022C517.583 910.652 551.48 897.372 578.447 873.258C605.392 849.188 622.447 816.986 626.481 782.597L643.815 635.534C647.226 606.357 638.001 577.009 618.479 555.041L618.5 555.062ZM330.425 782.618L347.737 635.598C348.295 630.793 352.371 627.167 357.22 627.167H526.637C532.343 627.167 536.784 632.144 536.119 637.829L520.523 770.154C518.42 788.153 500.893 803.964 483.022 803.964H348.853C344.562 803.964 338.577 802.999 334.479 798.386C330.189 793.538 329.91 787.123 330.446 782.597L330.425 782.618ZM915.779 383.328L898.788 527.538C894.883 560.619 878.472 591.554 852.577 614.681C826.64 637.851 794.074 650.616 760.886 650.616H663.81C661.6 650.616 659.905 648.685 660.162 646.497L661.214 637.593C664.861 606.357 656.108 574.971 637.1 550.171C635.126 547.597 636.993 543.907 640.211 543.907H760.886C776.075 543.907 790.985 530.434 792.808 515.052L809.778 370.907C810.207 367.324 810.014 362.304 806.796 358.678C803.75 355.246 799.094 354.517 795.748 354.517H662.63C647.248 354.517 634.29 366.037 632.488 381.312L615.99 521.574C615.647 524.513 612.3 525.993 609.876 524.32C589.924 510.568 566.111 502.974 541.461 502.974H514.88C512.671 502.974 510.976 501.043 511.233 498.855L534.081 304.852C537.9 272.329 565.467 247.808 598.227 247.808H795.769C831.403 247.808 863.647 261.988 886.56 287.775C909.579 313.626 919.962 347.566 915.779 383.328Z" fill="#0068A3"/>
<path opacity="0.3" d="M605.07 93.1075H470.858C449.426 93.1075 429.152 111.343 426.599 132.946L405.79 309.743C401.306 347.866 368.976 376.592 330.596 376.592H148.972C130.243 376.592 112.544 392.532 110.334 411.411L93.3432 555.599C92.7425 560.576 93.0643 567.634 97.9557 573.126C102.697 578.446 109.347 579.562 114.089 579.562H230.387C233.734 579.562 236.051 582.866 234.978 586.041C232.361 593.721 230.559 601.68 229.593 609.854L222.793 667.607C222.449 670.481 220.004 672.648 217.108 672.648H114.089C80.4283 672.648 49.986 659.261 28.3825 634.976C6.65024 610.519 -3.11103 578.468 0.879296 544.7L17.8489 400.534C21.5389 369.126 37.1354 339.692 61.7853 317.681C86.4567 295.627 117.414 283.484 148.972 283.484H290.499C304.551 283.484 316.372 272.972 318.003 259.028L334.136 122.048C337.997 89.2888 354.28 58.6105 379.981 35.6555C405.725 12.6575 437.991 0 470.858 0H605.07C640.017 0 671.64 13.9018 694.101 39.1094C716.67 64.4887 726.818 97.7843 722.72 132.903L712.101 222.772C711.714 225.947 709.033 228.349 705.815 228.349H624.871C621.095 228.349 618.156 225.046 618.585 221.291L630.213 122.07C630.9 116.17 630.471 107.717 624.485 100.959C618.693 94.4591 610.712 93.0861 605.048 93.0861H605.07V93.1075Z" fill="#73CBD9"/>
</g>
<defs>
<clipPath id="clip0_6116_1566">
<rect width="916.68" height="910.652" fill="white"/>
</clipPath>
</defs>
</svg>
