<svg width="112" height="112" viewBox="0 0 112 112" fill="none" xmlns="http://www.w3.org/2000/svg">
<g filter="url(#filter0_b_4004_1472)">
<circle cx="56.2501" cy="56.2501" r="50.0025" fill="#522AF9" fill-opacity="0.6"/>
<circle cx="56.2501" cy="56.2501" r="49.4277" stroke="#B4A2FF" stroke-width="1.14948"/>
</g>
<circle cx="56.2501" cy="56.2501" r="25.2883" fill="#250A94"/>
<path d="M64.3884 52.0012L54.3366 44.6256C53.5515 44.0508 52.6225 43.7045 51.6527 43.6254C50.6829 43.5462 49.71 43.7372 48.8421 44.1772C47.9742 44.6171 47.2451 45.2889 46.7356 46.1179C46.2262 46.9469 45.9563 47.9009 45.9559 48.874V63.625C45.956 64.5985 46.226 65.553 46.7357 66.3824C47.2453 67.2118 47.9749 67.8838 48.8433 68.3237C49.7117 68.7636 50.6851 68.9543 51.6553 68.8747C52.6256 68.795 53.5547 68.448 54.3398 67.8723L64.3916 60.4968C65.0588 60.0074 65.6014 59.3678 65.9754 58.6298C66.3494 57.8917 66.5443 57.0759 66.5443 56.2484C66.5443 55.421 66.3494 54.6052 65.9754 53.8671C65.6014 53.1291 65.0588 52.4895 64.3916 52.0001L64.3884 52.0012ZM63.1409 58.7972L53.0891 66.1728C52.6181 66.5169 52.0611 66.724 51.4797 66.7712C50.8983 66.8184 50.3152 66.7037 49.7949 66.44C49.2746 66.1763 48.8375 65.7737 48.5318 65.2769C48.2262 64.7801 48.064 64.2083 48.0632 63.625V48.874C48.0573 48.2895 48.2165 47.7153 48.5223 47.2173C48.8282 46.7193 49.2683 46.3177 49.7922 46.0586C50.2378 45.832 50.7305 45.7136 51.2304 45.713C51.9004 45.7156 52.5519 45.9331 53.0891 46.3336L63.1409 53.7092C63.5407 54.0028 63.8659 54.3864 64.09 54.829C64.314 55.2716 64.4308 55.7608 64.4308 56.2569C64.4308 56.753 64.314 57.2421 64.09 57.6847C63.8659 58.1273 63.5407 58.5109 63.1409 58.8046V58.7972Z" fill="white"/>
<path d="M44.7979 97.9008L44.9538 91.7601L44.8863 91.7367L41.2075 96.6574L39.5011 96.0665L44.5321 89.6553L46.5158 90.3422L46.5077 98.493L44.7979 97.9008Z" fill="white"/>
<path d="M35.1164 84.3851C35.584 84.7521 35.9121 85.1627 36.1009 85.6169C36.286 86.0715 36.3324 86.5446 36.2398 87.0363C36.1457 87.5299 35.9105 88.0164 35.5342 88.4958C35.1672 88.9634 34.7544 89.3026 34.2957 89.5133C33.837 89.7239 33.3655 89.7986 32.8812 89.7373C32.3949 89.6745 31.9288 89.4681 31.483 89.1181C31.1831 88.8828 30.9419 88.6153 30.7593 88.3158C30.5732 88.0167 30.4586 87.6956 30.4154 87.3525C30.3703 87.0078 30.4073 86.6479 30.5264 86.2727C30.644 85.8995 30.8545 85.5196 31.158 85.1329L31.4297 84.7866L35.268 87.7991L34.6548 88.5804L32.0033 86.4993C31.8608 86.6808 31.7741 86.8726 31.743 87.0746C31.712 87.2766 31.7356 87.472 31.8137 87.6609C31.8883 87.8502 32.0174 88.0168 32.2009 88.1608C32.3922 88.311 32.5967 88.3998 32.8144 88.4271C33.0285 88.4549 33.2351 88.4273 33.4341 88.3444C33.6315 88.2634 33.8017 88.134 33.9446 87.956L34.5276 87.2132C34.7041 86.9883 34.8152 86.7614 34.8608 86.5326C34.9045 86.3023 34.8843 86.0824 34.8 85.8728C34.7158 85.6632 34.5682 85.4756 34.3571 85.3099C34.217 85.2 34.0733 85.1191 33.9259 85.0672C33.7785 85.0153 33.6325 84.9963 33.4877 85.0101C33.3429 85.024 33.2039 85.0712 33.0706 85.1515L31.965 84.1594C32.2441 83.9257 32.5574 83.7763 32.9051 83.7112C33.2492 83.6465 33.6109 83.669 33.9903 83.7787C34.3662 83.8888 34.7416 84.0909 35.1164 84.3851Z" fill="white"/>
<path d="M24.7582 82.4915L23.7772 81.2241L28.5729 77.5123C28.9259 77.239 29.2652 77.0874 29.5909 77.0574C29.9165 77.0273 30.2304 77.1031 30.5327 77.2846C30.8334 77.4641 31.1226 77.7334 31.4005 78.0924C31.4343 78.136 31.4655 78.1784 31.4942 78.2196C31.5265 78.2613 31.5593 78.3057 31.5926 78.3528L30.6019 79.1196C30.5778 79.0844 30.5558 79.0538 30.5358 79.0281C30.5194 79.0027 30.5004 78.9762 30.4789 78.9484C30.3208 78.7441 30.1666 78.6351 30.0164 78.6213C29.8667 78.604 29.7055 78.6622 29.533 78.7957L24.7582 82.4915ZM23.681 82.3167C23.8253 82.5031 23.8871 82.7121 23.8666 82.9437C23.844 83.1768 23.7445 83.3617 23.568 83.4983C23.3934 83.6334 23.1915 83.6819 22.9622 83.6437C22.7309 83.6071 22.5431 83.4956 22.3988 83.3092C22.2514 83.1188 22.1897 82.908 22.2138 82.6769C22.2344 82.4453 22.3319 82.262 22.5065 82.1269C22.683 81.9902 22.8869 81.9402 23.1182 81.9769C23.346 82.013 23.5336 82.1263 23.681 82.3167Z" fill="white"/>
<path d="M24.9619 71.9492C25.1096 72.287 25.1825 72.6137 25.1808 72.9292C25.1768 73.2457 25.0924 73.5316 24.9276 73.787C24.7595 74.0412 24.5008 74.2446 24.1515 74.3972C23.8573 74.5258 23.5866 74.5797 23.3395 74.5591C23.0924 74.5385 22.8672 74.4617 22.6641 74.3288C22.4609 74.1959 22.2766 74.0246 22.1111 73.815C21.9446 73.6032 21.7914 73.3717 21.6517 73.1208C21.4849 72.8269 21.3466 72.5918 21.2366 72.4154C21.1244 72.24 21.021 72.1223 20.9264 72.0624C20.8317 72.0025 20.7281 71.9972 20.6155 72.0464L20.5948 72.0554C20.3765 72.1508 20.2377 72.2936 20.1785 72.4837C20.1183 72.6715 20.1429 72.8907 20.2524 73.1412C20.3679 73.4054 20.5184 73.5901 20.7039 73.6952C20.8871 73.8012 21.077 73.8414 21.2738 73.8156L21.7571 75.222C21.4052 75.2936 21.0679 75.2796 20.7451 75.1798C20.42 75.081 20.1244 74.8995 19.8584 74.6353C19.5891 74.3698 19.3621 74.0257 19.1773 73.6028C19.0487 73.3086 18.9602 73.0121 18.9116 72.7131C18.862 72.4117 18.8639 72.1249 18.9173 71.8525C18.9697 71.5778 19.083 71.3298 19.2573 71.1086C19.4293 70.8884 19.6727 70.7094 19.9875 70.5718L23.5588 69.0111L24.1674 70.4037L23.4332 70.7246L23.4513 70.766C23.6539 70.7787 23.8495 70.8287 24.0382 70.9159C24.2246 71.0042 24.3971 71.1327 24.5557 71.3015C24.712 71.4713 24.8474 71.6872 24.9619 71.9492ZM23.7647 71.9715C23.6702 71.7555 23.5444 71.5834 23.387 71.4551C23.2274 71.3278 23.0534 71.2491 22.8652 71.2192C22.6769 71.1893 22.4897 71.215 22.3036 71.2963L21.7417 71.5419C21.7916 71.5748 21.8468 71.6259 21.9073 71.6953C21.9644 71.7634 22.0249 71.8423 22.0888 71.9321C22.1503 72.0229 22.2108 72.1142 22.27 72.206C22.327 72.2988 22.3788 72.3829 22.4255 72.4583C22.5261 72.6196 22.6321 72.7525 22.7435 72.8571C22.8549 72.9617 22.9733 73.029 23.0986 73.0591C23.2217 73.0902 23.3521 73.0756 23.49 73.0153C23.69 72.9279 23.8112 72.7888 23.8536 72.5978C23.8927 72.4055 23.8631 72.1968 23.7647 71.9715Z" fill="white"/>
<path d="M21.5933 54.3222C21.5404 54.9041 21.3709 55.3962 21.085 55.7983C20.7968 56.1976 20.4199 56.492 19.9544 56.6813C19.4864 56.8703 18.9577 56.9381 18.3682 56.8844C17.7738 56.8303 17.2647 56.6681 16.8411 56.3978C16.4149 56.1273 16.0974 55.7698 15.8886 55.3251C15.6775 54.8778 15.5984 54.3631 15.6514 53.7812C15.7044 53.1992 15.875 52.7086 16.1632 52.3092C16.4491 51.9071 16.8261 51.6115 17.2941 51.4225C17.7596 51.2331 18.2895 51.1656 18.884 51.2197C19.4734 51.2733 19.9812 51.4354 20.4074 51.7059C20.8311 51.9762 21.1484 52.335 21.3596 52.7823C21.5684 53.2269 21.6463 53.7402 21.5933 54.3222ZM20.3577 54.2021C20.3818 53.9374 20.327 53.7095 20.1933 53.5185C20.057 53.3273 19.8619 53.1748 19.6078 53.061C19.354 52.9447 19.0597 52.8714 18.725 52.8409C18.3904 52.8104 18.0877 52.8294 17.817 52.898C17.5466 52.964 17.3271 53.0788 17.1586 53.2422C16.9901 53.4057 16.8938 53.6198 16.8697 53.8846C16.8454 54.1518 16.9011 54.3835 17.0368 54.5797C17.1728 54.7734 17.3677 54.9284 17.6216 55.0447C17.8756 55.1585 18.17 55.2307 18.5047 55.2611C18.8394 55.2916 19.1419 55.2738 19.4124 55.2078C19.6831 55.1392 19.9028 55.022 20.0715 54.856C20.2379 54.6873 20.3333 54.4694 20.3577 54.2021Z" fill="white"/>
<path d="M21.1281 39.75L20.6346 41.1346C20.5094 41.1084 20.3844 41.1136 20.2596 41.1503C20.1326 41.186 20.0147 41.2543 19.9062 41.3551C19.7963 41.4527 19.7049 41.5869 19.6319 41.7575C19.5344 41.9858 19.5005 42.1991 19.5303 42.3973C19.5579 42.5945 19.6512 42.7272 19.8103 42.7952C19.9372 42.8494 20.0661 42.8445 20.1971 42.7805C20.3281 42.7164 20.4728 42.5724 20.6313 42.3483L21.2361 41.4694C21.5629 40.9981 21.8982 40.6859 22.2418 40.5328C22.5855 40.3796 22.9487 40.3848 23.3316 40.5484C23.6798 40.6973 23.9415 40.9305 24.1167 41.2481C24.2929 41.5634 24.3789 41.9302 24.3747 42.3484C24.3692 42.7634 24.2679 43.2015 24.0707 43.6627C23.7701 44.3661 23.3842 44.8639 22.9129 45.1562C22.4403 45.4451 21.935 45.5169 21.3971 45.3716L21.9405 43.8896C22.1737 43.9375 22.3828 43.9014 22.5677 43.7813C22.7504 43.6603 22.8979 43.4683 23.0102 43.2054C23.1206 42.9471 23.1597 42.7183 23.1276 42.5191C23.0941 42.3166 22.9983 42.1802 22.8402 42.1099C22.7054 42.055 22.5717 42.0647 22.4391 42.139C22.3041 42.2122 22.1643 42.3543 22.0196 42.5652L21.443 43.407C21.1175 43.8816 20.7725 44.191 20.4081 44.3353C20.0447 44.4772 19.6647 44.4635 19.268 44.2939C18.9267 44.1481 18.672 43.9302 18.5041 43.6402C18.3372 43.3479 18.2588 43.0049 18.2689 42.611C18.2801 42.2148 18.3827 41.7896 18.5769 41.3353C18.8637 40.6641 19.2312 40.1966 19.6795 39.9327C20.1287 39.6665 20.6116 39.6056 21.1281 39.75Z" fill="white"/>
<path d="M31.3926 27.692L33.4516 30.3227L32.1896 31.3105L28.6281 26.7601L29.8308 25.8187L30.4592 26.6216L30.5125 26.5798C30.4061 26.2363 30.4111 25.8948 30.5275 25.5553C30.6424 25.2138 30.8687 24.9108 31.2064 24.6465C31.5224 24.3992 31.852 24.2527 32.1953 24.207C32.5385 24.1613 32.8758 24.2158 33.2071 24.3705C33.5368 24.5232 33.84 24.7764 34.1167 25.1299L36.3844 28.0272L35.1224 29.0149L33.031 26.3428C32.815 26.0628 32.5738 25.9012 32.3075 25.858C32.0397 25.8129 31.7794 25.8892 31.5266 26.0871C31.3567 26.22 31.2352 26.374 31.1621 26.5491C31.0909 26.7227 31.0737 26.9082 31.1103 27.1056C31.1474 27.2995 31.2415 27.495 31.3926 27.692Z" fill="white"/>
<path d="M44.0045 24.2017C43.4539 24.3974 42.9362 24.4497 42.4513 24.3585C41.9679 24.2642 41.5428 24.0453 41.1758 23.702C40.8081 23.3563 40.525 22.9046 40.3268 22.3469C40.1269 21.7844 40.0609 21.2543 40.1287 20.7563C40.1958 20.2561 40.3874 19.818 40.7036 19.442C41.0214 19.0629 41.4555 18.7755 42.0061 18.5798C42.5567 18.3841 43.0737 18.3334 43.5571 18.4277C44.042 18.5189 44.4683 18.7373 44.8361 19.083C45.203 19.4264 45.4865 19.8793 45.6864 20.4417C45.8846 20.9994 45.9502 21.5284 45.8832 22.0287C45.8153 22.5266 45.6225 22.9651 45.3048 23.3442C44.9886 23.7201 44.5552 24.006 44.0045 24.2017ZM43.5958 23.0294C43.8463 22.9404 44.0303 22.7951 44.1476 22.5937C44.2642 22.3899 44.3209 22.1488 44.3178 21.8705C44.317 21.5912 44.2603 21.2933 44.1478 20.9766C44.0352 20.66 43.8911 20.3931 43.7155 20.1761C43.5422 19.9582 43.346 19.807 43.127 19.7225C42.908 19.638 42.6732 19.6402 42.4227 19.7293C42.1699 19.8192 41.9828 19.9668 41.8615 20.1723C41.7426 20.377 41.6836 20.6189 41.6843 20.8981C41.6875 21.1765 41.7453 21.474 41.8579 21.7906C41.9704 22.1073 42.1134 22.3746 42.2866 22.5924C42.4623 22.8095 42.6608 22.9599 42.8822 23.0435C43.1051 23.124 43.343 23.1193 43.5958 23.0294Z" fill="white"/>
<path d="M57.0409 17.6737L55.5769 17.8057C55.5482 17.6811 55.4911 17.5698 55.4055 17.4719C55.3199 17.3715 55.2085 17.2931 55.0714 17.2368C54.9368 17.1779 54.7767 17.1511 54.5912 17.1564C54.343 17.1634 54.1351 17.222 53.9677 17.3322C53.8001 17.4398 53.7188 17.5801 53.7237 17.7531C53.7277 17.891 53.7861 18.006 53.8992 18.0981C54.0122 18.1902 54.2036 18.2613 54.4735 18.3113L55.5249 18.4922C56.0898 18.5915 56.5137 18.7651 56.7968 19.013C57.0798 19.2608 57.2273 19.5928 57.2391 20.009C57.2499 20.3875 57.1478 20.7229 56.9328 21.015C56.7203 21.3071 56.4233 21.5389 56.0418 21.7103C55.6627 21.8792 55.2225 21.9707 54.7211 21.985C53.9565 22.0068 53.3428 21.8649 52.8799 21.5595C52.4195 21.2514 52.1426 20.8227 52.0492 20.2734L53.6225 20.1458C53.6768 20.3776 53.7972 20.5523 53.9837 20.67C54.1701 20.7851 54.4062 20.8386 54.692 20.8304C54.9728 20.8225 55.1969 20.7621 55.3643 20.6495C55.5341 20.5342 55.6178 20.3901 55.6154 20.217C55.6088 20.0717 55.544 19.9544 55.421 19.865C55.2979 19.7732 55.1104 19.7058 54.8582 19.6628L53.8523 19.492C53.285 19.3952 52.8595 19.2116 52.5758 18.9412C52.2946 18.6707 52.1479 18.3198 52.1356 17.8886C52.1251 17.5176 52.2162 17.1951 52.4092 16.9212C52.6046 16.6471 52.8832 16.4322 53.2451 16.2764C53.6095 16.1205 54.0386 16.0355 54.5325 16.0214C55.2621 16.0007 55.8405 16.1385 56.268 16.435C56.6979 16.7313 56.9556 17.1442 57.0409 17.6737Z" fill="white"/>
<path d="M68.6975 19.6729L67.2609 19.3612C67.2709 19.2337 67.2496 19.1105 67.1972 18.9914C67.1455 18.87 67.0627 18.7619 66.9487 18.6672C66.8378 18.5707 66.693 18.4973 66.5144 18.4469C66.2755 18.3794 66.0596 18.3732 65.8669 18.4282C65.6748 18.4809 65.5553 18.5905 65.5083 18.757C65.4708 18.8898 65.4922 19.017 65.5725 19.1387C65.6528 19.2604 65.8143 19.3854 66.0569 19.5139L67.0061 20.0007C67.5155 20.2644 67.8681 20.5568 68.0641 20.8779C68.2601 21.1991 68.3016 21.56 68.1885 21.9606C68.0856 22.3251 67.8879 22.6146 67.5954 22.8291C67.3054 23.0443 66.9527 23.1767 66.5373 23.2262C66.1251 23.274 65.6777 23.2298 65.1949 23.0935C64.4588 22.8857 63.9155 22.5669 63.5652 22.137C63.2179 21.7054 63.0818 21.2136 63.1569 20.6615L64.6964 21.01C64.6789 21.2475 64.7415 21.4502 64.8843 21.6182C65.0278 21.7838 65.2371 21.9054 65.5123 21.9831C65.7826 22.0594 66.0145 22.0688 66.2079 22.0114C66.4045 21.9522 66.5274 21.8396 66.5769 21.6738C66.614 21.5331 66.5872 21.4018 66.4966 21.2798C66.4066 21.1553 66.2477 21.0349 66.02 20.9185L65.1111 20.4548C64.5987 20.1928 64.2475 19.8905 64.0577 19.5476C63.8702 19.2054 63.8351 18.8267 63.9523 18.4116C64.0531 18.0544 64.2365 17.7739 64.5025 17.5701C64.7709 17.367 65.1011 17.2452 65.493 17.2047C65.8873 17.1649 66.3223 17.2121 66.7977 17.3463C67.5001 17.5446 68.011 17.8491 68.3302 18.2597C68.6519 18.6711 68.7743 19.1421 68.6975 19.6729Z" fill="white"/>
<path d="M75.0663 27.4122C74.5801 27.088 74.2286 26.7043 74.0117 26.2612C73.7982 25.8173 73.7194 25.3457 73.7751 24.8463C73.8322 24.3448 74.025 23.8478 74.3534 23.3554C74.6846 22.8588 75.0701 22.4888 75.5097 22.2455C75.9508 22 76.4165 21.8916 76.9069 21.9202C77.4008 21.9481 77.8908 22.1242 78.3769 22.4485C78.8631 22.7727 79.2129 23.1567 79.4264 23.6006C79.6433 24.0437 79.7232 24.516 79.666 25.0175C79.6103 25.517 79.4168 26.015 79.0856 26.5116C78.7572 27.004 78.3725 27.3729 77.9314 27.6184C77.4917 27.8617 77.025 27.9695 76.5311 27.9415C76.0407 27.9129 75.5525 27.7365 75.0663 27.4122ZM75.7614 26.3836C75.9826 26.5311 76.209 26.5917 76.4406 26.5653C76.6736 26.5368 76.9008 26.4381 77.122 26.2691C77.3453 26.1015 77.5502 25.8779 77.7367 25.5983C77.9232 25.3187 78.0509 25.0436 78.1198 24.7731C78.1908 24.5039 78.1947 24.2563 78.1314 24.0302C78.0682 23.8041 77.926 23.6173 77.7048 23.4698C77.4815 23.3209 77.2513 23.2593 77.0141 23.285C76.779 23.3121 76.5498 23.4094 76.3264 23.577C76.1052 23.746 75.9014 23.9703 75.7149 24.2498C75.5284 24.5294 75.3997 24.8038 75.3287 25.073C75.2597 25.3436 75.258 25.5926 75.3233 25.8201C75.3921 26.0468 75.5382 26.2347 75.7614 26.3836Z" fill="white"/>
<path d="M88.0945 33.9563L87.1132 32.8619C87.1959 32.7644 87.2509 32.6521 87.2782 32.5249C87.3075 32.3962 87.3037 32.2601 87.2669 32.1165C87.2335 31.9734 87.1593 31.8291 87.0441 31.6835C86.89 31.4888 86.7188 31.3573 86.5303 31.289C86.3438 31.219 86.1828 31.2378 86.0471 31.3452C85.9389 31.4308 85.8817 31.5464 85.8755 31.6921C85.8692 31.8378 85.9267 32.0337 86.0481 32.28L86.5319 33.2308C86.7901 33.7429 86.9045 34.1865 86.8751 34.5616C86.8458 34.9366 86.6678 35.2534 86.3414 35.5117C86.0444 35.7468 85.7146 35.8655 85.3519 35.8679C84.9907 35.8723 84.6274 35.7729 84.2618 35.5696C83.8998 35.3668 83.5631 35.0687 83.2518 34.6754C82.7771 34.0756 82.5237 33.4989 82.4918 32.9453C82.4633 32.392 82.6413 31.9137 83.0257 31.5103L84.0688 32.695C83.9155 32.8771 83.8475 33.0781 83.8648 33.2979C83.884 33.5162 83.9823 33.7374 84.1598 33.9616C84.3341 34.1818 84.5164 34.3254 84.7068 34.3922C84.9008 34.4594 85.0664 34.4403 85.2036 34.3348C85.3161 34.2426 85.3714 34.1205 85.3694 33.9685C85.3695 33.815 85.3113 33.6243 85.195 33.3965L84.7303 32.4881C84.4686 31.9756 84.3613 31.5248 84.4084 31.1357C84.457 30.7486 84.6504 30.4211 84.9887 30.1534C85.2797 29.9231 85.5927 29.8033 85.9277 29.7941C86.2642 29.7868 86.6031 29.8816 86.9444 30.0785C87.2873 30.2773 87.612 30.5704 87.9186 30.9578C88.3716 31.5301 88.607 32.0761 88.6251 32.596C88.6447 33.1178 88.4678 33.5713 88.0945 33.9563Z" fill="white"/>
<path d="M96.8368 51.9989L90.7937 51.0228L90.4772 49.245L95.8121 46.2433L96.1088 47.91L92.2488 49.8161L92.2593 49.8754L96.5394 50.3285L96.8368 51.9989Z" fill="white"/>
<path d="M91.2526 58.2265L97.0167 58.6335L96.9038 60.2321L91.1397 59.8252L91.2526 58.2265ZM97.7436 58.9149L99.3948 59.831L99.2905 61.3095L97.6638 60.0444L97.7436 58.9149Z" fill="white"/>
<path d="M89.7139 66.8255C89.8547 66.4098 90.0892 66.0695 90.4172 65.8047C90.7469 65.543 91.1541 65.3844 91.639 65.3288C92.1254 65.2765 92.6738 65.3537 93.2843 65.5605C93.9114 65.773 94.3986 66.0506 94.7459 66.3933C95.0956 66.7368 95.317 67.1111 95.4102 67.516C95.505 67.9241 95.4843 68.3289 95.3483 68.7304C95.2445 69.0368 95.1058 69.2744 94.9321 69.4433C94.7599 69.6154 94.5753 69.7382 94.3782 69.8118C94.1828 69.8885 94.0001 69.9352 93.8303 69.9519L93.8146 69.9982L96.5582 70.9276L96.0452 72.4419L88.748 69.9698L89.255 68.4733L90.1315 68.7703L90.1532 68.7061C90.0253 68.5834 89.9087 68.4313 89.8033 68.25C89.6995 68.0718 89.6339 67.8629 89.6065 67.6233C89.5783 67.386 89.6141 67.1201 89.7139 66.8255ZM90.7588 67.7157C90.676 67.9604 90.6725 68.1896 90.7483 68.4033C90.8258 68.6202 90.9704 68.8148 91.1821 68.9872C91.393 69.1619 91.6612 69.3044 91.9866 69.4146C92.312 69.5249 92.61 69.5755 92.8805 69.5665C93.151 69.5575 93.3805 69.4897 93.5691 69.3629C93.7577 69.2361 93.8934 69.0504 93.9763 68.8057C94.0608 68.5563 94.0643 68.3232 93.9869 68.1063C93.9094 67.8894 93.7656 67.6963 93.5555 67.5272C93.3453 67.358 93.0823 67.2199 92.7664 67.1129C92.4481 67.005 92.1517 66.9536 91.8773 66.9586C91.6044 66.9668 91.3705 67.0319 91.1756 67.1539C90.9823 67.279 90.8433 67.4663 90.7588 67.7157Z" fill="white"/>
<path d="M84.4827 77.275C84.8375 76.7981 85.2395 76.4595 85.6887 76.2592C86.1384 76.0624 86.6102 76.0039 87.104 76.0838C87.5999 76.1652 88.0923 76.3878 88.5813 76.7516C89.0581 77.1064 89.4078 77.5104 89.6302 77.9635C89.8526 78.4166 89.9394 78.886 89.8906 79.3718C89.8403 79.8595 89.6459 80.3308 89.3076 80.7855C89.08 81.0913 88.8188 81.3394 88.5241 81.5296C88.2299 81.7233 87.9119 81.8462 87.57 81.8981C87.2266 81.9521 86.8658 81.9244 86.4877 81.8149C86.1116 81.707 85.7263 81.5063 85.332 81.2129L84.9789 80.9501L87.8916 77.0356L88.6884 77.6285L86.6762 80.3327C86.8613 80.4705 87.0552 80.5523 87.258 80.5781C87.4607 80.6039 87.6555 80.5753 87.8423 80.4923C88.0296 80.4129 88.1928 80.2796 88.3321 80.0925C88.4773 79.8973 88.5608 79.6906 88.5825 79.4723C88.6048 79.2575 88.5719 79.0517 88.4839 78.8549C88.3979 78.6596 88.2641 78.4929 88.0825 78.3546L87.3249 77.7909C87.0956 77.6202 86.8659 77.515 86.636 77.4753C86.4047 77.4375 86.1853 77.4634 85.978 77.553C85.7707 77.6426 85.5869 77.795 85.4267 78.0103C85.3204 78.1531 85.2432 78.2989 85.1951 78.4475C85.147 78.5962 85.1318 78.7427 85.1494 78.8871C85.167 79.0315 85.2176 79.1693 85.3014 79.3004L84.3381 80.4311C84.0973 80.1582 83.9399 79.8488 83.8658 79.5029C83.7923 79.1606 83.8055 78.7984 83.9054 78.4163C84.0058 78.0377 84.1982 77.6573 84.4827 77.275Z" fill="white"/>
<path d="M77.0874 84.7436C77.5637 84.405 78.0475 84.2134 78.5389 84.1687C79.0297 84.1275 79.4984 84.222 79.9451 84.4522C80.3933 84.6844 80.7888 85.0417 81.1318 85.5241C81.4776 86.0106 81.6859 86.5026 81.7565 87.0002C81.8285 87.4998 81.7638 87.9735 81.5622 88.4215C81.36 88.8729 81.0208 89.2679 80.5445 89.6065C80.0682 89.9451 79.5847 90.135 79.0939 90.1762C78.6025 90.2208 78.1328 90.1271 77.6846 89.8949C77.2379 89.6647 76.8416 89.3064 76.4958 88.8199C76.1528 88.3375 75.9453 87.8465 75.8732 87.3469C75.8026 86.8493 75.8684 86.3748 76.0706 85.9234C76.2722 85.4754 76.6111 85.0822 77.0874 84.7436ZM77.8006 85.7598C77.5839 85.9138 77.4466 86.1037 77.3887 86.3296C77.3322 86.5574 77.3434 86.8048 77.4224 87.0718C77.4994 87.3402 77.6352 87.6113 77.8299 87.8852C78.0247 88.1592 78.2361 88.3765 78.4643 88.5374C78.6905 88.6997 78.9205 88.7916 79.1543 88.8132C79.388 88.8347 79.6133 88.7684 79.8299 88.6144C80.0487 88.4589 80.1883 88.2658 80.2489 88.035C80.3074 87.8057 80.2982 87.5568 80.2213 87.2884C80.1423 87.0215 80.0054 86.7511 79.8107 86.4771C79.616 86.2032 79.4055 85.9851 79.1793 85.8228C78.9511 85.6619 78.7191 85.5715 78.4833 85.5514C78.2469 85.5348 78.0193 85.6043 77.8006 85.7598Z" fill="white"/>
<path d="M66.3281 94.5819L67.7005 94.0553C67.7621 94.1674 67.8474 94.2588 67.9565 94.3297C68.0663 94.4029 68.1948 94.4479 68.3421 94.4647C68.4877 94.4846 68.649 94.4667 68.8261 94.4109C69.0629 94.3364 69.2468 94.2233 69.3779 94.0716C69.5097 93.9223 69.5496 93.7652 69.4977 93.6001C69.4563 93.4685 69.3686 93.3738 69.2347 93.3161C69.1009 93.2583 68.8973 93.2422 68.624 93.2677L67.5631 93.3807C66.9926 93.4393 66.5374 93.3881 66.1974 93.2269C65.8575 93.0657 65.625 92.7865 65.5 92.3894C65.3863 92.0282 65.393 91.6777 65.5201 91.3379C65.6448 90.999 65.8672 90.6949 66.1875 90.4259C66.5061 90.16 66.9046 89.9517 67.383 89.8011C68.1127 89.5715 68.7418 89.5404 69.2705 89.7079C69.7975 89.8786 70.1809 90.2155 70.4207 90.7184L68.942 91.2706C68.8265 91.0624 68.663 90.9272 68.4514 90.8649C68.2407 90.8051 67.9989 90.8181 67.7262 90.9039C67.4582 90.9882 67.2591 91.1074 67.1288 91.2615C66.9969 91.4187 66.9557 91.5802 67.0053 91.7461C67.0513 91.8841 67.1457 91.9792 67.2884 92.0316C67.4318 92.0864 67.6307 92.1 67.885 92.0726L68.8994 91.9624C69.4715 91.9006 69.931 91.9611 70.2777 92.1438C70.622 92.3273 70.859 92.6247 70.9885 93.0362C71.0999 93.3903 71.1002 93.7254 70.9894 94.0416C70.8762 94.3586 70.6668 94.6414 70.3612 94.8901C70.0532 95.1395 69.6635 95.3384 69.1923 95.4868C68.4961 95.7059 67.902 95.7312 67.4098 95.5627C66.9153 95.3949 66.5547 95.068 66.3281 94.5819Z" fill="white"/>
<defs>
<filter id="filter0_b_4004_1472" x="-10.685" y="-10.685" width="133.87" height="133.87" filterUnits="userSpaceOnUse" color-interpolation-filters="sRGB">
<feFlood flood-opacity="0" result="BackgroundImageFix"/>
<feGaussianBlur in="BackgroundImageFix" stdDeviation="8.46636"/>
<feComposite in2="SourceAlpha" operator="in" result="effect1_backgroundBlur_4004_1472"/>
<feBlend mode="normal" in="SourceGraphic" in2="effect1_backgroundBlur_4004_1472" result="shape"/>
</filter>
</defs>
</svg>
