<svg width="76" height="75" viewBox="0 0 76 75" fill="none" xmlns="http://www.w3.org/2000/svg">
<circle cx="38.2766" cy="37.5" r="37.5" fill="white"/>
<path d="M38.2766 27.2281C41.4102 27.2281 43.9532 24.6777 43.9532 21.5516C43.9532 18.4255 41.4028 15.875 38.2766 15.875C35.1505 15.875 32.6001 18.4255 32.6001 21.5516C32.6001 24.6777 35.143 27.2281 38.2766 27.2281ZM38.2766 17.7945C40.3466 17.7945 42.031 19.479 42.031 21.5489C42.031 23.6188 40.3466 25.3032 38.2766 25.3032C36.2067 25.3032 34.5223 23.6188 34.5223 21.5489C34.5223 19.4815 36.2067 17.7945 38.2766 17.7945Z" fill="#522AF9"/>
<path d="M53.2791 28.5096H23.2521C21.9781 28.5096 20.8743 29.3757 20.624 30.5721C20.4638 31.3404 20.6565 32.1364 21.1496 32.7446C21.6302 33.3352 22.336 33.6806 23.0843 33.7057C25.6222 34.0961 28.1852 34.3839 30.7232 34.5767V57.7337C30.7232 58.4971 31.344 59.1178 32.1074 59.1178H33.8119H33.8194C33.9095 59.1178 33.9996 59.0978 34.0822 59.0803C34.1022 59.0728 34.1197 59.0677 34.1397 59.0602C34.2223 59.0277 34.2999 58.9902 34.37 58.9451C34.3825 58.9376 34.39 58.9326 34.395 58.9201C34.4601 58.87 34.5177 58.8099 34.5677 58.7474C34.5752 58.7349 34.5878 58.7274 34.5928 58.7148C34.6428 58.6448 34.6829 58.5622 34.7154 58.4721C34.7154 58.4645 34.7229 58.4595 34.7279 58.447L38.272 47.309L41.8211 58.4566C41.8211 58.4566 41.8211 58.4641 41.8286 58.4641C41.8612 58.5593 41.9062 58.6494 41.9638 58.727C41.9713 58.7345 41.9713 58.7345 41.9763 58.7395C42.0339 58.8095 42.0989 58.8746 42.169 58.9322C42.1765 58.9397 42.1815 58.9447 42.189 58.9447C42.2591 58.9948 42.3417 59.0348 42.4268 59.0673C42.4468 59.0749 42.4644 59.0799 42.4769 59.0874C42.5595 59.1124 42.6446 59.1249 42.7397 59.1249H42.7472H44.4441C45.2075 59.1249 45.8282 58.5042 45.8282 57.7408L45.8257 34.5838C48.3512 34.3911 50.9141 34.1032 53.4646 33.7128C54.1705 33.6928 54.8412 33.3799 55.3168 32.8543C55.8098 32.3087 56.0476 31.5728 55.97 30.837C55.8273 29.5355 54.6481 28.5096 53.2791 28.5096ZM53.8798 31.5657C53.7521 31.7133 53.5719 31.7909 53.3742 31.7909L53.2265 31.8034C50.4083 32.2389 47.57 32.5543 44.7944 32.7395C44.7744 32.7395 44.7568 32.747 44.7293 32.752C44.6968 32.7595 44.6642 32.7595 44.6267 32.772C44.5941 32.7795 44.5691 32.792 44.5366 32.797C44.504 32.8096 44.4715 32.8171 44.4465 32.8296C44.4215 32.8421 44.3964 32.8546 44.3639 32.8746C44.3389 32.8872 44.3138 32.9072 44.2863 32.9247C44.2613 32.9447 44.2412 32.9622 44.2162 32.9823C44.1912 33.0023 44.1712 33.0198 44.1461 33.0473C44.1261 33.0674 44.1086 33.0924 44.0886 33.1174C44.0685 33.1425 44.051 33.1675 44.0385 33.195C44.0185 33.22 44.006 33.2451 43.9935 33.2776C43.9809 33.3026 43.9684 33.3352 43.9559 33.3602C43.9434 33.3927 43.9359 33.4178 43.9309 33.4503C43.9234 33.4828 43.9109 33.5079 43.9109 33.5404C43.9033 33.573 43.9033 33.6055 43.8983 33.6355C43.8983 33.6555 43.8908 33.6806 43.8908 33.7006V57.21H43.4353L39.1879 43.8768L39.1804 43.8568C39.1729 43.8368 39.1604 43.8193 39.1554 43.7992C39.1428 43.7617 39.1303 43.7292 39.1103 43.6891C39.0978 43.6641 39.0778 43.6391 39.0653 43.6115C39.0452 43.5865 39.0277 43.554 39.0077 43.5289C38.9877 43.5039 38.9626 43.4839 38.9426 43.4639C38.9226 43.4438 38.8976 43.4188 38.8725 43.3988C38.8475 43.3788 38.8225 43.3612 38.7949 43.3412C38.7699 43.3212 38.7449 43.3087 38.7174 43.2912C38.6848 43.2711 38.6473 43.2586 38.6072 43.2461C38.5872 43.2386 38.5747 43.2261 38.5572 43.2211H38.5497C38.5046 43.2086 38.4546 43.196 38.4095 43.1885C38.397 43.1885 38.3845 43.181 38.3645 43.181C38.3194 43.1735 38.2744 43.181 38.2293 43.181H38.1717C38.1392 43.181 38.1067 43.1935 38.0816 43.2011C38.0491 43.2086 38.0166 43.2136 37.9865 43.2211H37.974C37.949 43.2286 37.929 43.2411 37.9039 43.2536C37.8714 43.2661 37.8388 43.2786 37.8088 43.2912C37.7763 43.3037 37.7512 43.3237 37.7262 43.3412C37.7012 43.3612 37.6762 43.3738 37.6561 43.3913C37.6311 43.4113 37.6111 43.4363 37.5861 43.4563L37.521 43.5214C37.501 43.5465 37.4834 43.5715 37.4709 43.599C37.4509 43.624 37.4334 43.6491 37.4209 43.6766C37.4008 43.7091 37.3883 43.7417 37.3758 43.7717C37.3683 43.7917 37.3558 43.8093 37.3508 43.8368L33.1034 57.1898H32.6428L32.6403 33.6926C32.6403 33.6726 32.6328 33.6475 32.6328 33.6275C32.6328 33.595 32.6253 33.5624 32.6203 33.5324C32.6128 33.4999 32.6078 33.4748 32.6003 33.4423C32.5928 33.4098 32.5803 33.3772 32.5753 33.3522C32.5628 33.3197 32.5502 33.2946 32.5377 33.2696C32.5252 33.2446 32.5127 33.212 32.4927 33.187C32.4726 33.162 32.4551 33.1369 32.4426 33.1094C32.4226 33.0844 32.4051 33.0644 32.385 33.0393C32.365 33.0143 32.34 32.9943 32.315 32.9743C32.2899 32.9542 32.2699 32.9367 32.2449 32.9167C32.2198 32.8967 32.1948 32.8842 32.1673 32.8666C32.1423 32.8541 32.1172 32.8341 32.0847 32.8216C32.0522 32.8091 32.0271 32.7965 31.9946 32.789C31.9696 32.7765 31.937 32.769 31.9045 32.764C31.872 32.7565 31.8394 32.7515 31.8019 32.744C31.7818 32.744 31.7643 32.7365 31.7368 32.7315C28.9486 32.5463 26.1103 32.2309 23.3047 31.7954L23.157 31.7829C22.9517 31.7829 22.759 31.6928 22.6314 31.5276C22.5538 31.4325 22.4387 31.2323 22.4962 30.9569C22.5613 30.6491 22.8817 30.4263 23.2396 30.4263H53.2717C53.6622 30.4263 54.0076 30.6966 54.0401 31.0295C54.0802 31.3023 53.9574 31.4831 53.8798 31.5657Z" fill="#522AF9"/>
</svg>
