<svg width="32" height="32" viewBox="0 0 32 32" fill="none" xmlns="http://www.w3.org/2000/svg">
<circle cx="16.2365" cy="16.3105" r="14.8574" fill="white" stroke="#8F8FCD"/>
<path d="M17.1806 15.1387V15.3649H17.4069H23.8745H23.8761C24.3981 15.3649 24.8219 15.7888 24.8219 16.3108C24.8219 16.8327 24.3981 17.2566 23.8761 17.2566H17.4085H17.1822V17.4828V23.9504C17.1822 24.4724 16.7584 24.8963 16.2364 24.8963C15.7144 24.8963 15.2906 24.4724 15.2906 23.9504V17.4828V17.2566H15.0644H8.59673C8.07476 17.2566 7.65092 16.8327 7.65092 16.3108C7.65092 15.7888 8.07476 15.3649 8.59673 15.3649H15.0628H15.289V15.1387V8.67107C15.289 8.1491 15.7129 7.72526 16.2348 7.72526C16.7568 7.72526 17.1806 8.1491 17.1806 8.67107V15.1387Z" fill="#7F77A0" stroke="#8F8FCD" stroke-width="0.452473"/>
</svg>
