<svg width="41" height="41" viewBox="0 0 41 41" fill="none" xmlns="http://www.w3.org/2000/svg">
<rect opacity="0.7" x="0.817871" y="0.308594" width="40" height="40" rx="12" fill="#EDE8FE"/>
<path fill-rule="evenodd" clip-rule="evenodd" d="M24.0511 12.3086H17.5838C16.3201 12.3101 15.1086 12.8128 14.2151 13.7064C13.3217 14.6001 12.8191 15.8116 12.8179 17.0753V23.5427C12.8194 24.8063 13.3221 26.0178 14.2157 26.9113C15.1093 27.8048 16.3209 28.3073 17.5846 28.3086H24.0519C25.3156 28.3071 26.5271 27.8044 27.4206 26.9108C28.3141 26.0171 28.8166 24.8055 28.8179 23.5419V17.0745C28.8164 15.8108 28.3137 14.5994 27.42 13.7059C26.5264 12.8124 25.3148 12.3099 24.0511 12.3086ZM27.2087 23.5419C27.2087 23.9565 27.127 24.3671 26.9683 24.7502C26.8096 25.1333 26.577 25.4814 26.2838 25.7746C25.9906 26.0678 25.6426 26.3003 25.2595 26.459C24.8764 26.6177 24.4658 26.6994 24.0511 26.6994H17.5838C16.7465 26.6992 15.9436 26.3664 15.3516 25.7743C14.7596 25.1821 14.4271 24.3791 14.4271 23.5419V17.0745C14.4273 16.2372 14.7601 15.4343 15.3522 14.8423C15.9443 14.2504 16.7473 13.9178 17.5846 13.9178H24.0519C24.8892 13.918 25.6921 14.2508 26.2841 14.8429C26.8761 15.435 27.2087 16.238 27.2087 17.0753V23.5419ZM20.8176 16.1699C19.7208 16.1716 18.6694 16.6081 17.894 17.3837C17.1185 18.1593 16.6822 19.2108 16.6807 20.3076C16.682 21.4046 17.1183 22.4564 17.894 23.2322C18.6696 24.008 19.7213 24.4445 20.8184 24.446C21.9156 24.4447 22.9674 24.0083 23.7433 23.2325C24.5191 22.4566 24.9555 21.4048 24.9568 20.3076C24.9551 19.2105 24.5184 18.1589 23.7424 17.3834C22.9665 16.6079 21.9146 16.1718 20.8176 16.1707V16.1699ZM20.8176 22.8368C20.147 22.8368 19.5039 22.5704 19.0297 22.0962C18.5555 21.6221 18.2891 20.9789 18.2891 20.3084C18.2891 19.6378 18.5555 18.9947 19.0297 18.5205C19.5039 18.0463 20.147 17.7799 20.8176 17.7799C21.4881 17.7799 22.1313 18.0463 22.6054 18.5205C23.0796 18.9947 23.346 19.6378 23.346 20.3084C23.346 20.9789 23.0796 21.6221 22.6054 22.0962C22.1313 22.5704 21.4881 22.8368 20.8176 22.8368ZM25.9553 16.2018C25.9553 16.7493 25.5114 17.1931 24.9639 17.1931C24.4164 17.1931 23.9726 16.7493 23.9726 16.2018C23.9726 15.6543 24.4164 15.2104 24.9639 15.2104C25.5114 15.2104 25.9553 15.6543 25.9553 16.2018Z" fill="#522AF9"/>
</svg>
