<svg width="40" height="40" viewBox="0 0 40 40" fill="none" xmlns="http://www.w3.org/2000/svg">
<rect opacity="0.7" width="40" height="40" rx="12" fill="#EDE8FE"/>
<path d="M28.0807 12H12.8315C12.371 12 12 12.371 12 12.8315V28.0807C12 28.5412 12.371 28.9122 12.8315 28.9122H28.0807C28.5412 28.9122 28.9122 28.5412 28.9122 28.0807V12.8315C28.9122 12.371 28.5412 12 28.0807 12ZM27.2492 27.2492H22.2471V22.2471H24.1789L24.601 20.584H22.2471V18.8826C22.2471 17.9999 22.2855 17.7696 22.4134 17.5265C22.4902 17.373 22.6053 17.2451 22.7588 17.1683C23.0019 17.0404 23.3601 17.002 24.2684 17.002H24.6266V15.4157C24.1916 15.3517 23.8207 15.339 23.5392 15.3517C22.81 15.4029 22.3495 15.5053 21.9785 15.6972C21.5307 15.9402 21.1725 16.2856 20.9422 16.7334C20.6992 17.1939 20.5713 17.6545 20.5713 18.8826V20.5713H18.6651V22.2343H20.5713V27.2364H13.6631V13.6631H27.2364V27.2492H27.2492Z" fill="#522AF9"/>
</svg>
