<svg width="372" height="159" viewBox="0 0 372 159" fill="none" xmlns="http://www.w3.org/2000/svg">
<rect opacity="0.1" x="0.517761" y="0.679688" width="371" height="158" rx="20" fill="url(#paint0_linear_4022_2481)"/>
<g clip-path="url(#clip0_4022_2481)">
<path d="M122.97 127.1C122.274 126.653 121.296 126.636 120.882 125.766C120.758 125.509 120.343 125.178 120.766 124.938C121.023 124.797 121.445 124.772 121.752 125.12C122.622 126.123 123.608 126.371 124.71 125.915C125.953 125.402 125.945 124.341 125.903 123.065C124.959 124.001 123.923 124.416 122.705 124.101C121.976 123.91 121.396 123.496 120.965 122.866C119.995 121.416 120.261 119.212 121.553 118.06C122.738 117.008 124.379 117.074 125.862 118.292C125.887 117.803 125.928 117.348 126.583 117.48C127.188 117.596 126.947 118.035 126.947 118.334C126.972 120.115 126.964 121.905 126.956 123.686C126.956 125.708 126.351 126.446 124.362 126.918C124.279 126.935 124.221 127.034 124.155 127.092H122.962L122.97 127.1ZM121.537 120.646C121.487 122.245 122.324 123.314 123.641 123.33C124.975 123.355 125.895 122.386 125.945 120.911C126.003 119.245 125.174 118.201 123.782 118.176C122.456 118.16 121.586 119.121 121.537 120.646Z" fill="white"/>
<path d="M270.518 89.4074C268.587 88.8357 267.402 89.8549 266.391 91.3049C265.844 92.0921 265.206 92.8047 264.386 93.335C263.955 93.6167 263.69 93.683 263.698 93.0035C263.723 91.3878 263.723 89.772 263.698 88.1563C263.698 87.6757 263.947 87.4437 264.287 87.2199C266.317 85.8279 268.687 86.1345 270.509 88.0237V89.4157L270.518 89.4074Z" fill="white"/>
<path d="M270.311 95.5967C270.112 95.489 269.905 95.3895 269.714 95.2652C268.629 94.5195 267.568 94.3952 266.424 95.2155C265.629 95.7873 264.742 96.2347 263.715 96.8396C263.715 95.9944 263.715 95.3233 263.715 94.6521C263.715 94.3952 263.814 94.2295 264.055 94.1135C265.223 93.5418 266.052 92.5889 266.764 91.5614C267.692 90.2191 268.819 89.4651 270.509 90.012V90.4097C270.195 90.6583 270.319 91.0063 270.311 91.3211C270.294 92.7546 270.311 94.1798 270.302 95.6133L270.311 95.5967Z" fill="white"/>
<path d="M270.518 86.0353C270.311 86.2093 270.153 86.1513 269.93 85.9938C267.957 84.6018 265.944 84.0549 263.889 85.8861C263.533 84.4444 263.616 84.2207 264.693 83.5412C266.723 82.2569 268.819 82.58 270.518 84.4444V86.0353Z" fill="white"/>
<path d="M270.518 97.3454C268.438 97.3454 266.358 97.3288 264.279 97.3288C264.254 97.3288 264.229 97.304 264.063 97.2377C265.223 96.5582 266.292 95.8871 267.402 95.2905C268.057 94.9342 268.687 95.2573 269.267 95.5888C269.689 95.8291 270.095 96.1025 270.51 96.3594V97.3537L270.518 97.3454Z" fill="white"/>
<path d="M270.518 80.2843C269.349 80.0357 268.165 79.9114 266.98 80.1269C265.82 80.334 264.784 80.9058 263.533 81.3863C265.032 79.4557 267.899 78.7348 270.526 79.4971V80.2926L270.518 80.2843Z" fill="white"/>
<path d="M270.518 83.6572C269.333 82.8535 268.156 82.0249 266.607 82.2735C266.027 82.3646 265.472 82.5552 264.875 82.638C265.546 82.0829 266.3 81.6934 267.112 81.4034C268.065 81.072 268.852 81.304 269.581 81.9503C269.871 82.2072 270.195 82.4309 270.509 82.6629V83.6572H270.518Z" fill="white"/>
<path d="M270.518 82.0745C269.871 81.6767 269.383 81.0636 268.562 80.7819C269.3 80.5084 269.905 80.7404 270.518 80.8813V82.0745Z" fill="white"/>
<path d="M270.311 95.5971C270.311 94.1637 270.311 92.7385 270.319 91.305C270.319 90.9984 270.203 90.6421 270.518 90.3936V95.7463C270.452 95.6966 270.377 95.6386 270.311 95.5888V95.5971Z" fill="white"/>
<path d="M144.19 44.5389C146.867 41.2991 150.206 40.4374 153.943 41.1914C158.086 42.0283 160.273 44.9946 161.466 48.8227C162.005 50.5462 161.972 50.5462 160.224 50.1651C158.666 49.8253 157.083 49.6928 155.492 49.8005C155.012 49.8336 154.738 49.7591 154.49 49.2702C153.255 46.8175 151.523 45.7818 149.137 45.9972C146.925 46.1961 145.193 47.7621 144.431 50.2314C143.859 52.0874 143.859 52.1288 141.928 51.8803C140.669 51.7145 139.575 52.0045 138.581 52.7668C138.299 52.9823 137.951 53.2889 137.603 53.1149C137.28 52.9491 137.462 52.5183 137.462 52.2117C137.454 45.8978 137.47 39.5922 137.429 33.2783C137.429 32.4249 137.669 32.2343 138.473 32.2674C140.056 32.3337 141.647 32.342 143.237 32.2674C144.066 32.226 144.207 32.5243 144.199 33.27C144.165 36.9656 144.182 40.6611 144.182 44.5472L144.19 44.5389Z" fill="white"/>
<path d="M127.403 54.8882C127.345 54.5982 127.312 54.4077 127.287 54.2834C122.506 56.0234 117.675 55.3523 112.621 54.7557C113.64 53.6205 114.734 53.0653 115.944 52.6925C118.073 52.0379 120.269 51.7644 122.465 51.5324C123.484 51.4247 124.495 51.2756 125.472 50.9441C126.458 50.6044 127.27 50.1073 127.328 48.8975C127.395 47.4558 126.873 46.2957 125.721 45.8731C123.931 45.202 122.1 45.1523 120.327 45.9809C119.308 46.4532 118.802 47.3563 118.653 48.4086C118.562 49.0384 118.288 49.1295 117.75 49.1212C116.06 49.0964 114.377 49.0632 112.687 49.1295C111.825 49.1627 111.792 48.7898 111.9 48.1352C112.298 45.6909 113.599 43.8762 115.72 42.6333C117.228 41.7467 118.877 41.291 120.6 41.1087C123.575 40.8021 126.55 40.7856 129.425 41.7716C132.656 42.8736 134.04 44.854 134.057 48.2263C134.057 49.8753 134.032 51.5324 134.073 53.1813C134.081 53.7365 133.907 53.9685 133.361 53.9519C132.665 53.9354 131.977 53.9519 131.281 53.9271C129.93 53.8774 128.646 54.0679 127.42 54.8717L127.403 54.8882Z" fill="white"/>
<path d="M108.71 43.0975C108.71 46.3704 108.693 49.6434 108.727 52.9163C108.735 53.7118 108.669 54.0349 107.716 53.7781C106.092 53.3306 104.434 53.0406 102.777 52.7175C102.255 52.618 101.99 52.4606 101.99 51.8392C102.015 45.5584 102.015 39.2777 101.99 33.0052C101.99 32.4335 102.164 32.2595 102.728 32.2678C104.484 32.3009 106.233 32.3092 107.989 32.2678C108.66 32.2512 108.727 32.5329 108.727 33.0881C108.71 36.4273 108.718 39.7666 108.718 43.0975H108.71Z" fill="white"/>
<path d="M249.654 81.503C248.792 80.7158 247.947 79.9866 247.441 78.8266C246.87 77.534 245.494 77.36 244.202 77.36C243.688 77.36 243.232 77.2854 242.768 77.07C240.117 75.8602 237.631 76.1337 235.336 77.9566C234.54 78.5863 233.736 79.1995 232.784 79.9286C232.784 77.7991 232.784 75.8354 232.784 73.8716C232.784 73.449 233.065 73.3993 233.372 73.3744C235.211 73.2087 236.993 73.4159 238.733 74.0539C239.081 74.1782 239.18 74.377 239.164 74.7085C239.147 75.0648 239.164 75.4294 239.164 75.7857C239.263 75.7857 239.363 75.8188 239.379 75.7857C239.992 74.7748 240.771 74.7002 241.848 75.1228C244.434 76.1254 247.06 75.5785 249.662 75.0648C250.375 74.9239 251.095 74.7996 251.792 74.6008C252.678 74.3439 253.333 74.5262 253.681 75.4376C253.863 75.9182 254.103 76.1171 254.443 75.5454C255.18 74.3108 256.274 73.9876 257.65 74.1948C260.45 74.6008 263.176 74.029 265.894 73.4324C266.532 73.2916 267.195 73.1922 267.717 73.9462C265.405 74.261 263.848 75.7691 262.24 77.1943C261.842 77.5506 261.503 77.6666 260.931 77.534C257.857 76.8131 255.852 78.1223 255.23 81.2295C255.139 81.7101 254.907 81.909 254.493 82.025C253.374 82.3398 252.247 82.605 251.079 82.373C250.872 82.3067 250.698 82.0664 250.449 82.2653L250.466 82.2818C250.399 81.8095 249.935 81.7515 249.654 81.503Z" fill="white"/>
<path d="M133.352 76.3737C133.767 76.1003 134.181 75.8351 134.587 75.5534C137.769 73.3162 141.207 72.703 144.928 73.9045C146.022 74.2608 147.107 74.6751 148.192 75.0562C149.046 75.3545 149.129 76.15 149.468 76.904C148.806 76.9454 148.317 76.6389 147.795 76.5146C145.906 76.0588 144.182 76.44 142.624 77.5586C142.127 77.9149 141.754 77.9978 141.141 77.7243C138.407 76.5146 135.565 77.8735 134.985 80.7404C134.753 81.8921 134.496 82.8202 133.319 83.251L133.336 83.2345C132.714 83.2759 132.143 83.2676 131.529 82.9693C130.775 82.6047 129.905 82.8865 129.085 82.9693C128.687 83.0107 127.975 83.3339 127.95 82.7207C127.925 82.0579 127.27 81.1464 128.397 80.6575C129.151 80.3261 129.864 79.9035 130.568 79.4726C131.347 79.0004 131.902 78.3292 132.134 77.3266C131.645 77.3432 131.463 77.6912 131.223 77.9149C130.345 78.7186 129.475 79.5307 128.406 80.0941C127.983 80.3178 127.676 80.3924 127.56 79.7958C127.453 79.1909 127.063 78.7269 126.666 78.1635C128.779 77.4343 130.552 76.1831 132.333 74.9568C132.54 74.816 132.772 74.5591 132.988 74.932C133.211 75.3214 133.725 75.7025 133.12 76.1914C133.029 76.2826 132.93 76.3737 132.83 76.4649C132.714 76.498 132.515 76.5394 132.573 76.6471C132.656 76.788 132.855 76.7217 133.004 76.6471C133.12 76.556 133.228 76.4731 133.344 76.382L133.352 76.3737Z" fill="white"/>
<path d="M178.386 84.7093C178.701 84.6513 178.817 84.8502 178.95 84.9745C180.615 86.4577 182.571 87.2448 184.791 87.3608C185.264 87.3857 185.537 87.4934 185.736 87.9906C186.747 90.4681 188.421 91.5949 190.799 91.4955C193.268 91.3878 195.041 90.0041 195.903 87.51C196.276 86.4245 196.35 86.3417 197.22 87.1123C198.488 88.2391 199.938 88.2971 201.488 88.2391C202.797 88.1894 202.797 88.2391 202.797 89.54C202.797 89.8383 202.797 90.1366 202.797 90.4349C202.797 92.6804 202.797 92.7301 200.526 92.9538C199.085 93.0947 197.577 93.0118 196.185 93.1527C189.332 93.8239 183.963 90.7912 178.859 86.872C178.071 86.2671 178.461 85.4634 178.378 84.7259L178.386 84.7093Z" fill="white"/>
<path d="M118.811 76.0423C119.159 75.6529 119.349 75.4458 119.531 75.2303C122.307 71.9822 127.08 71.0459 130.883 73.0097C132.64 73.9129 132.656 74.1366 131.09 75.1972C129.723 76.1252 128.348 77.0201 126.748 77.5421C126.293 77.6912 125.887 77.7327 125.406 77.5835C124.379 77.2604 123.31 77.2355 122.299 77.6747C121.76 77.9067 121.288 77.8487 120.774 77.6747C119.167 77.1278 117.717 76.2826 116.275 75.4126C115.148 74.7332 113.996 74.0786 112.861 73.4074C112.662 73.2914 112.397 73.2168 112.447 72.9268C112.513 72.6037 112.812 72.7114 113.019 72.7114C114.734 72.7031 116.457 72.7114 118.173 72.6948C118.637 72.6948 118.819 72.8274 118.794 73.308C118.761 74.1283 118.786 74.9569 118.786 76.0341L118.811 76.0423Z" fill="white"/>
<path d="M173.415 74.2523C171.65 74.94 170.374 76.2078 169.04 77.3844C168.617 77.749 168.369 77.8401 167.847 77.4093C165.609 75.5284 160.936 76.5558 160.265 79.0996C159.992 80.1436 159.569 80.3839 158.608 80.2928C157.754 80.2099 156.884 80.243 156.031 80.2928C155.434 80.3259 154.954 80.1436 154.473 79.8039C153.239 78.9173 153.214 78.9256 153.777 77.5253C154.299 76.2244 155.02 75.3295 156.619 75.0312C159.693 74.4595 162.734 73.9789 165.875 74.2855C167.805 74.476 169.711 74.2026 171.567 73.6889C172.305 73.4817 172.851 73.6309 173.415 74.2689V74.2523Z" fill="white"/>
<path d="M174.401 90.4102C174.906 90.7333 175.031 89.9296 175.594 90.0953C175.66 91.5702 175.528 93.1031 175.859 94.7768C174.824 94.3625 174.111 94.8348 173.382 95.2657C172.445 95.8209 171.493 96.3429 170.54 96.8815C169.794 97.3041 169.396 97.0886 169.313 96.2352C169.28 95.8872 169.197 95.5391 169.139 95.2077C169.015 95.2077 168.924 95.1829 168.899 95.2077C167.598 96.6246 166.173 96.9312 164.441 95.9203C163.712 95.4977 162.842 95.2989 162.03 95.042C159.702 94.3128 157.406 94.3045 155.219 95.5309C154.68 95.8292 154.349 95.738 153.96 95.2823C152.261 93.2771 152.418 92.4568 154.788 91.3962C156.006 90.8493 157.29 90.5593 158.633 90.5842C158.997 90.5842 159.229 90.6256 159.312 91.0813C159.569 92.4899 160.605 93.2522 161.889 93.2854C164.093 93.3434 166.165 93.592 168.228 94.52C169.67 95.1663 171.053 94.2714 172.205 93.3185C173.108 92.5811 173.73 91.5868 174.467 90.6919C174.567 90.5759 174.558 90.4599 174.401 90.3853L174.384 90.4019L174.401 90.4102Z" fill="white"/>
<path d="M143.826 62.9175V64.3509C142.384 63.8538 141.017 63.3235 139.55 63.1578C139.128 63.1081 138.697 63.0252 138.274 63.0086C137.752 62.992 137.437 62.9092 137.437 62.238C137.437 61.542 137.827 61.6166 138.258 61.6332C140.884 61.716 143.453 61.1691 146.03 60.7963C146.444 60.7383 146.767 60.7963 147.148 60.9868C148.996 61.9066 150.836 61.9066 152.592 60.7217C152.907 60.5063 153.214 60.3903 153.595 60.4068C155.675 60.5146 157.754 60.5974 159.834 60.7134C160.074 60.73 160.522 60.5643 160.497 61.0449C160.481 61.426 160.133 61.4177 159.826 61.4591C157.962 61.6829 156.089 61.8237 154.341 62.6275C153.843 62.8595 153.371 63.0998 153.189 63.6383C152.766 64.8564 151.747 65.4861 150.778 66.1738C150.413 66.4307 149.999 66.4887 149.551 66.4141C147.397 66.0578 145.475 65.3038 144.224 63.3649C144.157 63.2655 144.066 63.1826 143.826 62.9258V62.9175Z" fill="white"/>
<path d="M209.243 75.6363C212.301 71.5265 221.067 70.7476 224.987 74.236C223.553 75.2469 222.144 76.2495 220.57 77.0283C220.073 77.2686 219.601 77.3432 219.046 77.2272C217.687 76.9621 216.344 77.0698 215.093 77.7161C214.671 77.9315 214.289 77.9315 213.859 77.8072C212.193 77.3515 210.685 76.556 209.235 75.628L209.243 75.6363Z" fill="white"/>
<path d="M181.345 75.4292C182.123 74.4846 182.886 73.7306 184.162 73.5566C185.993 73.2997 187.808 72.9352 189.606 72.5209C192.1 71.9408 193.898 73.0014 195.439 74.7829C195.688 75.0729 195.911 75.3878 196.35 75.6695C196.35 74.9072 196.375 74.1366 196.35 73.3743C196.334 72.8606 196.466 72.6369 197.03 72.7777C198.886 73.2666 200.676 73.9295 202.416 74.7498C202.739 74.8989 202.822 75.1144 202.822 75.4458C202.805 77.2273 202.822 79.0088 202.822 80.7985C202.374 80.8648 202.117 80.5499 201.844 80.3594C200.137 79.1745 198.447 77.9564 196.74 76.7716C195.762 76.0921 194.735 75.4955 193.649 75.0066C191.677 74.1118 189.672 73.9212 187.584 74.6255C186.432 75.0149 185.272 75.4292 184.062 75.6281C183.176 75.7772 182.306 75.7441 181.369 75.4292H181.345Z" fill="white"/>
<path d="M202.88 83.3417C200.833 82.2397 199.035 81.262 197.229 80.3174C196.102 79.7208 194.983 79.1656 194.022 78.2542C192.423 76.7378 189.407 76.6881 187.658 78.0139C186.01 79.2733 184.228 79.4142 182.322 78.859C181.784 78.7016 181.237 78.5193 180.773 78.221C180.466 78.0222 179.588 78.1299 179.977 77.4339C180.301 76.8538 180.317 75.7601 181.527 76.075C183.126 76.4893 184.717 76.2324 186.184 75.5944C189.746 74.0366 192.953 74.7824 196.002 76.9036C198.148 78.395 200.286 79.8865 202.441 81.3697C203.137 81.8503 202.648 82.5131 202.88 83.35V83.3417Z" fill="white"/>
<path d="M111.593 62.0804C112.165 61.9064 112.695 62.1882 113.242 62.2379C115.297 62.4202 117.336 62.329 119.382 62.097C120.948 61.9147 122.589 62.5527 124.089 61.8484C125.34 61.2601 126.632 61.2021 127.942 61.1441C129.765 61.0613 131.571 61.2518 133.385 61.3513C134.173 61.3927 134.048 61.8484 134.106 62.3373C134.173 62.9753 133.75 62.9422 133.352 62.9422C127.743 62.9753 122.241 64.0028 116.731 64.8894C116.242 64.9639 115.745 64.9971 115.248 65.0054C113.267 65.0717 112.057 64.1022 111.593 62.0721V62.0804Z" fill="white"/>
<path d="M205.713 82.7205C208.058 83.6982 210.486 83.3585 212.922 83.1099C214.646 82.9359 216.361 83.0851 218.068 83.3088C222.045 83.8391 225.981 84.1042 229.676 82.0493C230.002 83.3474 229.549 84.1429 228.317 84.4357C227.572 84.6097 226.818 84.734 226.055 84.6842C223.777 84.5351 221.506 84.966 219.22 84.6842C218.217 84.56 217.223 84.8085 216.336 85.2725C214.198 86.3994 212.011 86.3166 209.79 85.662C208.746 85.3554 207.735 84.9411 206.683 84.6594C205.631 84.386 205.274 83.8225 205.705 82.7288L205.713 82.7205Z" fill="white"/>
<path d="M106.895 87.0208C107.136 87.5511 107.699 87.4434 108.122 87.6008C108.619 87.7914 108.859 87.9985 108.834 88.5785C108.785 89.7634 108.801 90.9483 108.834 92.1415C108.851 92.6635 108.693 92.9204 108.138 92.9784C106.365 93.1606 104.6 93.3512 102.81 93.3512C102.23 93.3512 101.99 93.1938 101.998 92.5723C102.032 90.7909 102.032 89.0094 101.998 87.2279C101.99 86.6148 102.181 86.3993 102.786 86.4573C103.838 86.5568 104.882 86.6976 105.909 86.9462C106.224 87.0208 106.556 87.3191 106.92 87.0373L106.904 87.0208H106.895Z" fill="white"/>
<path d="M212.268 82.2977C215.706 82.3143 219.145 82.3226 222.584 82.3474C223.072 82.3474 223.255 82.19 223.089 81.7011C223.048 81.5768 223.064 81.4194 223.006 81.32C222.269 80.1019 222.683 79.2733 223.777 78.4945C224.655 77.8647 225.417 77.0527 226.188 76.2821C226.677 75.7932 226.967 75.901 227.34 76.423C228.309 77.7819 229.005 79.2568 229.486 80.856C229.643 81.3945 229.511 81.6265 229.038 81.842C226.834 82.8694 224.523 83.3417 222.103 83.1594C219.766 82.9854 217.43 82.7451 215.101 82.4717C214.091 82.3557 213.138 82.7203 212.143 82.6374C212.193 82.5297 212.234 82.422 212.284 82.3143L212.268 82.2977Z" fill="white"/>
<path d="M174.409 90.4019C173.241 91.2885 172.048 92.1503 170.921 93.0783C169.338 94.3792 168.634 94.4786 166.828 93.5092C166.596 93.3849 166.38 93.244 166.032 93.0369C168.087 92.1917 168.468 90.0373 169.777 88.6204C171.136 87.1538 172.619 86.201 174.699 86.4081C175.387 86.4744 175.735 86.723 175.627 87.4521C175.594 87.6759 175.594 87.9161 175.627 88.1399C175.735 88.9187 175.569 89.5485 174.774 89.9048C174.6 89.9876 174.343 90.1202 174.401 90.4185L174.417 90.4019H174.409Z" fill="white"/>
<path d="M210.884 95.9616C216.005 94.4784 221.042 94.1221 226.188 95.0502C223.843 98.1822 215.441 99.1517 210.884 95.9616Z" fill="white"/>
<path d="M154.805 57.7218C155.293 55.9735 155.443 54.3495 155.335 52.7005C155.31 52.3194 155.55 52.2863 155.832 52.2697C157.829 52.162 159.776 52.4023 161.657 53.1148C161.997 53.2391 162.088 53.4463 162.088 53.786C162.113 54.946 161.947 56.0812 161.806 57.2247C161.723 57.8627 161.384 57.9455 160.862 57.8378C160.282 57.7135 159.693 57.6141 159.113 57.4981C157.713 57.2164 156.321 57.2081 154.796 57.7135L154.805 57.7218Z" fill="white"/>
<path d="M112.43 75.6943C113.88 76.6555 115.496 77.0449 116.383 78.495C116.548 78.7684 116.814 78.8761 117.128 78.901C117.452 78.9341 117.791 78.9756 118.098 79.0833C118.595 79.249 119.159 79.3733 119.548 79.6964C120.103 80.1522 119.449 80.6327 119.366 81.0968C119.067 82.8119 119.034 82.7954 117.228 82.8534C115.786 82.9031 114.402 82.6545 113.068 82.0994C112.604 81.9088 112.405 81.6851 112.414 81.163C112.447 79.4147 112.43 77.6581 112.43 75.686V75.6943Z" fill="white"/>
<path d="M108.809 76.9866C108.809 77.7406 108.809 78.5029 108.809 79.2569C108.809 79.6961 108.66 79.7872 108.287 79.5386C107.376 78.9338 106.498 78.304 105.843 77.4091C105.197 76.5226 104.368 75.8762 103.249 75.7685C102.197 75.6608 101.915 75.1305 101.982 74.1279C102.065 72.7027 102.007 72.711 103.399 72.6944C105.205 72.6696 106.788 73.4236 108.428 74.0119C108.776 74.1362 108.826 74.3931 108.818 74.7162C108.801 75.4702 108.818 76.2325 108.818 76.9866H108.809Z" fill="white"/>
<path d="M239.553 89.8135C240.075 91.2469 238.981 91.9927 237.755 92.639C236.396 93.3516 234.988 93.8736 233.388 93.6167C232.941 93.5421 232.8 93.393 232.775 92.9373C232.634 90.3852 232.626 90.3935 234.963 89.424C236.239 88.8937 237.523 88.3551 238.783 87.7834C239.379 87.51 239.628 87.5845 239.561 88.2888C239.52 88.7114 239.561 89.1506 239.561 89.8135H239.553Z" fill="white"/>
<path d="M248.253 93.2191C248.253 93.2191 248.253 93.1528 248.253 93.1197C248.253 90.9571 248.253 90.9405 250.399 90.6588C251.758 90.4765 253.092 90.6588 254.41 91.0565C254.832 91.1891 255.064 91.3797 255.04 91.8851C254.998 92.7385 255.006 93.6003 255.04 94.4537C255.056 94.9095 254.907 95.042 254.46 94.9178C252.521 94.3709 250.615 94.3957 248.767 95.274C248.336 95.4812 248.253 95.274 248.262 94.9012C248.27 94.3377 248.262 93.7826 248.262 93.2191H248.253Z" fill="white"/>
<path d="M212.268 82.2977C212.218 82.4054 212.177 82.5131 212.127 82.6208C210.254 82.8777 208.382 83.0351 206.525 82.4551C205.912 82.2645 205.68 82.0491 205.896 81.3448C206.26 80.135 206.708 78.9833 207.329 77.8813C207.594 77.4173 207.802 77.3095 208.307 77.6078C209.583 78.3619 210.9 79.0662 212.218 79.7456C212.657 79.9693 212.773 80.1599 212.591 80.6488C212.4 81.1625 212.367 81.7425 212.268 82.2894V82.2977Z" fill="white"/>
<path d="M101.998 55.9657C101.998 53.7948 101.998 53.8114 104.202 54.2008C105.503 54.4328 106.771 54.7726 108.047 55.1123C108.528 55.2449 108.751 55.4603 108.726 55.9989C108.677 56.8192 108.693 57.6478 108.726 58.4681C108.743 58.9818 108.552 59.073 108.08 58.9735C107.301 58.8078 106.547 58.5841 105.81 58.3024C104.89 57.9544 103.921 57.9709 102.976 58.0538C102.164 58.1284 101.907 57.8135 101.998 57.0512C102.04 56.6949 101.998 56.3303 101.998 55.9657Z" fill="white"/>
<path d="M103.167 105.358C104.708 104.107 105.71 104.082 106.995 105.292C107.335 105.607 107.401 105.391 107.583 105.226C108.47 104.405 109.505 104.19 110.607 104.621C111.743 105.068 111.9 106.104 111.908 107.173C111.917 108.391 111.908 109.617 111.908 110.835C111.908 111.258 111.842 111.515 111.32 111.506C110.806 111.498 110.839 111.191 110.839 110.852C110.839 109.634 110.839 108.407 110.839 107.189C110.839 105.963 110.367 105.35 109.423 105.308C108.387 105.267 107.542 106.038 107.5 107.156C107.459 108.341 107.492 109.534 107.492 110.719C107.492 111.109 107.591 111.523 106.937 111.506C106.34 111.49 106.456 111.092 106.448 110.752C106.448 109.567 106.448 108.374 106.448 107.189C106.44 105.963 105.951 105.342 105.014 105.308C103.979 105.267 103.167 106.054 103.134 107.189C103.1 108.341 103.134 109.501 103.117 110.653C103.117 110.993 103.316 111.473 102.636 111.498C101.982 111.523 102.09 111.092 102.09 110.711C102.09 108.929 102.09 107.148 102.09 105.358C102.09 105.027 101.949 104.621 102.562 104.596C103.092 104.571 103.15 104.861 103.158 105.35L103.167 105.358Z" fill="white"/>
<path d="M126.657 105.283C126.657 104.106 126.666 103.004 126.657 101.894C126.657 101.48 126.699 101.215 127.229 101.206C127.817 101.206 127.743 101.554 127.743 101.927C127.743 104.794 127.751 107.669 127.726 110.536C127.726 110.851 128.041 111.357 127.403 111.514C126.765 111.671 126.632 111.232 126.55 110.743C124.669 111.953 123.086 111.953 122.025 110.785C120.882 109.525 120.849 106.89 121.959 105.532C123.045 104.198 124.602 104.082 126.666 105.275L126.657 105.283ZM122.224 108.158C122.257 108.374 122.299 108.672 122.357 108.962C122.597 110.163 123.26 110.793 124.312 110.835C125.448 110.884 126.235 110.23 126.574 109.037C126.806 108.241 126.74 107.462 126.5 106.7C126.069 105.333 124.321 104.802 123.185 105.689C122.398 106.294 122.299 107.18 122.216 108.158H122.224Z" fill="white"/>
<path d="M107.003 123.529C105.246 124.855 103.515 124.888 102.421 123.703C101.253 122.435 101.203 119.833 102.313 118.441C103.415 117.074 105.106 116.983 107.044 118.234C107.044 117.14 107.02 116.096 107.053 115.052C107.061 114.696 106.771 114.141 107.542 114.116C108.296 114.091 108.08 114.63 108.08 115.003C108.088 117.845 108.097 120.687 108.08 123.529C108.08 123.852 108.337 124.349 107.641 124.424C106.953 124.498 107.061 124.001 106.995 123.529H107.003ZM107.102 120.935C107.069 120.612 107.061 120.281 106.986 119.958C106.713 118.74 105.926 118.126 104.749 118.176C103.68 118.226 102.893 118.955 102.727 120.115C102.62 120.861 102.595 121.615 102.877 122.352C103.191 123.173 103.755 123.661 104.633 123.719C105.57 123.786 106.307 123.413 106.746 122.559C107.011 122.054 107.111 121.507 107.111 120.935H107.102Z" fill="white"/>
<path d="M143.337 93.4427C143.337 91.8933 143.337 90.4515 143.337 89.0098C143.337 88.67 143.594 88.5789 143.834 88.4712C145.616 87.6923 147.414 86.9383 149.319 86.4991C149.908 86.3666 150.115 86.4494 150.156 87.1289C150.214 88.2309 150.057 89.0346 148.864 89.5152C147.936 89.8881 147.148 90.5841 146.121 90.8327C145.417 90.9984 144.978 91.5784 144.58 92.1584C144.273 92.6059 144.008 93.1113 143.353 93.4427H143.337Z" fill="white"/>
<path d="M232.908 82.7124C232.469 81.2293 232.9 80.2018 234.151 79.4726C234.805 79.0915 235.369 78.5612 235.982 78.122C238.053 76.614 240.249 76.5643 242.619 77.5917C241.691 78.0889 240.887 78.6358 240.398 79.5224C240.191 79.8869 239.835 79.8538 239.52 79.8206C237.672 79.6218 236.173 80.3095 234.83 81.5027C234.275 81.9998 233.637 82.4141 232.908 82.7124Z" fill="white"/>
<path d="M159.834 84.1626C160.588 84.1875 161.359 84.1792 162.071 83.9223C163.861 83.276 165.543 82.3977 167.416 81.9337C168.385 81.6934 168.932 80.9145 168.849 79.8291C168.824 79.5308 168.849 79.2656 169.114 79.0336C170.722 77.6665 172.479 76.755 174.683 76.871C175.544 76.9124 175.486 77.4593 175.569 77.9896C175.685 78.7105 175.122 78.4619 174.79 78.4951C174.185 78.5448 173.647 78.7851 173.117 79.0585C170.962 80.1522 168.957 81.4863 166.919 82.7623C164.996 83.9721 162.908 84.5935 160.63 84.4609C160.356 84.4444 160.017 84.6018 159.834 84.1626Z" fill="white"/>
<path d="M117.327 108.258C116.698 108.258 116.068 108.308 115.446 108.25C114.734 108.183 114.701 108.515 114.825 109.062C115.024 109.948 115.48 110.603 116.399 110.769C117.311 110.934 118.239 110.901 118.711 109.915C118.943 109.435 119.324 109.476 119.606 109.6C120.087 109.816 119.705 110.172 119.581 110.421C118.91 111.73 116.673 112.136 115.173 111.249C113.798 110.437 113.209 108.366 113.839 106.559C114.378 105.018 115.728 104.231 117.443 104.471C118.968 104.678 120.194 106.352 119.962 107.869C119.904 108.25 119.689 108.258 119.415 108.258C118.719 108.258 118.023 108.258 117.336 108.258H117.327ZM116.722 107.396C117.186 107.396 117.651 107.363 118.106 107.396C118.91 107.463 118.902 107.057 118.686 106.493C118.413 105.78 117.907 105.374 117.145 105.292C116.275 105.2 115.596 105.515 115.14 106.269C114.966 106.551 114.734 106.874 114.858 107.181C115.007 107.579 115.438 107.355 115.736 107.38C116.06 107.413 116.391 107.38 116.722 107.38V107.396Z" fill="white"/>
<path d="M172.885 66C169.711 66 166.753 66 163.787 66C163.521 66 163.215 66.0331 163.256 65.6271C163.298 65.2708 163.033 64.7902 163.555 64.5913C165.063 64.0362 166.446 63.1413 168.07 62.8762C168.725 62.7684 169.305 62.9093 169.844 63.2905C170.896 64.0445 171.832 64.9145 172.876 66H172.885Z" fill="white"/>
<path d="M152.079 106.41C152.344 105.018 153.205 104.388 154.788 104.405C156.28 104.421 157.108 105.035 157.224 106.435C157.34 107.943 157.274 109.468 157.29 110.984C157.29 111.224 157.29 111.481 156.976 111.489C156.702 111.498 156.304 111.655 156.213 111.266C156.089 110.735 155.932 111.025 155.733 111.183C154.987 111.738 154.142 111.804 153.28 111.622C152.418 111.44 151.905 110.884 151.772 109.998C151.648 109.103 151.888 108.366 152.717 107.893C153.487 107.454 154.349 107.438 155.202 107.346C155.534 107.313 156.081 107.628 156.164 106.998C156.23 106.476 156.188 105.929 155.716 105.557C155.078 105.043 153.711 105.192 153.346 105.929C153.023 106.576 152.634 106.576 152.087 106.41H152.079ZM155.476 108.092C154.664 108.175 154.059 108.192 153.52 108.465C153.04 108.714 152.783 109.111 152.791 109.658C152.791 110.114 152.973 110.487 153.396 110.71C154.548 111.307 156.064 110.437 156.172 109.136C156.23 108.44 156.13 107.935 155.476 108.092Z" fill="white"/>
<path d="M118.761 121.697C118.761 122.393 118.761 123.081 118.761 123.777C118.761 124.026 118.835 124.357 118.454 124.39C118.181 124.415 117.775 124.556 117.684 124.175C117.559 123.67 117.427 123.91 117.203 124.076C116.499 124.614 115.695 124.689 114.85 124.54C113.938 124.374 113.383 123.827 113.242 122.907C113.102 121.971 113.375 121.217 114.262 120.753C115.016 120.355 115.844 120.339 116.664 120.256C117.004 120.223 117.543 120.537 117.634 119.916C117.709 119.361 117.667 118.781 117.12 118.416C116.408 117.936 115.156 118.143 114.775 118.913C114.494 119.493 114.038 119.551 113.682 119.319C113.358 119.104 113.665 118.673 113.847 118.383C114.394 117.505 115.72 117.09 117.054 117.389C118.081 117.621 118.645 118.3 118.719 119.336C118.769 120.123 118.728 120.919 118.728 121.706C118.744 121.706 118.753 121.706 118.769 121.706L118.761 121.697ZM116.946 120.985C116.134 121.068 115.529 121.084 114.991 121.358C114.51 121.606 114.262 122.012 114.262 122.551C114.262 123.007 114.444 123.38 114.866 123.603C116.018 124.2 117.535 123.33 117.642 122.029C117.7 121.333 117.601 120.827 116.946 120.993V120.985Z" fill="white"/>
<path d="M150.015 79.3567C150.148 79.9285 150.057 80.119 149.386 79.9616C147.538 79.5307 145.715 79.7793 143.967 80.4919C143.411 80.7156 143.121 80.699 143.047 80.0445C143.022 79.8207 142.964 79.5556 142.831 79.3982C142.019 78.4453 142.641 78.0641 143.436 77.625C145.441 76.5146 147.438 76.7467 149.419 77.625C150.164 77.9564 149.883 78.7601 150.032 79.3567H150.015Z" fill="white"/>
<path d="M179.77 90.9819C183.656 92.9871 187.36 95.0669 191.644 96.0529C187.725 98.0581 181.055 95.216 179.77 90.9819Z" fill="white"/>
<path d="M172.222 121.714C172.222 122.41 172.238 123.098 172.222 123.794C172.205 124.374 171.575 124.73 171.294 124.3C170.904 123.703 170.705 124.101 170.407 124.266C169.636 124.689 168.824 124.706 168.004 124.465C167.176 124.225 166.794 123.595 166.687 122.775C166.587 121.988 166.852 121.35 167.515 120.894C168.294 120.355 169.189 120.355 170.076 120.256C170.465 120.215 171.103 120.554 171.128 119.767C171.153 119.104 171.012 118.458 170.266 118.267C169.471 118.06 168.634 118.044 168.211 118.93C167.954 119.461 167.524 119.527 167.184 119.311C166.778 119.063 167.134 118.648 167.308 118.375C167.855 117.472 169.313 117.058 170.623 117.397C171.625 117.654 172.172 118.392 172.222 119.626C172.255 120.322 172.222 121.01 172.222 121.706V121.714ZM170.167 121.018C169.562 121.085 168.924 121.076 168.369 121.408C167.896 121.689 167.689 122.129 167.739 122.659C167.78 123.106 167.988 123.471 168.443 123.653C169.587 124.101 170.979 123.305 171.145 122.104C171.244 121.375 171.161 120.811 170.167 121.018Z" fill="white"/>
<path d="M155.062 96.2186C158.865 93.998 162.279 95.622 165.775 96.9809C163.132 98.3646 157.299 98.3564 155.062 96.2186Z" fill="white"/>
<path d="M156.18 74.5594C158.74 71.7588 167.225 71.2782 171.435 73.0762C170.357 73.5237 169.297 73.6645 168.228 73.7143C167.176 73.764 166.107 73.7723 165.054 73.706C162.328 73.5237 159.652 73.7888 157 74.4517C156.752 74.5097 156.495 74.5263 156.18 74.5677V74.5594Z" fill="white"/>
<path d="M114.701 65.6597C119.83 65.1459 124.553 63.9113 129.425 63.7125C130.809 63.6545 132.192 63.5467 133.576 63.4307C134.115 63.3893 134.255 63.6213 134.297 64.1019C134.347 64.7565 133.891 64.5659 133.576 64.5576C131.952 64.5411 130.336 64.5742 128.729 64.7896C128.248 64.8559 127.768 64.9388 127.304 64.6239C126.931 64.3753 126.541 64.5908 126.185 64.7814C125.439 65.1708 124.636 65.3697 123.807 65.3945C122.108 65.4525 120.443 65.7094 118.844 66.2314C117.427 66.6954 116.217 66.2562 114.717 65.6514L114.701 65.6597Z" fill="white"/>
<path d="M143.453 120.911C143.461 123.115 142.102 124.598 140.064 124.598C138.092 124.598 136.692 123.106 136.675 120.993C136.658 118.839 138.084 117.298 140.089 117.306C142.094 117.314 143.445 118.765 143.453 120.911ZM140.114 118.176C138.746 118.151 137.852 119.187 137.827 120.836C137.794 122.584 138.606 123.678 139.981 123.719C141.373 123.769 142.334 122.667 142.359 121.01C142.384 119.353 141.473 118.193 140.114 118.168V118.176Z" fill="white"/>
<path d="M185.115 84.1624C185.115 85.8859 184.965 86.035 183.209 85.6207C181.328 85.1816 179.961 83.9138 178.668 82.5798C178.27 82.1655 178.494 81.6601 178.643 81.2789C178.809 80.8315 179.223 81.2209 179.497 81.2872C180.905 81.6269 182.306 82.0246 183.714 82.3727C185.106 82.7124 185.115 82.7041 185.115 84.1624Z" fill="white"/>
<path d="M117.046 91.3795C117.742 91.2718 118.322 91.6778 118.943 91.8435C119.44 91.9761 119.117 92.5064 119.183 92.8544C119.357 93.7161 119.059 94.1221 118.106 94.263C116.482 94.5116 114.866 94.8264 113.217 94.9839C112.646 95.0336 112.405 94.9507 112.397 94.2879C112.389 93.3764 112.364 92.6887 113.566 92.4815C114.535 92.3158 115.272 91.3546 116.374 91.3795C116.598 91.3795 116.822 91.3795 117.037 91.3795H117.046Z" fill="white"/>
<path d="M145.466 105.432C145.947 104.968 146.353 104.637 146.875 104.496C148.59 104.049 149.866 104.827 150.049 106.601C150.189 108.042 150.107 109.501 150.14 110.951C150.148 111.398 149.966 111.522 149.551 111.522C149.096 111.522 149.004 111.299 149.013 110.901C149.029 109.683 149.029 108.457 149.013 107.239C149.004 105.913 148.516 105.325 147.43 105.308C146.312 105.291 145.491 106.045 145.442 107.205C145.4 108.39 145.442 109.584 145.425 110.768C145.425 111.108 145.541 111.506 144.944 111.522C144.306 111.547 144.381 111.141 144.381 110.744C144.381 108.962 144.381 107.181 144.389 105.399C144.389 105.093 144.182 104.653 144.795 104.579C145.4 104.504 145.458 104.877 145.458 105.432H145.466Z" fill="white"/>
<path d="M130.369 118.326C130.958 117.779 131.447 117.431 132.118 117.348C133.791 117.141 134.719 117.779 134.96 119.444C135.175 120.919 134.993 122.411 135.051 123.894C135.067 124.283 134.893 124.416 134.529 124.424C134.131 124.424 133.924 124.325 133.932 123.869C133.957 122.618 133.949 121.358 133.932 120.107C133.924 118.831 133.452 118.268 132.408 118.218C131.297 118.168 130.419 118.914 130.369 120.057C130.311 121.275 130.353 122.502 130.353 123.72C130.353 124.093 130.394 124.441 129.822 124.441C129.251 124.441 129.292 124.093 129.292 123.72C129.292 121.905 129.292 120.09 129.292 118.276C129.292 117.953 129.126 117.538 129.74 117.489C130.353 117.439 130.361 117.804 130.361 118.334L130.369 118.326Z" fill="white"/>
<path d="M150.131 89.4319C150.131 90.3268 150.123 91.0808 150.131 91.8348C150.131 92.158 150.024 92.3817 149.775 92.5888C148.118 93.956 146.262 94.9006 144.099 95.1409C143.851 95.1658 143.445 95.3563 143.353 94.9255C143.287 94.594 143.204 94.2046 143.602 93.956C145.591 92.7297 147.173 90.9399 149.261 89.8379C149.493 89.7136 149.725 89.6142 150.123 89.4319H150.131Z" fill="white"/>
<path d="M116.955 59.8927C115.032 59.727 113.267 59.205 111.436 59.3459C111.096 59.3707 111.038 59.2216 111.047 58.9481C111.047 58.7824 111.047 58.6167 111.071 58.451C111.254 56.2386 111.395 56.1309 113.499 56.6944C114.742 57.0258 115.993 57.3075 117.269 57.4732C117.758 57.5395 118.131 57.5892 117.849 58.2355C117.75 58.4675 117.742 58.7658 117.791 59.0144C117.932 59.8347 117.626 60.1082 116.955 59.8844V59.8927Z" fill="white"/>
<path d="M101.998 75.918C103.871 76.8709 105.379 78.0392 106.928 79.1412C107.384 79.4644 107.815 79.8289 108.296 80.1189C109.133 80.6161 108.826 81.4033 108.768 82.0661C108.735 82.4887 108.345 82.149 108.163 82.0578C106.73 81.3121 105.379 80.3675 103.871 79.8372C102.288 79.2738 101.692 78.3872 101.998 76.7963C102.04 76.5726 101.998 76.3406 101.998 75.9263V75.918Z" fill="white"/>
<path d="M147.356 124.606C146.063 124.606 145.094 124.076 144.804 123.131C144.729 122.899 144.422 122.518 144.845 122.385C145.168 122.286 145.574 122.17 145.814 122.733C146.212 123.678 147.165 123.993 148.11 123.612C148.557 123.429 148.797 123.131 148.814 122.642C148.831 122.153 148.615 121.797 148.159 121.648C147.563 121.457 146.95 121.341 146.345 121.159C145.276 120.836 144.779 120.206 144.804 119.245C144.828 118.334 145.541 117.588 146.56 117.372C147.869 117.107 149.005 117.58 149.427 118.566C149.527 118.798 149.75 119.112 149.427 119.253C149.137 119.386 148.715 119.502 148.507 119.021C148.176 118.234 147.53 118.093 146.784 118.209C146.245 118.3 145.864 118.607 145.823 119.187C145.781 119.742 146.146 120.024 146.635 120.156C147.049 120.272 147.472 120.355 147.886 120.463C149.469 120.869 149.991 121.507 149.8 122.833C149.634 123.993 148.797 124.598 147.339 124.606H147.356Z" fill="white"/>
<path d="M146.038 60.2159C143.362 60.6882 140.81 61.1356 138.183 61.0859C137.537 61.0776 137.33 60.8291 137.47 60.2822C137.603 59.7685 136.948 58.8819 138.183 58.8487C139.965 58.799 141.738 58.7079 143.511 58.5421C144.406 58.4593 145.118 58.5256 145.491 59.4784C145.582 59.7104 145.798 59.8927 146.046 60.2242L146.038 60.2159Z" fill="white"/>
<path d="M139.476 58.4674C139.119 58.4674 138.921 58.4674 138.722 58.4674C137.446 58.4508 137.205 58.1194 137.454 56.8599C137.512 56.5699 137.653 56.5119 137.901 56.4539C139.766 56.023 141.63 55.5839 143.486 55.1365C143.867 55.0453 144 55.1365 144.058 55.5342C144.174 56.3379 144.364 57.1334 144.522 57.9371C143.743 58.0365 142.964 58.1608 142.177 58.2354C141.224 58.3265 140.279 58.5254 139.476 58.4674Z" fill="white"/>
<path d="M160.306 121.325C160.323 121.408 160.356 121.772 160.456 122.12C160.721 123.082 161.359 123.653 162.37 123.72C163.356 123.786 164.151 123.413 164.449 122.419C164.599 121.913 164.922 121.872 165.27 121.98C165.775 122.129 165.477 122.518 165.386 122.783C164.723 124.656 162.022 125.236 160.381 123.877C159.146 122.858 158.79 120.72 159.586 119.137C160.282 117.737 161.806 117.049 163.439 117.414C164.367 117.621 165.063 118.127 165.386 119.063C165.469 119.295 165.676 119.626 165.336 119.742C165.079 119.833 164.715 119.941 164.449 119.585C163.414 118.218 162.842 117.953 161.839 118.325C160.837 118.69 160.306 119.659 160.315 121.35L160.306 121.325Z" fill="white"/>
<path d="M151.283 66.5469C153.711 64.144 156.122 61.8736 159.826 62.0559C158.707 64.7986 154.796 66.8618 151.283 66.5469Z" fill="white"/>
<path d="M139.153 106.808C138.606 106.941 138.233 106.941 137.934 106.261C137.388 105.01 135.498 104.944 134.595 106.062C133.816 107.023 133.767 108.987 134.496 109.982C135.432 111.258 137.404 111.084 138.092 109.658C138.15 109.542 138.183 109.41 138.233 109.294C138.423 108.855 138.821 109.029 139.086 109.095C139.401 109.178 139.186 109.476 139.128 109.675C138.589 111.572 136.029 112.36 134.305 111.158C132.979 110.23 132.457 108.2 133.12 106.51C133.709 105.01 135.159 104.223 136.899 104.48C138.266 104.679 138.937 105.366 139.153 106.808Z" fill="white"/>
<path d="M179.737 101.24C182.04 101.745 184.145 101.488 186.225 101.149C187.169 100.991 187.874 101.422 188.868 101.878C186.855 102.002 185.512 103.087 184.178 104.173C183.391 104.819 182.703 104.836 181.933 104.107C181.088 103.311 180.3 102.491 179.737 101.24Z" fill="white"/>
<path d="M137.495 54.88C137.288 54.0928 137.628 53.6951 138.39 53.4713C139.012 53.2808 139.6 52.941 140.163 52.6096C141.373 51.8887 142.616 52.651 143.834 52.5019C143.875 52.5019 143.958 52.6262 143.983 52.7008C144.315 53.5874 143.834 54.5154 142.923 54.7391C141.481 55.0871 140.023 55.3771 138.597 55.7666C137.711 56.0151 137.247 55.9323 137.495 54.8717V54.88Z" fill="white"/>
<path d="M216.899 92.945C214.48 93.4421 211.936 93.9642 209.401 94.5027C209.094 94.569 208.895 94.4365 208.713 94.2293C208.241 93.6824 207.76 93.1356 207.404 92.3898C210.685 91.7518 213.9 91.1055 216.891 92.945H216.899Z" fill="white"/>
<path d="M196.317 95.8123C196.226 95.3152 196.458 95.108 197.262 95.2572C198.853 95.5555 200.468 95.6632 202.092 95.6383C202.656 95.6383 202.822 95.804 202.805 96.3675C202.755 98.0164 202.358 98.4058 200.675 98.265C199.267 98.149 198.007 97.5524 196.715 97.0635C196.168 96.8564 196.392 96.4255 196.317 95.804V95.8123Z" fill="white"/>
<path d="M170.457 62.9091C171.526 62.7599 172.346 62.8511 173.174 63.4559C175.561 65.1877 178.013 65.2043 180.392 63.3896C180.914 62.9919 181.46 62.7516 182.123 62.851C182.272 62.8759 182.471 62.8096 182.521 63.0333C182.562 63.2073 182.521 63.3565 182.355 63.4559C179.944 64.8977 177.591 66.5134 174.55 65.9914C173.854 65.8754 173.257 65.486 172.727 65.0303C171.981 64.3839 171.277 63.6879 170.448 62.9173L170.457 62.9091Z" fill="white"/>
<path d="M134.015 55.5099C134.222 56.3551 133.883 56.6451 133.071 56.7114C131.397 56.8439 129.731 57.0925 128.058 57.2582C127.817 57.2831 127.345 57.4903 127.353 57.018C127.37 56.5042 126.98 55.6839 127.585 55.5099C129.309 55.0045 130.983 54.209 132.855 54.3002C133.709 54.3416 134.338 54.4576 134.015 55.5016V55.5099Z" fill="white"/>
<path d="M129.789 97.3374C127.884 97.3374 127.933 97.3374 127.875 95.5725C127.85 94.7688 128.033 94.4953 128.894 94.5367C130.643 94.6196 132.366 94.8433 134.098 95.1168C134.661 95.2079 134.67 95.4896 134.686 95.9205C134.703 96.3679 134.562 96.5585 134.09 96.5917C132.582 96.6994 131.206 97.5694 129.798 97.3374H129.789Z" fill="white"/>
<path d="M214.894 86.5982C217.736 85.7282 220.578 84.9659 223.603 85.1979C225.616 85.3553 227.638 85.3636 229.569 84.5847C229.734 84.5185 229.95 84.3527 230.008 84.6925C230.049 84.9162 230.091 85.173 229.768 85.2559C229.229 85.3968 228.674 85.5128 228.143 85.6868C223.793 87.0705 219.319 86.5568 214.878 86.6065L214.894 86.5982Z" fill="white"/>
<path d="M104.501 62.2296C103.97 61.6744 103.225 61.6081 102.545 61.459C101.683 61.2767 102.04 60.6552 102.023 60.1995C101.998 59.5615 102.52 59.8101 102.819 59.8515C104.683 60.1415 106.481 60.6884 108.287 61.2021C108.602 61.2933 108.718 61.4507 108.71 61.749C108.71 62.1798 108.66 62.6107 108.718 63.0333C108.826 63.7625 108.519 63.953 107.865 63.8039C107.865 63.547 107.624 63.5885 107.492 63.5139C107.368 63.4062 107.227 63.3399 107.053 63.4062L107.078 63.4227C107.036 63.1493 106.829 63.2239 106.655 63.2073L106.68 63.2239C106.638 62.9587 106.415 63.0499 106.257 63.0084L106.282 63.025C106.232 62.7681 106.017 62.851 105.868 62.8096L105.893 62.8261C105.652 62.4781 105.246 62.4119 104.89 62.271C104.758 62.2544 104.625 62.2296 104.492 62.213L104.501 62.2296Z" fill="white"/>
<path d="M151.797 120.803C151.797 120.272 151.789 119.742 151.797 119.22C151.805 118.74 151.855 118.267 151.126 118.367C150.877 118.4 150.811 118.201 150.802 117.977C150.802 117.72 150.836 117.48 151.151 117.497C151.896 117.555 151.805 117.041 151.789 116.585C151.772 116.187 151.789 115.881 152.344 115.881C152.866 115.881 152.973 116.146 152.907 116.56C152.791 117.306 153.089 117.588 153.835 117.488C154.191 117.439 154.581 117.405 154.548 118.002C154.506 118.574 154.075 118.4 153.819 118.367C153.056 118.267 152.857 118.566 152.899 119.295C152.965 120.38 152.924 121.474 152.915 122.559C152.915 123.297 153.147 123.786 154.001 123.711C154.241 123.695 154.539 123.57 154.573 124.018C154.597 124.399 154.44 124.507 154.075 124.573C152.791 124.788 151.913 124.175 151.813 122.882C151.764 122.195 151.805 121.499 151.805 120.803H151.797Z" fill="white"/>
<path d="M270.344 78.9759C268.015 77.8573 266.184 78.8682 264.403 79.995C263.806 80.3679 263.524 80.4508 263.268 79.6222C262.87 78.3296 262.804 78.3627 264.013 77.6998C265.737 76.7552 267.527 76.7138 269.399 77.1861C270.352 77.4264 270.17 78.1639 270.352 78.9842L270.344 78.9759Z" fill="white"/>
<path d="M112.43 82.3811C114.477 83.3588 116.507 83.5743 118.603 83.2843C118.786 83.2594 119.117 83.1848 119.125 83.392C119.167 84.2372 119.167 85.0906 119.117 85.9358C119.109 86.1181 118.769 86.0103 118.595 85.9689C116.623 85.5712 114.734 84.9083 112.886 84.1211C112.033 83.7566 112.579 83.0688 112.439 82.3811H112.43Z" fill="white"/>
<path d="M251.601 97.3367C250.706 97.3367 249.819 97.345 248.925 97.3367C248.659 97.3367 248.253 97.4692 248.27 96.9887C248.287 96.6241 248.063 96.1932 248.56 95.9363C250.557 94.9172 252.637 94.8757 254.716 95.5635C255.371 95.7789 254.948 96.4832 255.006 96.9638C255.064 97.4361 254.65 97.3367 254.377 97.3367C253.449 97.345 252.529 97.3367 251.601 97.3367Z" fill="white"/>
<path d="M143.362 83.7979C143.179 83.1185 143.552 82.8367 144.066 82.555C145.74 81.6436 147.455 81.163 149.369 81.7181C149.991 81.9004 150.214 82.1987 150.148 82.8285C150.073 83.5162 149.576 83.2345 149.253 83.251C147.488 83.309 145.814 83.7648 144.174 84.3696C143.519 84.6099 143.138 84.6348 143.37 83.7979H143.362Z" fill="white"/>
<path d="M178.966 88.8193C179.621 89.0927 180.052 89.6562 180.599 90.0705C183.839 92.5563 187.617 93.6583 191.553 94.3543C192.431 94.5117 193.309 94.6526 194.445 94.8432C193.641 95.4066 193.127 95.9121 192.158 95.6801C187.667 94.6195 183.665 92.4568 179.638 90.3274C179.024 90.0042 178.958 89.4159 178.983 88.8027L178.966 88.8193Z" fill="white"/>
<path d="M153.744 59.8182C154.117 58.6167 154.788 58.1444 156.014 58.2604C157.589 58.4096 159.18 58.393 160.754 58.4096C161.342 58.4096 161.549 58.4842 161.351 59.1802C161.102 60.0419 160.712 60.3071 159.818 60.2159C157.821 60.0171 155.807 59.9425 153.744 59.8099V59.8182Z" fill="white"/>
<path d="M168.965 87.3444C168.659 86.2838 168.94 85.6209 169.711 85.0657C170.49 84.5106 171.194 83.8477 172.023 83.3588C172.694 82.9694 173.415 82.7291 174.194 82.7457C175.495 82.7705 176.05 83.624 175.627 84.842C175.528 85.132 175.354 85.0906 175.18 85.016C173.266 84.204 171.791 85.1237 170.374 86.2423C169.935 86.5821 169.496 86.9218 168.974 87.3361L168.965 87.3444Z" fill="white"/>
<path d="M106.522 97.3365C105.13 97.6514 103.788 96.7565 102.355 96.3339C101.725 96.1517 101.998 95.5468 102.032 95.1325C102.073 94.6353 102.496 94.9171 102.736 94.9502C104.567 95.1905 106.39 95.5385 108.246 95.5882C109.033 95.6048 108.776 96.1765 108.818 96.5825C108.859 97.0051 108.843 97.3863 108.229 97.3365C107.741 97.2951 107.235 97.3365 106.531 97.3365H106.522Z" fill="white"/>
<path d="M159.917 85.9024C162.312 86.557 164.474 86.0681 166.513 84.7009C168.128 83.6155 169.694 82.4389 171.459 81.5854C172.106 81.2706 172.735 80.9143 173.531 80.9557C170.879 82.2566 169.056 84.7341 166.463 86.0101C164.449 86.9961 162.129 87.0707 159.925 86.1924C159.925 86.093 159.925 86.0018 159.925 85.9024H159.917Z" fill="white"/>
<path d="M188.106 104.488C190.492 104.28 192.647 105.266 194.892 105.88C192.124 106.543 189.34 106.766 186.523 106.037C186.647 105.689 187.518 105.349 186.523 105.001C186.83 104.794 187.128 104.587 187.435 104.38C187.484 104.554 187.534 104.728 187.584 104.894C187.758 104.753 188.131 104.869 188.106 104.479V104.488Z" fill="white"/>
<path d="M117.046 91.3795C116.822 91.3795 116.598 91.3795 116.383 91.3795C115.91 90.8741 115.413 91.2138 114.958 91.3795C114.336 91.595 113.748 91.9098 113.135 92.1418C112.687 92.3158 112.389 92.2413 112.422 91.6364C112.463 90.7829 112.43 89.9295 112.43 89.0015C114.552 89.5981 116.615 90.0704 118.719 90.2444C119.109 90.2775 119.2 90.4681 119.208 90.8244C119.208 91.2801 118.943 91.247 118.62 91.2635C118.098 91.2967 117.534 90.8824 117.046 91.3878V91.3795Z" fill="white"/>
<path d="M120.94 78.2631C120.426 79.3651 119.797 79.3485 118.935 78.8265C116.955 77.6416 114.941 76.523 112.919 75.4044C112.555 75.2056 112.414 74.9653 112.414 74.551C112.414 73.9958 112.48 73.6892 113.102 74.0953C113.433 74.3107 113.789 74.4764 114.129 74.6836C116.341 75.9762 118.446 77.4593 120.94 78.2631Z" fill="white"/>
<path d="M209.657 95.0499C216.303 93.111 223.76 92.7961 227.066 94.3124C226.925 94.735 226.577 94.5859 226.32 94.5361C221.042 93.5335 215.855 93.981 210.735 95.4642C210.262 95.605 209.981 95.4642 209.666 95.0581L209.657 95.0499Z" fill="white"/>
<path d="M106.912 87.0373C105.628 86.3413 104.244 85.9602 102.785 85.9767C101.576 85.9933 102.065 85.1398 102.007 84.593C101.924 83.7561 102.578 84.0461 102.959 84.1041C104.907 84.3941 106.672 85.1813 108.403 86.0927C108.809 86.3082 108.909 86.623 108.793 86.9876C108.644 87.4599 108.238 87.1865 107.956 87.1533C107.6 87.1119 107.268 86.913 106.895 87.0125L106.912 87.029V87.0373Z" fill="white"/>
<path d="M265.753 72.8357C262.837 73.772 259.821 73.9212 256.672 73.6229C258.636 71.7917 263.392 71.4354 265.753 72.8357Z" fill="white"/>
<path d="M108.047 66.0076C106.208 66.0076 104.376 66.0076 102.537 66.0076C102.247 66.0076 101.998 65.9827 102.007 65.6016C102.007 64.9387 102.007 64.2758 102.007 63.6212C102.007 63.1489 102.33 63.1986 102.628 63.2401C103.424 63.3561 104.169 63.6295 104.865 64.0107C105.951 64.6072 107.02 65.2287 108.097 65.8418C108.08 65.8916 108.064 65.9496 108.055 65.9993L108.047 66.0076Z" fill="white"/>
<path d="M239.562 81.6433C239.562 83.6651 239.562 83.6402 237.846 84.2451C236.388 84.7671 234.946 85.3388 233.488 85.8774C233.273 85.9603 232.958 86.242 232.825 85.9023C232.717 85.6123 232.593 85.14 233.04 84.9494C235.253 84.0048 237.125 82.3973 239.553 81.6433H239.562Z" fill="white"/>
<path d="M126.947 59.3878C126.947 58.3272 127.295 57.7637 128.513 57.7306C130.121 57.6892 131.72 57.3992 133.319 57.2086C133.667 57.1671 134.106 56.96 134.04 57.598C133.999 58.004 134.372 58.6255 133.51 58.7083C131.902 58.8575 130.311 59.0978 128.704 59.2552C128.124 59.3132 127.552 59.5286 126.947 59.3961V59.3878Z" fill="white"/>
<path d="M118.869 61.5167C116.557 61.9062 114.303 61.9062 112.041 61.5167C111.295 61.3925 111.171 60.9864 111.096 60.4064C111.055 60.0584 111.171 59.9424 111.535 59.9838C113.599 60.2241 115.654 60.4396 117.733 60.4727C118.355 60.481 118.38 61.2516 118.86 61.5085L118.869 61.5167Z" fill="white"/>
<path d="M240.92 74.252C241.302 73.8709 241.542 73.4648 242.188 73.6803C245.005 74.6249 247.789 74.2686 250.532 73.3488C251.286 73.1003 251.866 73.15 252.43 73.9206C248.585 74.6663 244.831 76.0169 240.912 74.252H240.92Z" fill="white"/>
<path d="M142.459 66.0079C140.801 66.0742 139.351 65.2207 137.769 64.9556C137.172 64.8561 137.512 64.1684 137.495 63.7624C137.479 63.3398 137.852 63.4807 138.092 63.5055C139.799 63.6713 141.472 64.0027 143.08 64.6407C143.577 64.8396 144 65.0467 143.842 65.693C143.693 66.3145 143.188 65.8836 142.865 66.0079C142.749 66.0493 142.599 66.0079 142.475 66.0079H142.459Z" fill="white"/>
<path d="M213.502 91.1809C211.514 91.1809 209.616 91.3881 207.735 91.7692C207.238 91.8687 206.915 91.7527 206.749 91.2472C206.658 90.9655 206.492 90.7086 206.401 90.4352C206.302 90.1286 206.004 89.764 206.194 89.5072C206.418 89.2089 206.799 89.4906 207.106 89.5652C208.879 89.9546 210.669 90.228 212.483 90.3855C212.989 90.4269 213.386 90.5098 213.502 91.1892V91.1809Z" fill="white"/>
<path d="M220.711 77.5503C222.161 76.8211 223.561 75.8931 224.904 74.8905C225.542 74.4182 225.848 74.7662 226.196 75.1556C226.693 75.7191 225.973 75.7937 225.774 75.9925C224.821 76.9454 223.802 77.8403 222.816 78.76C222.434 79.1163 222.136 79.3235 221.755 78.7103C221.49 78.2712 221.067 77.9314 220.711 77.542V77.5503Z" fill="white"/>
<path d="M150.032 94.2632C150.098 94.5283 150.131 94.5863 150.131 94.6443C150.231 97.3373 150.231 97.3538 147.538 97.329C146.287 97.3207 145.036 97.4698 143.793 97.2047C143.61 97.1633 143.362 97.1964 143.362 96.9147C143.362 96.7075 143.536 96.6495 143.71 96.6578C146.104 96.7407 148.093 95.7049 150.032 94.2632Z" fill="white"/>
<path d="M242.569 73.0837C244.682 71.7911 247.997 71.6254 250.366 72.7026C248.858 73.6803 243.995 74.1858 242.569 73.0837Z" fill="white"/>
<path d="M161.98 52.6679C159.967 51.9056 157.887 51.5741 155.749 51.7233C154.896 51.7813 155.119 51.0853 155.037 50.6958C154.912 50.1241 155.459 50.3478 155.716 50.3395C157.473 50.2567 159.221 50.381 160.911 50.9113C162.055 51.2676 162.08 51.309 161.98 52.6679Z" fill="white"/>
<path d="M135.589 74.1942C139.078 71.3356 144.721 71.3273 147.496 74.1942C143.527 72.5122 139.567 72.073 135.589 74.1942Z" fill="white"/>
<path d="M200.816 95.1249C199.905 95.0254 198.463 94.8846 197.022 94.7188C196.715 94.6857 196.309 94.694 196.359 94.1885C196.4 93.7411 196.756 93.824 197.03 93.8157C198.745 93.766 200.444 93.5505 202.126 93.2191C202.631 93.1197 202.805 93.2357 202.813 93.7908C202.83 95.1746 202.863 95.1746 200.816 95.1249Z" fill="white"/>
<path d="M239.445 84.2949C239.769 85.1069 239.47 85.4881 238.691 85.7615C236.736 86.4493 234.872 87.3773 232.883 87.9905C232.543 87.0541 232.883 86.6233 233.77 86.3167C235.667 85.6538 237.49 84.8087 239.437 84.2949H239.445Z" fill="white"/>
<path d="M262.215 78.0478C263.425 76.8132 264.585 75.5123 266.242 74.924C268.314 74.1866 268.712 74.1368 269.689 76.6972C268.372 76.3906 267.096 76.1835 265.77 76.4652C264.461 76.7469 263.409 77.5009 262.224 78.0478H262.215Z" fill="white"/>
<path d="M200.013 100.071C198.654 100.038 197.502 99.6734 196.408 99.1016C195.721 98.7453 196.118 98.2565 196.226 97.8256C196.384 97.229 196.756 97.6516 196.988 97.7427C198.588 98.3725 200.179 99.0188 201.96 98.7288C202.142 98.6956 202.391 98.6542 202.399 98.9525C202.399 99.2922 202.341 99.6071 201.943 99.7314C201.281 99.9385 200.593 100.013 200.013 100.071Z" fill="white"/>
<path d="M131.48 85.2231C132.375 85.2231 133.269 85.2231 134.156 85.2231C134.38 85.2231 134.637 85.1568 134.661 85.5214C134.678 85.8114 134.521 85.9523 134.264 85.9937C132.283 86.3583 130.303 86.7229 128.314 87.0875C128.157 87.1206 128.016 87.1455 127.908 86.9383C127.502 86.1346 128.008 85.2231 128.886 85.1983C129.317 85.19 129.748 85.1983 130.179 85.1983C130.61 85.1983 131.041 85.1983 131.471 85.1983C131.471 85.1983 131.471 85.2148 131.471 85.2231H131.48Z" fill="white"/>
<path d="M160.679 87.477C160.34 87.9162 159.975 88.1068 159.445 88.0156C157.299 87.6428 155.136 87.4936 152.957 87.9908C153.28 86.3999 153.636 86.1264 155.07 86.317C156.959 86.5573 158.84 86.8887 160.679 87.4853V87.477Z" fill="white"/>
<path d="M126.177 60.6885C126.284 60.1085 126.616 60.0257 126.997 59.9842C129.102 59.7439 131.198 59.5202 133.294 59.2468C133.949 59.1639 134.09 59.4291 134.057 60.0091C134.032 60.4897 134.115 60.9288 133.361 60.846C130.991 60.5725 128.613 60.5725 126.168 60.6885H126.177Z" fill="white"/>
<path d="M188.106 104.488C188.139 104.877 187.758 104.761 187.584 104.902C187.534 104.728 187.484 104.554 187.435 104.389C189.224 103.154 191.172 103.311 193.135 103.792C194.668 104.173 196.185 104.604 197.776 105.027C197.336 105.491 196.856 105.623 196.218 105.532C194.378 105.283 192.663 104.546 190.848 104.206C189.912 104.032 188.976 103.949 188.106 104.48V104.488Z" fill="white"/>
<path d="M196.955 84.4851C197.121 84.5431 197.461 84.6591 197.8 84.7834C199.424 85.3551 200.908 86.2251 202.407 87.0537C202.648 87.1863 202.905 87.352 202.78 87.6503C202.606 88.0563 202.333 87.7249 202.126 87.6586C200.377 87.0703 198.646 86.4074 196.814 86.134C195.878 85.9931 196.433 85.3385 196.359 84.9077C196.309 84.6425 196.359 84.3525 196.964 84.4851H196.955Z" fill="white"/>
<path d="M128.986 88.6206C128.853 88.6206 128.72 88.6454 128.588 88.6371C128.281 88.6371 127.9 88.7946 127.892 88.2311C127.892 87.8086 128.058 87.676 128.455 87.6097C130.27 87.3031 132.085 86.9385 133.899 86.6237C134.14 86.5822 134.57 86.1762 134.662 86.806C134.728 87.2783 134.72 87.6843 134.057 87.8168C132.375 88.1566 130.693 88.4797 128.986 88.6206Z" fill="white"/>
<path d="M229.03 90.9319C229.03 91.0893 229.047 91.1639 229.03 91.2136C228.417 92.8128 228.417 92.8045 226.751 92.4233C225.277 92.0919 223.777 91.8847 222.219 91.7356C222.492 91.1224 222.932 90.9484 223.553 90.9816C225.359 91.0893 227.166 91.0893 229.038 90.9236L229.03 90.9319Z" fill="white"/>
<path d="M104.343 93.8322C105.636 93.8156 106.912 93.6748 108.18 93.4676C108.669 93.3848 108.917 93.5256 108.801 94.0062C108.71 94.3957 109.207 95.1497 108.287 95.1C106.307 94.9922 104.352 94.6857 102.404 94.3625C102.239 94.3377 102.048 94.3045 102.04 94.1057C102.023 93.8156 102.264 93.8322 102.454 93.8322C103.084 93.8322 103.705 93.8322 104.335 93.8322H104.343Z" fill="white"/>
<path d="M232.875 84.4522C232.626 83.6899 232.891 83.3087 233.513 82.969C235.195 82.0658 236.819 81.0384 238.708 80.5827C239.081 80.4915 239.47 80.4501 239.818 80.3921C239.943 80.6407 239.885 80.8727 239.777 80.9141C237.333 81.8007 235.245 83.3999 232.875 84.4605V84.4522Z" fill="white"/>
<path d="M179.149 99.2595C181.461 99.9887 183.615 100.047 185.786 99.8395C186.316 99.7898 186.474 100.096 186.672 100.585C184.427 100.859 182.239 101.207 180.01 100.751C179.198 100.585 179.406 99.9555 179.149 99.2595Z" fill="white"/>
<path d="M143.329 85.853C143.304 85.4967 143.329 85.1901 143.735 85.0493C145.607 84.3947 147.488 83.7567 149.518 83.8147C149.759 83.8147 150.098 83.7152 150.115 84.1295C150.14 84.519 149.808 84.519 149.56 84.5521C147.604 84.8255 145.79 85.5381 144 86.2922C143.445 86.5242 143.262 86.4164 143.329 85.853Z" fill="white"/>
<path d="M112.447 96.4423C112.281 95.7628 112.563 95.5639 113.251 95.5142C115.024 95.3899 116.78 95.0668 118.521 94.7188C118.736 94.6774 119.051 94.3873 119.167 94.8016C119.291 95.2325 118.885 95.2574 118.62 95.3319C116.838 95.8125 115.098 96.4174 113.4 97.1466C112.629 97.478 112.273 97.362 112.439 96.4505L112.447 96.4423Z" fill="white"/>
<path d="M102.38 79.6631C102.454 79.6962 102.57 79.7459 102.694 79.7956C104.675 80.6408 106.506 81.7511 108.403 82.762C108.644 82.8946 108.934 83.052 108.793 83.3503C108.619 83.7149 108.345 83.4166 108.138 83.3254C106.307 82.4968 104.484 81.6185 102.512 81.1628C101.725 80.9805 102.073 80.4088 102.007 79.9862C101.974 79.7791 102.023 79.5802 102.38 79.6631Z" fill="white"/>
<path d="M186.183 79.3897C185.496 81.1629 185.728 80.9558 184.178 80.7403C182.637 80.5249 181.17 80.0526 179.704 79.5554C179.19 79.3814 179.149 79.1743 179.323 78.702C179.546 78.1137 179.853 78.3788 180.16 78.528C182.024 79.4394 183.921 80.1354 186.175 79.3897H186.183Z" fill="white"/>
<path d="M193.649 103.444C192.456 103.17 191.279 102.839 190.036 102.897C188.189 102.98 186.681 103.825 185.371 105.043C184.833 105.548 184.369 105.739 183.789 105.2C186.556 102.077 189.937 101.795 193.657 103.129C193.657 103.237 193.649 103.336 193.641 103.444H193.649Z" fill="white"/>
<path d="M133.319 83.2509C133.758 83.5741 134.164 83.0604 134.603 83.2095C134.761 84.6678 134.761 84.6844 133.311 84.6844C131.72 84.6844 130.137 84.6513 128.546 84.6678C128.116 84.6678 127.867 84.6347 127.884 84.1044C127.9 83.5907 128.182 83.6238 128.53 83.6404C130.013 83.6901 131.505 83.8061 132.979 83.4829C133.129 83.4498 133.319 83.4829 133.336 83.2426L133.319 83.2592V83.2509Z" fill="white"/>
<path d="M171.004 97.2874C172.197 96.5748 173.183 95.9368 174.21 95.3816C175.196 94.8513 175.752 95.133 176.05 96.2185C176.141 96.5582 176.265 96.8979 176.39 97.2957H171.004V97.2874Z" fill="white"/>
<path d="M239.495 86.0102C239.553 86.5157 239.677 86.872 239.139 87.0874C237.241 87.8497 235.369 88.6617 233.48 89.4323C233.281 89.5152 232.916 89.9212 232.808 89.3495C232.742 89.018 232.668 88.6369 233.156 88.4463C235.253 87.6591 237.333 86.8388 239.503 86.002L239.495 86.0102Z" fill="white"/>
<path d="M128.712 90.8407C130.535 91.023 132.283 91.0976 134.023 91.0479C134.893 91.023 134.645 91.5865 134.67 92.0256C134.719 92.7217 134.231 92.4399 133.949 92.3736C132.209 91.9842 130.444 91.8516 128.679 91.6362C128.389 91.6031 127.859 91.8351 127.884 91.2053C127.917 90.4596 128.513 91.023 128.704 90.8407H128.712Z" fill="white"/>
<path d="M213.933 78.3874C213.046 79.6137 213.038 79.6303 211.82 78.9922C210.776 78.4454 209.732 77.8736 208.713 77.2771C208.473 77.1362 207.901 77.0865 208.265 76.5396C208.531 76.1419 208.787 75.9596 209.309 76.2827C210.735 77.1776 212.218 77.9482 213.925 78.3957L213.933 78.3874Z" fill="white"/>
<path d="M119.664 55.9406C118.67 57.3824 117.311 57.0593 115.952 56.7278C114.924 56.4792 113.889 56.2638 112.878 55.9821C112.596 55.8992 111.991 56.0235 112.124 55.4766C112.223 55.0623 112.696 55.2861 112.994 55.3192C114.245 55.4518 115.48 55.6424 116.731 55.7666C117.717 55.8661 118.711 55.8909 119.664 55.9489V55.9406Z" fill="white"/>
<path d="M239.553 92.0178C239.553 92.457 239.553 92.6476 239.553 92.8464C239.57 94.893 239.537 94.9345 237.482 95.1499C236.065 95.2991 234.963 95.1996 234.375 94.835C236.446 94.6362 237.871 93.3187 239.545 92.0178H239.553Z" fill="white"/>
<path d="M149.618 85.0653C149.841 85.0653 150.098 84.9908 150.131 85.3471C150.164 85.6536 150.065 85.8359 149.725 85.8939C147.67 86.2668 145.756 87.0705 143.851 87.9074C143.643 87.9986 143.395 88.1643 143.337 87.7665C143.295 87.4434 143.271 87.1202 143.701 86.9628C144.721 86.5899 145.731 86.1839 146.742 85.7945C147.67 85.4465 148.64 85.2393 149.609 85.0653H149.618Z" fill="white"/>
<path d="M107.873 63.812C107.749 64.2843 108.196 64.276 108.42 64.4168C108.826 64.6737 108.834 65.0631 108.652 65.3531C108.461 65.6514 108.188 65.32 107.989 65.2123C106.862 64.5991 105.752 63.9611 104.625 63.348C103.954 62.9834 103.216 62.8011 102.462 62.6851C102.156 62.6354 101.949 62.5442 102.007 62.1962C102.081 61.7488 102.396 61.9891 102.62 61.9973C103.258 62.0222 103.838 62.4779 104.501 62.2211V62.2128C104.484 62.5442 104.733 62.4116 104.89 62.4448C105.188 62.6851 105.536 62.7679 105.901 62.8259L105.876 62.8094C106.017 62.8839 106.158 62.9502 106.29 63.0248L106.266 63.0082C106.406 63.0828 106.547 63.1491 106.688 63.2237L106.663 63.2071C106.763 63.3645 106.904 63.4225 107.086 63.4225L107.061 63.406C107.111 63.6214 107.293 63.6794 107.467 63.754C107.6 63.812 107.699 64.0688 107.873 63.812Z" fill="white"/>
<path d="M248.684 86.3916C250.88 86.6733 252.753 87.2036 254.634 87.6842C254.874 87.7422 255.081 87.8665 254.998 88.1648C254.891 88.5211 254.625 88.3222 254.426 88.2974C252.562 88.0322 250.714 87.6676 248.825 87.6842C248.195 87.6842 248.27 87.3362 248.245 86.9302C248.212 86.3502 248.552 86.3833 248.684 86.3999V86.3916Z" fill="white"/>
<path d="M157.39 121.026C157.39 121.946 157.382 122.866 157.39 123.794C157.39 124.192 157.299 124.39 156.843 124.399C156.362 124.407 156.321 124.167 156.321 123.786C156.329 121.88 156.329 119.966 156.321 118.06C156.321 117.72 156.379 117.505 156.793 117.505C157.199 117.505 157.39 117.629 157.382 118.068C157.365 119.054 157.382 120.04 157.382 121.035L157.39 121.026Z" fill="white"/>
<path d="M110.433 120.952C110.433 120.032 110.433 119.112 110.433 118.193C110.433 117.803 110.433 117.488 110.98 117.505C111.469 117.513 111.477 117.787 111.477 118.143C111.477 120.016 111.477 121.888 111.477 123.761C111.477 124.109 111.477 124.391 110.98 124.399C110.425 124.415 110.425 124.101 110.433 123.711C110.442 122.791 110.433 121.872 110.433 120.952Z" fill="white"/>
<path d="M142.053 108.1C142.053 108.987 142.053 109.873 142.053 110.76C142.053 111.1 142.16 111.489 141.564 111.506C141.017 111.514 141.008 111.216 141.008 110.818C141.008 108.978 141.008 107.139 141.008 105.299C141.008 104.91 140.992 104.595 141.555 104.603C142.144 104.612 142.053 104.993 142.053 105.341C142.053 106.261 142.053 107.18 142.053 108.1Z" fill="white"/>
<path d="M131.107 108.108C131.107 109.028 131.107 109.948 131.107 110.876C131.107 111.232 131.107 111.514 130.601 111.506C130.162 111.506 130.03 111.332 130.038 110.917C130.055 109.012 130.055 107.098 130.038 105.192C130.038 104.769 130.179 104.62 130.61 104.612C131.115 104.612 131.107 104.894 131.107 105.25C131.107 106.203 131.107 107.156 131.107 108.117V108.108Z" fill="white"/>
<path d="M194.262 101.264C194.552 100.834 194.851 100.618 195.356 100.776C197.237 101.356 199.134 101.844 201.198 101.762C200.858 102.673 200.394 103.054 199.457 102.839C197.693 102.424 195.994 101.82 194.262 101.264Z" fill="white"/>
<path d="M152.451 90.7002C152.493 88.5458 152.485 88.4961 154.291 88.2889C156.048 88.0901 157.804 88.1729 159.552 88.7778C156.984 88.521 154.597 88.8938 152.451 90.7002Z" fill="white"/>
<path d="M168.659 78.7603C168.684 78.4868 168.659 78.3543 168.7 78.3128C169.993 77.1859 171.194 75.9348 172.735 75.131C174.028 74.4599 174.426 74.6587 175.006 76.3408C172.528 76.0839 170.548 77.1611 168.659 78.7603Z" fill="white"/>
<path d="M102.545 58.567C104.426 58.8819 106.307 59.205 108.188 59.495C108.751 59.5779 108.768 59.9342 108.727 60.3485C108.66 60.9617 108.238 60.6634 107.989 60.5888C106.158 60.0668 104.318 59.5448 102.429 59.2713C102.156 59.2299 101.982 59.1305 102.015 58.8405C102.056 58.4925 102.313 58.5587 102.545 58.5753V58.567Z" fill="white"/>
<path d="M195.779 80.1355C196.997 80.7818 198.215 81.4281 199.433 82.0661C200.452 82.6047 201.479 83.135 202.507 83.6653C202.697 83.7647 202.863 83.8973 202.78 84.121C202.706 84.3447 202.507 84.237 202.366 84.179C200.303 83.3007 198.239 82.4307 196.193 81.5109C195.712 81.2955 195.82 80.7238 195.779 80.1272V80.1355Z" fill="white"/>
<path d="M178.693 87.5923C181.784 89.6803 184.874 91.7767 188.445 92.9616C184.576 92.3318 181.386 90.4426 178.693 87.5923Z" fill="white"/>
<path d="M251.063 82.5962C252.115 83.0519 253.175 82.9193 254.253 82.6625C254.493 82.6044 254.866 82.1984 255.023 82.7205C255.181 83.2342 254.891 83.4579 254.369 83.549C253.275 83.7396 252.206 83.6236 251.154 83.3336C250.458 83.143 249.795 82.853 249.099 82.6542C248.278 82.4139 248.013 81.9167 248.262 81.0798C248.751 81.0964 248.999 81.5936 249.438 81.6847C249.728 81.9664 250.052 82.2067 250.466 82.2813L250.449 82.2647C250.582 82.505 250.839 82.5133 251.063 82.5962Z" fill="white"/>
<path d="M152.659 92.0508C152.402 91.5039 152.543 91.2139 152.915 90.9239C154.655 89.5816 156.619 89.1175 158.782 89.3993C159.006 89.4324 159.279 89.4158 159.254 89.7556C159.238 90.0207 159.022 90.0373 158.815 90.0373C156.561 89.9959 154.548 90.7333 152.659 92.0508Z" fill="white"/>
<path d="M118.653 88.0901C116.756 87.8167 114.9 87.419 113.143 86.6235C112.911 86.5158 112.671 86.3915 112.488 86.2092C112.405 86.1263 112.414 85.8778 112.463 85.7369C112.538 85.5298 112.745 85.6126 112.886 85.6623C114.825 86.3915 116.814 86.9881 118.844 87.4107C119.142 87.4687 119.233 87.6344 119.192 87.8913C119.134 88.2724 118.868 88.1067 118.653 88.0818V88.0901Z" fill="white"/>
<path d="M131.48 66.0078C130.494 66.0078 129.499 66.0078 128.513 66.0078C128.273 66.0078 128.016 65.9995 127.975 65.7012C127.917 65.3283 128.24 65.4029 128.447 65.3781C130.245 65.1212 132.051 64.9969 133.866 65.0715C134.313 65.0881 134.72 65.2206 134.686 65.7012C134.653 66.2647 134.139 65.9664 133.849 65.9829C133.062 66.0244 132.267 65.9995 131.48 65.9995V66.0078Z" fill="white"/>
<path d="M211.895 88.2144C209.873 87.8995 207.917 87.5764 206.07 86.8058C205.697 86.6483 205.357 86.4246 205.531 86.0186C205.738 85.5297 206.103 85.944 206.368 86.0269C208.158 86.6152 209.956 87.1538 211.812 87.5101C212.052 87.5598 212.367 87.5681 212.35 87.9492C212.334 88.3552 212.019 88.1315 211.895 88.2061V88.2144Z" fill="white"/>
<path d="M199.731 103.518C199.052 103.982 194.577 103.146 192.025 102.077C193.848 101.563 195.547 101.878 199.731 103.518Z" fill="white"/>
<path d="M168.634 82.6544C167.814 83.2096 166.993 83.7564 166.181 84.3199C164.068 85.7782 161.798 86.0185 159.354 85.0739C162.726 85.3473 165.692 84.3199 168.41 82.4473L168.634 82.6461V82.6544Z" fill="white"/>
<path d="M147.853 80.2842C148.317 80.2594 149.029 80.4085 149.734 80.5742C150.024 80.6405 150.214 80.8145 150.123 81.1377C150.024 81.5188 149.734 81.32 149.56 81.262C147.604 80.5991 145.806 81.0382 144.058 81.9828C143.859 82.0906 143.527 82.6126 143.287 82.0243C143.121 81.61 143.271 81.2785 143.743 81.1045C144.986 80.6405 146.245 80.3008 147.844 80.2842H147.853Z" fill="white"/>
<path d="M179.77 62.9089C178.055 64.417 175.594 64.4335 173.647 62.9089H179.77Z" fill="white"/>
<path d="M201.952 100.287C201.894 101.148 201.388 101.273 200.767 101.273C198.894 101.264 197.113 100.776 195.315 100.245C195.464 99.4747 195.729 99.2344 196.491 99.6818C198.165 100.651 199.988 100.784 201.952 100.295V100.287Z" fill="white"/>
<path d="M255.007 90.3519C255.007 90.6668 254.799 90.6502 254.609 90.5839C252.612 89.921 250.615 89.863 248.61 90.5342C248.328 90.6254 248.27 90.4845 248.254 90.2525C248.229 89.8879 248.287 89.6476 248.718 89.5399C249.828 89.2747 250.938 89.2665 252.048 89.4405C252.885 89.573 253.706 89.8299 254.534 90.0371C254.717 90.0868 254.924 90.1365 255.007 90.3519Z" fill="white"/>
<path d="M127.95 89.4487C128.323 89.109 128.787 89.2084 129.209 89.1587C130.85 88.9681 132.474 88.7112 134.09 88.3384C134.322 88.2887 134.637 88.0649 134.67 88.5372C134.695 88.8521 134.786 89.2167 134.289 89.2913C132.184 89.6061 130.079 89.689 127.958 89.4404L127.95 89.4487Z" fill="white"/>
<path d="M219.957 92.7382C221.722 91.7439 223.454 92.5062 225.177 92.6553C225.89 92.7133 226.594 92.9453 227.29 93.1193C227.481 93.169 227.845 93.1193 227.771 93.4591C227.696 93.7905 227.406 93.7408 227.124 93.6745C225.624 93.3099 224.108 93.0033 222.559 92.8956C221.714 92.8376 220.86 92.7962 219.957 92.7465V92.7382Z" fill="white"/>
<path d="M223.296 90.4435C223.752 89.9215 224.216 90.0541 224.605 90.0458C226.088 90.0126 227.53 89.5569 229.022 89.6646C229.204 89.6812 229.469 89.5901 229.511 89.8469C229.552 90.0789 229.436 90.3358 229.171 90.3689C227.257 90.6258 225.343 90.6755 223.288 90.4435H223.296Z" fill="white"/>
<path d="M118.587 89.1839C116.64 88.9684 114.767 88.579 113.01 87.7587C112.729 87.6261 112.256 87.5101 112.48 87.0958C112.654 86.7727 112.994 87.1124 113.226 87.2201C114.941 87.9658 116.747 88.3221 118.579 88.6121C118.827 88.6536 119.192 88.579 119.175 88.9601C119.15 89.391 118.769 89.1176 118.587 89.1756V89.1839Z" fill="white"/>
<path d="M102.355 82.9109C104.617 83.234 106.547 83.9715 108.395 84.9409C108.627 85.0652 108.942 85.2144 108.76 85.521C108.586 85.811 108.345 85.521 108.171 85.4298C106.382 84.4852 104.526 83.7561 102.495 83.524C102.272 83.4992 102.007 83.5075 102.015 83.176C102.015 82.9689 102.164 82.9109 102.363 82.9275L102.355 82.9109Z" fill="white"/>
<path d="M184.841 82.0657C182.886 81.6928 181.021 81.1542 179.157 80.6322C178.925 80.5659 178.734 80.4416 178.867 80.1351C178.991 79.8285 179.19 79.8865 179.43 79.9776C181.187 80.6488 182.985 81.146 184.858 81.3697C185.106 81.3945 185.421 81.4028 185.346 81.8171C185.28 82.1651 185.015 82.0491 184.858 82.0657H184.841Z" fill="white"/>
<path d="M211.597 89.2331C209.749 89.0508 207.934 88.7442 206.202 88.0482C205.879 87.9156 205.49 87.7499 205.664 87.3771C205.805 87.0622 206.136 87.3936 206.352 87.4682C208.067 88.1145 209.848 88.4294 211.646 88.7028C211.945 88.7442 212.533 88.6117 212.467 89.0922C212.425 89.432 211.895 89.1585 211.588 89.2331H211.597Z" fill="white"/>
<path d="M178.403 83.0603C179.132 83.6817 179.754 84.27 180.433 84.7838C181.668 85.7284 183.018 86.3664 184.634 86.2587C184.883 86.2421 185.322 86.0598 185.313 86.5487C185.305 87.0375 184.866 86.8221 184.626 86.8055C182.272 86.6895 180.325 85.6621 178.643 84.0629C178.403 83.8309 178.411 83.8226 178.411 83.052L178.403 83.0603Z" fill="white"/>
<path d="M128.779 92.1752C130.568 92.3657 132.341 92.5066 134.073 92.9457C134.355 93.012 134.769 93.012 134.628 93.4346C134.521 93.7661 134.164 93.5755 133.932 93.5175C132.225 93.1115 130.494 92.8878 128.745 92.7883C128.447 92.7717 127.875 93.0452 127.908 92.4569C127.942 91.8934 128.488 92.2994 128.77 92.1752H128.779Z" fill="white"/>
<path d="M143.353 95.8787C145.864 95.5887 148.093 94.6441 150.098 92.929C149.908 94.6193 145.5 96.5333 143.353 95.8787Z" fill="white"/>
<path d="M238.393 97.3947C236.67 97.1462 234.938 96.9059 233.214 96.6573C233.032 96.6324 232.767 96.6159 232.817 96.3424C232.866 96.0524 233.132 96.1684 233.297 96.2016C235.245 96.5744 237.2 96.8479 239.18 96.4087C239.429 96.3507 239.57 96.4419 239.553 96.6904C239.537 96.9224 239.686 97.2622 239.288 97.3202C238.998 97.3616 238.7 97.3202 238.401 97.3202C238.401 97.345 238.401 97.3699 238.401 97.3865L238.393 97.3947Z" fill="white"/>
<path d="M114.709 97.3372C116.118 96.5998 117.592 96.1275 119.158 95.7463C119.175 96.0612 119.158 96.3264 119.2 96.5749C119.291 97.1881 119.051 97.3704 118.438 97.3455C117.195 97.2958 115.952 97.3289 114.709 97.3289V97.3372Z" fill="white"/>
<path d="M170.241 81.2869C171.319 80.5329 172.487 79.9363 173.655 79.3315C174.127 79.0829 174.649 79.0083 175.18 79.0083C175.519 79.0083 175.635 79.174 175.627 79.4972C175.619 79.7872 175.577 80.0192 175.213 80.0192C173.481 80.0192 171.973 80.7649 170.465 81.4858C170.39 81.4195 170.316 81.3532 170.241 81.2786V81.2869Z" fill="white"/>
<path d="M168.907 89.0839C168.717 88.3133 168.891 87.9321 169.371 87.609C170.25 87.0207 171.053 86.3247 171.948 85.7612C173.141 85.0072 174.359 85.0818 175.569 85.9021C172.628 85.3386 170.573 86.6561 168.907 89.0756V89.0839Z" fill="white"/>
<path d="M202.714 86.6567C200.758 85.5712 198.844 84.4692 196.707 83.8809C196.458 83.8146 196.226 83.7069 196.317 83.4334C196.4 83.1848 196.64 83.3174 196.823 83.3671C198.869 83.9306 200.725 84.9166 202.565 85.9441C202.813 86.0849 202.855 86.2755 202.722 86.6567H202.714Z" fill="white"/>
<path d="M134.604 94.627C133.642 94.4862 132.681 94.3122 131.712 94.2127C130.601 94.105 129.483 94.0553 128.364 93.989C128.174 93.9807 127.95 94.0139 127.917 93.7322C127.884 93.4919 127.991 93.3593 128.24 93.351C130.436 93.3344 132.573 93.6244 134.662 94.2707C134.645 94.3867 134.628 94.511 134.612 94.627H134.604Z" fill="white"/>
<path d="M250.574 88.8108C249.977 88.7942 249.397 88.8522 248.817 88.9931C248.577 89.0511 248.287 89.1505 248.253 88.7114C248.22 88.3136 248.403 88.2142 248.767 88.2059C250.756 88.1645 252.686 88.5954 254.642 88.8522C254.982 88.8936 255.106 89.1174 255.015 89.4074C254.899 89.7802 254.642 89.5234 254.451 89.4737C253.175 89.1505 251.916 88.7694 250.582 88.8108H250.574Z" fill="white"/>
<path d="M108.685 84.4942C108.13 84.2373 107.591 83.9722 107.028 83.7319C105.636 83.1436 104.211 82.6547 102.694 82.4559C102.38 82.4144 101.94 82.431 102.007 81.9587C102.081 81.4118 102.512 81.677 102.777 81.7515C104.89 82.3398 106.87 83.2513 108.818 84.229C108.776 84.3202 108.727 84.4113 108.685 84.5025V84.4942Z" fill="white"/>
<path d="M196.392 82.1653C196.566 82.2233 196.723 82.2647 196.872 82.331C198.712 83.1265 200.543 83.9385 202.383 84.7339C202.639 84.8417 202.929 84.9825 202.764 85.2891C202.59 85.6205 202.358 85.2891 202.2 85.198C200.41 84.2119 198.588 83.3005 196.599 82.7868C196.375 82.7288 196.151 82.6542 196.143 82.3559C196.143 82.1653 196.251 82.1487 196.383 82.1653H196.392Z" fill="white"/>
<path d="M179.803 98.7126C181.643 98.7126 183.491 98.7126 185.33 98.7126C185.579 98.7126 185.902 98.6381 185.927 99.0358C185.943 99.3258 185.695 99.3009 185.512 99.3092C183.582 99.3921 181.651 99.5081 179.812 98.7043L179.803 98.7126Z" fill="white"/>
<path d="M232.593 95.3569C233.571 95.4812 234.267 95.5558 234.971 95.6469C236.264 95.8126 237.531 95.7132 238.799 95.4066C239.015 95.3569 239.404 94.9675 239.528 95.4563C239.644 95.9452 239.155 95.8955 238.857 95.9618C237.308 96.3181 235.767 96.1109 234.234 95.8458C233.77 95.7629 233.256 95.8043 232.593 95.3486V95.3569Z" fill="white"/>
<path d="M179.489 65.8423C180.45 65.2954 181.411 64.7568 182.364 64.2183C182.447 64.2928 182.521 64.326 182.529 64.3674C182.607 65.4556 182.101 65.9997 181.013 65.9997C180.524 65.9997 180.027 65.9997 179.538 65.9997C179.522 65.9417 179.513 65.892 179.497 65.834L179.489 65.8423Z" fill="white"/>
<path d="M129.416 90.2027C130.477 90.1364 131.546 90.0784 132.607 90.0038C133.095 89.9707 133.584 89.8795 134.073 89.8381C134.313 89.8215 134.637 89.6806 134.67 90.1115C134.711 90.5341 134.421 90.5755 134.098 90.5838C132.532 90.617 130.974 90.5092 129.408 90.2027H129.416Z" fill="white"/>
<path d="M112.48 84.7344C114.717 85.4221 116.905 86.1927 119.159 86.7893C116.805 86.491 114.56 85.8281 112.48 84.7344Z" fill="white"/>
<path d="M202.764 74.3106C201.595 73.8217 200.469 73.3577 199.333 72.8854C199.333 72.8357 199.333 72.786 199.333 72.728C200.245 72.728 201.165 72.6617 202.076 72.7446C203.079 72.8357 202.789 73.6229 202.764 74.3106Z" fill="white"/>
<path d="M233.529 72.6778C234.896 72.6778 236.695 72.6778 238.501 72.6778C238.733 72.6778 239.064 72.5452 239.147 72.9264C239.18 73.0838 239.197 73.2909 239.122 73.4069C238.907 73.7135 238.658 73.4401 238.426 73.3904C236.67 73.0258 234.963 72.1889 233.529 72.6695V72.6778Z" fill="white"/>
<path d="M268.811 86.0929C266.905 85.546 265.289 85.894 263.765 86.9712C264.328 85.2643 267.162 84.734 268.811 86.0929Z" fill="white"/>
<path d="M171.898 82.6628C172.802 81.9668 173.738 81.3868 174.873 81.2708C175.122 81.2459 175.461 81.1548 175.569 81.4614C175.66 81.7265 175.677 82.0828 175.569 82.3148C175.412 82.638 175.105 82.3314 174.881 82.29C173.854 82.0994 172.885 82.406 171.907 82.6546L171.898 82.6628Z" fill="white"/>
<path d="M193.649 103.444C193.649 103.336 193.657 103.236 193.666 103.129C195.348 103.526 197.03 103.924 198.703 104.322C196.922 104.529 195.29 103.941 193.649 103.444Z" fill="white"/>
<path d="M141.655 114.497C141.29 115.011 140.942 115.516 140.586 116.014C140.379 116.295 140.064 116.37 139.799 116.204C139.517 116.03 139.824 115.798 139.882 115.608C140.147 114.804 140.437 114.008 141.655 114.489V114.497Z" fill="white"/>
<path d="M191.163 93.5256C192.497 93.7162 193.898 93.7991 195.314 93.8156C194.942 94.5199 192.721 94.3294 191.163 93.5256Z" fill="white"/>
<path d="M163.289 82.8701C162.03 83.6573 160.646 83.7484 159.213 83.5247C160.53 83.0855 161.881 82.8204 163.289 82.8784V82.8701Z" fill="white"/>
<path d="M205.523 84.7676C206.84 85.2316 208.158 85.6873 209.484 86.1513C209.459 86.2342 209.434 86.3253 209.409 86.4082C208.05 86.0768 206.716 85.6625 205.432 85.0824C205.465 84.9747 205.498 84.8753 205.531 84.7676H205.523Z" fill="white"/>
<path d="M266.491 80.9888C265.728 81.4694 264.974 81.9582 264.204 82.4305C264.063 82.5134 263.905 82.7951 263.723 82.5548C263.582 82.3642 263.591 82.0659 263.806 81.9417C264.635 81.4528 265.48 80.9971 266.491 80.9971V80.9888Z" fill="white"/>
<path d="M131.264 102.458C131.198 102.847 131.007 103.146 130.585 103.171C130.171 103.195 129.889 102.98 129.856 102.549C129.823 102.068 130.104 101.795 130.552 101.778C130.958 101.762 131.181 102.06 131.264 102.458Z" fill="white"/>
<path d="M165.85 62.9754C165.187 63.224 164.532 63.4808 163.869 63.7211C163.613 63.8123 163.281 64.0609 163.248 63.514C163.231 63.1908 163.173 62.8263 163.695 62.8428C164.408 62.8594 165.112 62.8428 165.825 62.8428L165.85 62.9754Z" fill="white"/>
<path d="M251.593 85.6208C252.628 85.8031 253.656 85.9854 254.692 86.1677C254.857 86.2009 255.04 86.2423 255.006 86.4577C254.965 86.756 254.708 86.6814 254.542 86.64C253.532 86.3832 252.529 86.1014 251.518 85.828L251.593 85.6208Z" fill="white"/>
<path d="M111.651 115.401C111.585 115.79 111.353 116.039 110.939 116.047C110.525 116.047 110.259 115.831 110.243 115.392C110.226 114.903 110.541 114.663 110.98 114.671C111.378 114.68 111.61 114.97 111.651 115.401Z" fill="white"/>
<path d="M156.851 114.655C157.208 114.738 157.531 114.887 157.539 115.326C157.547 115.749 157.332 116.014 156.909 116.039C156.445 116.063 156.147 115.815 156.147 115.351C156.147 114.945 156.437 114.721 156.851 114.655Z" fill="white"/>
<path d="M226.917 86.5325C227.762 86.3171 228.608 86.1016 229.461 85.8945C229.693 85.8365 229.991 85.6873 230.033 86.1348C230.066 86.5159 229.917 86.6568 229.536 86.6485C228.666 86.6319 227.796 86.6485 226.926 86.6485V86.5325H226.917Z" fill="white"/>
<path d="M142.235 102.475C142.177 102.872 141.961 103.137 141.547 103.146C141.133 103.162 140.859 102.955 140.826 102.524C140.793 102.027 141.108 101.787 141.539 101.779C141.937 101.779 142.177 102.06 142.235 102.475Z" fill="white"/>
<path d="M106.771 72.6697C107.277 72.6697 107.79 72.6697 108.296 72.6697C108.519 72.6697 108.785 72.6614 108.818 72.9763C108.834 73.1337 108.834 73.3326 108.751 73.4403C108.594 73.6392 108.395 73.4403 108.229 73.3823C107.741 73.2083 107.26 73.026 106.779 72.8437C106.779 72.7857 106.779 72.7277 106.779 72.6697H106.771Z" fill="white"/>
<path d="M157.158 86.0682C156.263 85.9522 155.368 85.8362 154.432 85.7202C154.954 85.1236 155.608 85.1982 157.158 86.0682Z" fill="white"/>
<path d="M252.139 85.1317C253.125 84.8665 253.937 85.0902 254.741 85.024C254.94 85.0074 255.023 85.14 255.023 85.3388C255.015 85.6205 254.824 85.6454 254.617 85.6288C253.838 85.5791 253.076 85.4051 252.139 85.1317Z" fill="white"/>
<path d="M250.59 84.0134C249.753 83.8311 248.908 83.6737 248.195 83.1682C248.228 83.0771 248.262 82.9859 248.295 82.8948C249.074 83.1848 249.861 83.4748 250.64 83.7648C250.623 83.8477 250.607 83.9305 250.59 84.0134Z" fill="white"/>
<path d="M188.412 72.2801C187.161 72.3961 186.25 72.8933 184.941 72.6944C186.167 72.3299 187.095 71.957 188.412 72.2801Z" fill="white"/>
<path d="M210.32 86.4578C211.05 86.4743 211.671 86.4826 212.226 86.8803C211.58 86.9798 210.95 86.9549 210.32 86.4578Z" fill="white"/>
<path d="M186.523 105.001C187.509 105.349 186.647 105.689 186.523 106.037C186.25 105.979 185.968 105.913 185.628 105.838C185.819 105.416 186.183 105.225 186.523 105.001Z" fill="white"/>
<path d="M170.241 81.2869C170.316 81.3532 170.39 81.4194 170.465 81.494C169.852 81.8835 169.247 82.2646 168.634 82.654L168.41 82.4552C168.965 81.9829 169.587 81.6183 170.233 81.2952L170.241 81.2869Z" fill="white"/>
<path d="M159.917 85.9024C159.917 86.0019 159.917 86.093 159.917 86.1924C159.13 85.9936 158.351 85.7781 157.672 85.2727C158.426 85.4799 159.171 85.6953 159.925 85.9024H159.917Z" fill="white"/>
<path d="M250.375 86.1094C249.687 86.0017 249.273 85.952 248.858 85.8774C248.635 85.836 248.22 85.952 248.311 85.5377C248.369 85.2477 248.717 85.4051 248.908 85.4631C249.331 85.604 249.803 85.6206 250.383 86.1094H250.375Z" fill="white"/>
<path d="M139.326 66.0079C138.804 66.0079 138.282 66.0079 137.76 66.0079C137.57 66.0079 137.446 65.9333 137.47 65.7179C137.504 65.4776 137.661 65.5024 137.827 65.5438C138.332 65.6598 138.838 65.7676 139.335 65.8753C139.335 65.9167 139.318 65.9664 139.318 66.0079H139.326Z" fill="white"/>
<path d="M252.844 84.4111C252.189 84.4029 251.559 84.2951 250.971 83.8726C251.593 83.9886 252.222 84.1129 252.844 84.2289C252.844 84.2869 252.844 84.3531 252.844 84.4111Z" fill="white"/>
<path d="M252.844 84.4109C252.844 84.3529 252.844 84.2866 252.844 84.2286C253.556 84.2701 254.269 83.9386 254.99 84.2203C254.294 84.6098 253.565 84.4524 252.844 84.4109Z" fill="white"/>
<path d="M103.523 53.3965L104.434 53.5788C104.095 53.6865 103.772 53.6782 103.523 53.3965Z" fill="white"/>
<path d="M105.561 53.8356H105.122C105.122 53.6698 105.246 53.7858 105.313 53.7693C105.362 53.7527 105.42 53.7941 105.561 53.8356Z" fill="white"/>
<path d="M163.289 82.8862L163.306 82.8447L163.289 82.8696V82.8862Z" fill="white"/>
<path d="M178.983 88.8108C178.983 88.8108 178.933 88.7942 178.908 88.7942C178.925 88.8025 178.95 88.819 178.966 88.8273L178.983 88.8108Z" fill="white"/>
</g>
<defs>
<linearGradient id="paint0_linear_4022_2481" x1="339.738" y1="-65.0276" x2="-7.53859" y2="41.4887" gradientUnits="userSpaceOnUse">
<stop stop-color="#DCDAE2"/>
<stop offset="1" stop-color="#7A7786" stop-opacity="0"/>
</linearGradient>
<clipPath id="clip0_4022_2481">
<rect width="169" height="94.8408" fill="white" transform="translate(101.518 32.2593)"/>
</clipPath>
</defs>
</svg>
