<svg width="99" height="99" viewBox="0 0 99 99" fill="none" xmlns="http://www.w3.org/2000/svg">
<g clip-path="url(#clip0_2154_373)">
<path d="M66.4431 60.5542C64.345 58.1917 61.3293 56.8383 58.1687 56.8383H37.111C32.9147 56.8383 29.0119 59.2732 27.1794 63.0247C26.6227 64.1469 26.2656 65.3554 26.1182 66.6161L24.1103 83.6605C23.6401 87.6421 24.7927 91.4241 27.3573 94.3089C29.9066 97.1784 33.4992 98.7594 37.4731 98.7594H51.887C55.5991 98.7594 59.24 97.3322 62.1388 94.741C65.0325 92.1548 66.8663 88.6956 67.2997 85.0013L69.1627 69.2022C69.53 66.0671 68.5375 62.9154 66.4406 60.5555H66.4431V60.5542ZM35.497 85L37.3575 69.2061C37.4185 68.6901 37.8557 68.3012 38.3754 68.3012H56.5764C57.1902 68.3012 57.6655 68.8362 57.5943 69.4462L55.9181 83.6631C55.6919 85.5973 53.8098 87.2939 51.8908 87.2939H37.477C37.0156 87.2939 36.3726 87.1897 35.9316 86.6953C35.4703 86.1743 35.4411 85.4855 35.4983 85H35.497ZM98.3805 42.1055L96.5556 57.597C96.1362 61.1502 94.3736 64.4735 91.593 66.958C88.8073 69.4475 85.3087 70.8175 81.7415 70.8175H71.3117C71.0753 70.8175 70.8911 70.6116 70.919 70.3765L71.0321 69.4196C71.4248 66.0633 70.4844 62.6917 68.4422 60.0281C68.2312 59.7523 68.4307 59.3545 68.7777 59.3545H81.7415C83.3732 59.3545 84.9757 57.907 85.1702 56.2562L86.9938 40.7711C87.0383 40.386 87.0205 39.8472 86.6749 39.4583C86.347 39.0898 85.8475 39.0123 85.4866 39.0123H71.1872C69.5338 39.0123 68.1435 40.2488 67.9503 41.8907L66.1775 56.959C66.1407 57.2754 65.781 57.4343 65.5192 57.2538C63.3766 55.7759 60.8171 54.96 58.1687 54.96H55.3132C55.0768 54.96 54.8925 54.7541 54.9205 54.519L57.3757 33.6773C57.7849 30.185 60.7472 27.5493 64.2662 27.5493H85.4866C89.3144 27.5493 92.7787 29.0743 95.2403 31.8422C97.7133 34.6202 98.8279 38.2663 98.3793 42.1067H98.3805V42.1055Z" fill="#E8EBF8"/>
<path d="M65.0021 10.9279H50.5844C48.2817 10.9279 46.1047 12.8876 45.8302 15.2081L43.5936 34.202C43.1119 38.2967 39.6387 41.3848 35.5148 41.3848H16.005C13.992 41.3848 12.0921 43.0979 11.8544 45.1261L10.0295 60.6164C9.96468 61.1514 10.0003 61.9075 10.5251 62.4997C11.0335 63.0704 11.7489 63.1911 12.2585 63.1911H24.7521C25.1131 63.1911 25.3609 63.5456 25.2439 63.8862C24.9631 64.711 24.7687 65.5675 24.6657 66.4457L23.935 72.6499C23.8981 72.9587 23.6363 73.1926 23.325 73.1926H12.2585C8.64301 73.1926 5.37188 71.7552 3.05006 69.1449C0.715537 66.5181 -0.334174 63.0754 0.0940978 59.4472L1.91775 43.9608C2.31425 40.5867 3.99048 37.4249 6.63763 35.0586C9.2886 32.6897 12.6144 31.3846 16.0037 31.3846H31.208C32.7165 31.3846 33.9873 30.2548 34.1627 28.7565L35.8961 14.0402C36.3117 10.5213 38.0603 7.22473 40.8206 4.75803C43.5847 2.28753 47.0515 0.927734 50.5832 0.927734H65.0008C68.7561 0.927734 72.1531 2.4197 74.5651 5.13039C76.9886 7.85633 78.0802 11.4337 77.6393 15.2056L76.4993 24.8601C76.4587 25.202 76.1689 25.46 75.8245 25.46H67.1294C66.7228 25.46 66.4076 25.1054 66.4546 24.7013L67.7039 14.0415C67.7788 13.4073 67.7318 12.5 67.0888 11.7743C66.4673 11.0766 65.6095 10.9292 65.0008 10.9292H65.0021V10.9279Z" fill="#522AF9"/>
</g>
<defs>
<clipPath id="clip0_2154_373">
<rect width="98.4758" height="97.8315" fill="white" transform="translate(0 0.927734)"/>
</clipPath>
</defs>
</svg>
