<svg width="242" height="60" viewBox="0 0 242 60" fill="none" xmlns="http://www.w3.org/2000/svg">
<path d="M39.9453 36.7644C38.6844 35.3442 36.8707 34.5294 34.9711 34.5294H22.3113C19.7882 34.5294 17.4424 35.994 16.3409 38.2483C16.007 38.9231 15.7922 39.6505 15.7035 40.407L14.4967 50.6532C14.2141 53.0474 14.9068 55.3211 16.449 57.0545C17.9814 58.7795 20.1415 59.73 22.5302 59.73H31.1955C33.4276 59.73 35.6168 58.8723 37.3584 57.315C39.0987 55.7604 40.2002 53.6806 40.4607 51.4596L41.5802 41.9616C41.8006 40.0772 41.2048 38.1818 39.9439 36.763L39.9453 36.7644ZM21.34 51.461L22.4581 41.9657C22.4942 41.6554 22.7574 41.4212 23.0706 41.4212H34.0123C34.3809 41.4212 34.6677 41.7427 34.6247 42.1098L33.6174 50.656C33.4817 51.8185 32.3497 52.8396 31.1955 52.8396H22.5302C22.2531 52.8396 21.8665 52.7773 21.6019 52.4794C21.3248 52.1662 21.3067 51.7519 21.3414 51.4596L21.34 51.461ZM59.145 25.673L58.0476 34.9867C57.7954 37.1232 56.7355 39.1212 55.0631 40.6148C53.388 42.1112 51.2847 42.9356 49.1412 42.9356H42.8716C42.7289 42.9356 42.6194 42.8109 42.636 42.6696L42.7039 42.0946C42.9395 40.0772 42.3742 38.0502 41.1466 36.4485C41.0191 36.2822 41.1396 36.0439 41.3475 36.0439H49.1412C50.1222 36.0439 51.0852 35.1737 51.203 34.1803L52.2989 24.8707C52.3266 24.6393 52.3142 24.3151 52.1063 24.0809C51.9096 23.8593 51.6089 23.8121 51.3928 23.8121H42.7954C41.8019 23.8121 40.9651 24.5562 40.8487 25.5427L39.7832 34.6015C39.761 34.7913 39.5449 34.8869 39.3883 34.7789C38.0997 33.8907 36.5618 33.4002 34.9697 33.4002H33.253C33.1103 33.4002 33.0009 33.2755 33.0175 33.1342L34.4931 20.6046C34.7397 18.5041 36.5202 16.9204 38.6359 16.9204H51.3942C53.6956 16.9204 55.7781 17.8362 57.2579 19.5017C58.7446 21.1713 59.4152 23.3632 59.145 25.673Z" fill="#F8F8F8"/>
<path d="M39.0779 6.9291H30.4099C29.0257 6.9291 27.7164 8.10682 27.5515 9.50208L26.2075 20.9205C25.9179 23.3826 23.8299 25.2379 21.3511 25.2379H9.62096C8.41136 25.2379 7.26828 26.2673 7.12557 27.4866L6.0282 36.799C5.98941 37.1204 6.01019 37.5763 6.3261 37.931C6.63231 38.2746 7.06183 38.3466 7.36804 38.3466H14.8792C15.0953 38.3466 15.2449 38.56 15.1757 38.7651C15.0066 39.2611 14.8902 39.7752 14.8279 40.3031L14.3887 44.033C14.3665 44.2186 14.2085 44.3586 14.0215 44.3586H7.36804C5.1941 44.3586 3.22799 43.494 1.83273 41.9255C0.429158 40.346 -0.201272 38.276 0.0564422 36.0951L1.15242 26.7842C1.39074 24.7557 2.39804 22.8547 3.99004 21.4331C5.58344 20.0088 7.5828 19.2246 9.62096 19.2246H18.7615C19.669 19.2246 20.4325 18.5456 20.5378 17.645L21.5797 8.79822C21.8291 6.68247 22.8808 4.70112 24.5407 3.21857C26.2033 1.73325 28.2872 0.915771 30.4099 0.915771H39.0779C41.335 0.915771 43.3773 1.81362 44.828 3.44165C46.2856 5.08076 46.941 7.23115 46.6763 9.49931L45.9905 15.3034C45.9656 15.5085 45.7924 15.6637 45.5845 15.6637H40.3568C40.113 15.6637 39.9231 15.4503 39.9508 15.2078L40.7018 8.7996C40.7462 8.41857 40.7184 7.87266 40.3319 7.43621C39.9578 7.01639 39.4423 6.92771 39.0766 6.92771L39.0779 6.9291Z" fill="#73CBD9"/>
<path d="M242 33.5083L241.99 33.7092L241.449 36.6854C241.332 37.3296 240.764 37.816 240.127 37.816H236.846C236.194 37.816 235.685 37.3199 235.685 36.6881L235.693 36.4872L236.235 33.511C236.35 32.8765 236.945 32.3804 237.59 32.3804H240.871C241.514 32.3804 241.999 32.8654 241.999 33.5083H242ZM187.746 33.1924H184.803C184.093 33.1924 183.367 33.6108 182.957 34.2496L176.282 44.2145C176.232 44.2893 176.118 44.2727 176.09 44.1868L172.989 34.4047C172.782 33.6801 172.119 33.1924 171.342 33.1924H168.737C167.726 33.1924 166.788 33.9863 166.603 35.0033L162.51 58.2724L162.502 58.4691C162.502 59.0247 162.933 59.4279 163.529 59.4279H166.946C167.566 59.4279 168.053 58.8585 168.166 58.2945L170.652 44.1979C170.658 44.1688 170.696 44.166 170.706 44.1937L172.311 48.9836C172.517 49.5544 173.107 49.923 173.811 49.923H177.226C177.908 49.923 178.557 49.596 178.868 49.1041L182.102 44.3212C182.119 44.2962 182.158 44.3115 182.152 44.342L179.726 58.1019L179.718 58.3333C179.718 58.9776 180.111 59.4265 180.677 59.4265H184.092C184.697 59.4265 185.198 59.0358 185.314 58.4622L189.406 35.1931L189.421 35.0878C189.437 35.0074 189.448 34.9257 189.448 34.8606C189.448 33.9087 188.717 33.191 187.746 33.191V33.1924ZM207.664 39.2459H204.552C203.929 39.2459 203.35 39.7571 203.231 40.4125L200.888 53.6723C200.882 53.707 200.861 53.7361 200.828 53.7513C199.918 54.167 198.268 54.7697 196.976 54.7697C195.596 54.7697 195.466 54.5563 195.466 53.5642C195.466 53.0599 195.567 52.4253 195.695 51.63L197.623 40.6037L197.632 40.3737C197.632 39.699 197.191 39.2459 196.537 39.2459H193.425C192.795 39.2459 192.186 39.7682 192.069 40.4139L190.143 51.4305C189.979 52.2812 189.896 53.1583 189.896 54.0381C189.896 58.2364 192.82 59.7314 195.556 59.7314C197.03 59.7314 198.582 59.3212 200.278 58.4816C200.303 58.4691 200.332 58.483 200.338 58.5107C200.444 59.04 200.89 59.4265 201.441 59.4265H204.349C204.985 59.4265 205.554 58.9402 205.671 58.2932L208.783 40.6051L208.791 40.3737C208.791 39.7308 208.306 39.2459 207.663 39.2459H207.664ZM217.944 32.5841H214.799C214.161 32.5841 213.593 33.0704 213.477 33.7175L209.182 58.0687L209.173 58.3001C209.173 58.943 209.643 59.4279 210.267 59.4279H213.412C214.035 59.4279 214.614 58.9167 214.734 58.2613L219.029 33.9101L219.037 33.6787C219.037 33.0552 218.567 32.5855 217.943 32.5855L217.944 32.5841ZM228.667 43.8293C228.679 43.7545 228.744 43.7004 228.819 43.7004H231.269C231.914 43.7004 232.51 43.2044 232.625 42.5643L232.963 40.5691L232.97 40.3751C232.97 39.7322 232.485 39.2473 231.842 39.2473H229.616C229.535 39.2473 229.476 39.1752 229.49 39.0962L229.984 36.4166L229.994 36.2143C229.994 35.6587 229.562 35.2555 228.967 35.2555L225.487 35.8055C224.847 35.9219 224.366 36.3625 224.265 36.9265L223.859 39.142C223.848 39.2029 223.795 39.2473 223.733 39.2473H221.121C220.485 39.2473 219.916 39.7336 219.799 40.3793L219.529 41.902L219.521 42.1001C219.521 42.6945 219.945 43.1573 220.531 43.2224L222.926 43.5868C223.012 43.5993 223.07 43.6811 223.057 43.767L221.321 53.6779C221.196 54.4219 221.143 54.9443 221.143 55.425C221.143 58.3001 222.829 59.6981 226.296 59.6981C227.041 59.6981 227.774 59.6053 228.714 59.4556C229.605 59.3171 229.849 58.7407 229.918 58.3957L230.291 56.2647L230.299 56.0679C230.299 55.9072 230.242 55.1091 229.138 55.1091H227.345C226.976 55.1091 226.821 55.0856 226.755 55.0648C226.752 55.0426 226.748 55.0052 226.748 54.9512C226.748 54.699 226.832 54.2446 226.908 53.8635L228.665 43.8293H228.667ZM239.553 39.2459H236.441C235.805 39.2459 235.236 39.7322 235.119 40.3793L232.007 58.0673L231.999 58.2987C231.999 58.9416 232.469 59.4265 233.094 59.4265H236.206C236.836 59.4265 237.444 58.9042 237.562 58.2585L240.674 40.5705L240.682 40.3737C240.682 39.7308 240.197 39.2459 239.554 39.2459H239.553Z" fill="#73CBD9"/>
<path d="M98.9812 27.9369L87.3425 54.5702C85.8322 57.9966 83.1623 59.7328 79.406 59.7328C74.1534 59.7328 73.0685 56.2259 72.8884 54.1351L70.5897 27.4423V27.2982C70.5897 26.0886 71.6317 25.0661 72.8648 25.0661H77.2404C78.3045 25.0661 79.1677 25.8877 79.2938 27.0183L79.2993 27.0821L80.7223 49.0168C80.7306 49.1471 80.908 49.1762 80.9578 49.0556L90.3201 26.6373C90.6748 25.8406 91.4867 25.0647 92.5314 25.0647H97.162C98.294 25.0647 99.1821 25.9334 99.1821 27.0419C99.1821 27.3522 99.092 27.6224 99.0255 27.8192L98.9812 27.9356V27.9369ZM105.23 32.6686H101.323C100.195 32.6686 99.1904 33.5221 98.984 34.6611L95.0545 56.9963V57.2872C95.0545 58.4677 95.9607 59.3919 97.1162 59.3919H101.024C102.151 59.3919 103.196 58.5024 103.405 57.3565L107.335 35.0213V34.7733C107.335 33.5928 106.411 32.6686 105.23 32.6686ZM132.609 34.6043C132.609 33.5014 131.777 32.67 130.673 32.67H126.256C125.258 32.67 124.351 33.3517 123.956 34.3826L117.771 49.6265C117.74 49.7027 117.628 49.6833 117.624 49.6015L116.847 34.7969C116.75 33.5457 115.886 32.6714 114.746 32.6714H110.668C109.46 32.6714 108.478 33.6926 108.478 34.9465V35.1017L110.438 54.4898C110.754 57.8234 112.928 59.7355 116.403 59.7355C119.695 59.7355 122.271 58.0257 123.652 54.9304L132.394 35.6226C132.61 35.1737 132.61 34.7927 132.61 34.6084L132.609 34.6043ZM154.951 35.6656C154.951 35.818 154.951 36.0397 154.873 36.3223L151.192 57.3981C150.988 58.5204 149.943 59.3919 148.81 59.3919H145.411C144.694 59.3919 144.094 59.0732 143.729 58.5536C143.67 58.4677 143.559 58.4359 143.466 58.4844C141.817 59.3296 140.138 59.7328 138.317 59.7328C133.324 59.7328 129.968 56.0874 129.968 50.6615C129.968 49.5974 130.047 48.6566 130.202 47.8682C130.244 47.6119 130.558 45.6582 130.842 44.1591C132.206 36.562 136.973 32.3721 144.264 32.3721C147.042 32.3721 150.29 32.803 152.951 33.5249C153.546 33.6829 154.949 34.0583 154.949 35.667L154.951 35.6656ZM139.172 44.6482L138.406 49.0293C138.305 49.5378 138.256 50.0324 138.256 50.5326C138.256 52.0845 138.801 52.3782 139.804 52.3782C140.915 52.3782 142.238 51.9612 143.833 51.1076C143.853 51.0966 143.866 51.0786 143.871 51.0564L145.826 39.8985C145.832 39.8569 145.805 39.8181 145.763 39.8153C145.09 39.7613 144.276 39.7253 143.456 39.7253C141.666 39.7253 139.909 40.3225 139.169 44.6496L139.172 44.6482Z" fill="white"/>
<path d="M107.932 26.6899C107.932 25.7782 107.218 25.0647 106.307 25.0647H103.125C102.251 25.0647 101.445 25.7381 101.288 26.5971L100.746 29.5774V29.7728C100.746 30.6845 101.475 31.3981 102.405 31.3981H105.586C106.456 31.3981 107.232 30.7385 107.39 29.8656L107.932 26.8853V26.6899Z" fill="#73CBD9"/>
<path d="M82.0275 2.2279L81.7642 3.70075C81.7199 3.964 81.5439 4.16214 81.2363 4.16214H81.192C80.4452 4.09563 78.9502 3.98617 77.7849 3.98617C75.9379 3.98617 74.3778 5.10709 73.8721 8.09712L73.322 11.3296C73.2347 11.8797 73.1904 12.3633 73.1904 12.7803C73.1904 14.8462 74.2462 15.4406 75.7842 15.4406C76.9494 15.4406 78.4444 15.3311 79.2356 15.2646H79.2799C79.5432 15.2646 79.654 15.3963 79.654 15.5944C79.654 15.6387 79.6319 15.6817 79.6319 15.726L79.3686 17.1989C79.3021 17.5065 79.1053 17.6159 78.7964 17.7046C78.4444 17.7933 76.9716 18.0565 75.2784 18.0565C72.9479 18.0565 70.0895 16.804 70.0895 12.9341C70.0895 12.4506 70.156 11.9005 70.2433 11.3296L70.7934 8.09712C71.8048 2.20573 75.5638 1.37024 78.202 1.37024C79.8951 1.37024 81.3236 1.63349 81.6312 1.72217C81.8737 1.78868 82.0275 1.89813 82.0275 2.11844V2.2279ZM91.919 6.49265L90.0069 17.4413C89.9626 17.6838 89.7215 17.8806 89.479 17.8806H87.7207C87.4783 17.8806 87.3688 17.7268 87.3688 17.5065V17.44L87.4575 16.8026C86.2257 17.7475 85.127 18.0551 84.0504 18.0551C82.0275 18.0551 80.4452 16.6917 80.4452 14.0758C80.4452 13.6795 80.4673 13.196 80.5546 12.7568C80.5546 12.7568 80.7306 11.658 80.8844 10.8447C81.4996 7.41543 83.589 5.32601 87.1277 5.32601C88.5355 5.32601 90.1399 5.54631 91.4368 5.89824C91.7666 5.98692 91.9425 6.05204 91.9425 6.31668C91.9425 6.38319 91.9425 6.42614 91.9204 6.49265H91.919ZM86.7079 7.70224C84.8166 7.70224 84.092 9.04346 83.7844 10.8461L83.3881 13.1101C83.3216 13.4398 83.3008 13.7474 83.3008 14.0121C83.3008 15.2646 83.9603 15.6831 84.818 15.6831C85.6757 15.6831 86.5763 15.3311 87.5656 14.7603L88.7752 7.85742C88.3789 7.77013 87.5004 7.70363 86.7093 7.70363L86.7079 7.70224ZM100.279 5.76662L99.994 7.34892C99.9497 7.59001 99.7308 7.78815 99.4883 7.78815C98.7844 7.78815 97.8173 7.83248 96.3223 8.5793L94.7608 17.4178C94.7164 17.6603 94.4753 17.8792 94.2329 17.8792H92.21C91.9897 17.8792 91.858 17.7032 91.858 17.5051V17.4164L93.8809 5.91764C93.9253 5.67655 94.1442 5.47842 94.3867 5.47842H96.2987C96.519 5.47842 96.6728 5.63222 96.6728 5.85252V5.91902L96.5842 6.38042C97.8367 5.4133 99.002 5.32462 99.9261 5.32462C100.146 5.32462 100.278 5.47842 100.278 5.67655V5.76384L100.279 5.76662ZM108.325 5.92041L108.105 7.2173C108.061 7.45977 107.82 7.65652 107.577 7.65652H105.599L104.389 14.5594C104.323 14.8891 104.28 15.1524 104.28 15.3284C104.28 15.7246 104.478 15.7898 105.026 15.7898H106.192C106.39 15.7898 106.588 15.8341 106.588 16.053V16.1195L106.345 17.5051C106.301 17.7254 106.147 17.857 105.862 17.9013C105.312 17.9886 104.828 18.0551 104.345 18.0551C102.41 18.0551 101.355 17.3956 101.355 15.6373C101.355 15.3076 101.399 14.9556 101.464 14.5594L102.674 7.65652L100.651 7.34892C100.453 7.32675 100.299 7.19513 100.299 6.97482V6.90832L100.475 5.91902C100.519 5.67794 100.738 5.4798 100.981 5.4798H103.046L103.376 3.67719C103.421 3.43472 103.639 3.28092 103.882 3.23797L105.992 2.88604H106.079C106.255 2.88604 106.387 2.97333 106.387 3.14929V3.2158L105.97 5.4798H107.949C108.169 5.4798 108.323 5.6336 108.323 5.85391V5.92041H108.325ZM118.638 6.49265L116.726 17.4413C116.682 17.6838 116.441 17.8806 116.198 17.8806H114.44C114.197 17.8806 114.088 17.7268 114.088 17.5065V17.44L114.177 16.8026C112.945 17.7475 111.846 18.0551 110.77 18.0551C108.747 18.0551 107.164 16.6917 107.164 14.0758C107.164 13.6795 107.186 13.196 107.274 12.7568C107.274 12.7568 107.45 11.658 107.604 10.8447C108.219 7.41543 110.308 5.32601 113.847 5.32601C115.255 5.32601 116.859 5.54631 118.156 5.89824C118.486 5.98692 118.662 6.05204 118.662 6.31668C118.662 6.38319 118.662 6.42614 118.639 6.49265H118.638ZM113.427 7.70224C111.536 7.70224 110.811 9.04346 110.503 10.8461L110.107 13.1101C110.041 13.4398 110.02 13.7474 110.02 14.0121C110.02 15.2646 110.679 15.6831 111.537 15.6831C112.395 15.6831 113.295 15.3311 114.285 14.7603L115.494 7.85742C115.098 7.77013 114.22 7.70363 113.428 7.70363L113.427 7.70224ZM129.739 10.8017L129.409 12.5822C128.728 16.2096 126.662 18.0565 123.209 18.0565C120.219 18.0565 118.813 15.9463 118.813 13.638C118.813 13.286 118.835 12.9341 118.9 12.5822L119.23 10.8017C119.889 7.19651 121.999 5.32739 125.451 5.32739C128.463 5.32739 129.849 7.35031 129.849 9.65865C129.849 10.0328 129.804 10.4276 129.739 10.8017ZM125.013 7.83387C123.672 7.83387 122.529 8.62502 122.132 10.8017L121.803 12.5822C121.736 12.9341 121.715 13.2639 121.715 13.5493C121.715 14.8462 122.353 15.55 123.65 15.55C125.189 15.55 126.134 14.6259 126.508 12.5822L126.838 10.8017C126.904 10.4498 126.927 10.12 126.927 9.83462C126.927 8.53773 126.311 7.83387 125.014 7.83387H125.013ZM119.105 1.86211C118.663 3.504 117.628 4.32425 116.001 4.32425C115.429 4.32425 114.962 4.15521 114.599 3.81852L113.827 3.09249C113.514 2.78489 113.248 2.6311 113.028 2.6311C112.618 2.6311 112.345 2.8805 112.211 3.3793L112.086 3.84069C112.022 4.07485 111.889 4.19262 111.683 4.19262H110.43C110.225 4.19262 110.154 4.07485 110.217 3.84069L110.341 3.3793C110.783 1.73741 111.825 0.91716 113.467 0.91716C114.053 0.91716 114.516 1.07788 114.854 1.40072L115.626 2.12675C115.928 2.42049 116.197 2.56597 116.431 2.56597C116.841 2.56597 117.111 2.3235 117.241 1.83994L117.366 1.37855C117.43 1.14439 117.563 1.02662 117.769 1.02662H119.022C119.227 1.02662 119.298 1.14439 119.235 1.37855L119.105 1.86211Z" fill="white"/>
</svg>
