<svg width="184" height="430" viewBox="0 0 184 430" fill="none" xmlns="http://www.w3.org/2000/svg">
<g opacity="0.1">
<path d="M4.84888 395.613C2.99703 393.528 0.33535 392.334 -2.4542 392.334H-21.04C-24.7437 392.334 -28.1883 394.483 -29.8057 397.794C-30.297 398.784 -30.6121 399.851 -30.7423 400.964L-32.5145 416.007C-32.9295 419.521 -31.9121 422.859 -29.6486 425.406C-27.3986 427.938 -24.2277 429.334 -20.7203 429.334H-7.99852C-4.72218 429.334 -1.50865 428.074 1.04984 425.787C3.60384 423.504 5.22239 420.451 5.60487 417.191L7.24921 403.246C7.57337 400.479 6.69736 397.697 4.84663 395.614H4.84888V395.613ZM-22.4645 417.189L-20.8224 403.25C-20.7685 402.794 -20.3827 402.451 -19.9239 402.451H-3.85963C-3.31787 402.451 -2.89837 402.923 -2.96118 403.462L-4.44064 416.009C-4.6403 417.717 -6.30146 419.214 -7.99516 419.214H-20.7169C-21.1241 419.214 -21.6916 419.122 -22.0809 418.686C-22.488 418.226 -22.5138 417.618 -22.4633 417.189H-22.4645ZM33.0371 379.33L31.4264 393.003C31.0563 396.139 29.5005 399.073 27.0464 401.265C24.5877 403.463 21.4998 404.672 18.3513 404.672H9.14593C8.9373 404.672 8.77466 404.49 8.79933 404.283L8.89916 403.438C9.24575 400.476 8.41573 397.5 6.61324 395.149C6.42704 394.906 6.60314 394.554 6.90935 394.554H18.3513C19.7915 394.554 21.2059 393.277 21.3775 391.82L22.9871 378.153C23.0264 377.813 23.0107 377.337 22.7056 376.994C22.4162 376.669 21.9754 376.6 21.6568 376.6H9.036C7.57673 376.6 6.34965 377.692 6.17916 379.141L4.61445 392.44C4.58192 392.719 4.2645 392.86 4.03344 392.7C2.14233 391.396 -0.116676 390.676 -2.4542 390.676H-4.97455C-5.18318 390.676 -5.34581 390.494 -5.32114 390.287L-3.15411 371.892C-2.79294 368.809 -0.178364 366.483 2.92749 366.483H21.6568C25.0352 366.483 28.0929 367.829 30.2655 370.272C32.4482 372.724 33.4319 375.942 33.036 379.331H33.0371V379.33Z" fill="#522AF9"/>
<path d="M104.9 395.613C103.048 393.528 100.387 392.334 97.5971 392.334H79.0113C75.3076 392.334 71.863 394.483 70.2456 397.794C69.7543 398.784 69.4391 399.851 69.309 400.964L67.5368 416.007C67.1218 419.521 68.1391 422.859 70.4026 425.406C72.6527 427.938 75.8236 429.334 79.331 429.334H92.0527C95.3291 429.334 98.5426 428.074 101.101 425.787C103.655 423.504 105.274 420.451 105.656 417.191L107.3 403.246C107.625 400.479 106.749 397.697 104.898 395.614H104.9V395.613ZM77.5868 417.189L79.2289 403.25C79.2827 402.794 79.6686 402.451 80.1273 402.451H96.1916C96.7334 402.451 97.1529 402.923 97.0901 403.462L95.6106 416.009C95.411 417.717 93.7498 419.214 92.0561 419.214H79.3343C78.9272 419.214 78.3596 419.122 77.9704 418.686C77.5632 418.226 77.5374 417.618 77.5879 417.189H77.5868ZM133.088 379.33L131.478 393.003C131.108 396.139 129.552 399.073 127.098 401.265C124.639 403.463 121.551 404.672 118.403 404.672H109.197C108.989 404.672 108.826 404.49 108.851 404.283L108.95 403.438C109.297 400.476 108.467 397.5 106.665 395.149C106.478 394.906 106.654 394.554 106.961 394.554H118.403C119.843 394.554 121.257 393.277 121.429 391.82L123.038 378.153C123.078 377.813 123.062 377.337 122.757 376.994C122.467 376.669 122.027 376.6 121.708 376.6H109.087C107.628 376.6 106.401 377.692 106.23 379.141L104.666 392.44C104.633 392.719 104.316 392.86 104.085 392.7C102.194 391.396 99.9346 390.676 97.5971 390.676H95.0767C94.8681 390.676 94.7055 390.494 94.7301 390.287L96.8972 371.892C97.2583 368.809 99.8729 366.483 102.979 366.483H121.708C125.087 366.483 128.144 367.829 130.317 370.272C132.5 372.724 133.483 375.942 133.087 379.331H133.088V379.33Z" fill="#522AF9"/>
<path d="M3.57679 351.813H-9.14835C-11.1808 351.813 -13.1022 353.542 -13.3444 355.59L-15.3186 372.355C-15.7437 375.969 -18.8091 378.694 -22.4489 378.694H-39.6685C-41.4452 378.694 -43.1221 380.206 -43.3318 381.996L-44.9425 395.668C-44.9997 396.14 -44.9683 396.808 -44.5051 397.33C-44.0564 397.834 -43.4249 397.941 -42.9751 397.941H-31.9482C-31.6296 397.941 -31.4109 398.253 -31.5141 398.554C-31.762 399.282 -31.9336 400.038 -32.0244 400.813L-32.6694 406.289C-32.7019 406.562 -32.933 406.768 -33.2078 406.768H-42.9751C-46.1662 406.768 -49.0534 405.499 -51.1026 403.195C-53.1631 400.877 -54.0896 397.838 -53.7116 394.636L-52.102 380.968C-51.7521 377.99 -50.2726 375.199 -47.9362 373.111C-45.5964 371.02 -42.6611 369.868 -39.6696 369.868H-26.2502C-24.9188 369.868 -23.7971 368.871 -23.6423 367.548L-22.1124 354.56C-21.7456 351.454 -20.2022 348.544 -17.766 346.367C-15.3264 344.186 -12.2665 342.986 -9.14947 342.986H3.57567C6.89016 342.986 9.88833 344.303 12.0172 346.696C14.1562 349.102 15.1197 352.259 14.7305 355.588L13.7244 364.109C13.6885 364.411 13.4328 364.639 13.1288 364.639H5.45444C5.09551 364.639 4.81734 364.326 4.85884 363.969L5.96143 354.561C6.0276 354.001 5.9861 353.2 5.41854 352.56C4.87006 351.944 4.11295 351.814 3.57567 351.814H3.57679V351.813Z" fill="#522AF9"/>
<path d="M103.628 351.813H90.9031C88.8706 351.813 86.9493 353.542 86.707 355.59L84.7329 372.355C84.3078 375.969 81.2423 378.694 77.6025 378.694H60.3829C58.6062 378.694 56.9294 380.206 56.7196 381.996L55.1089 395.668C55.0517 396.14 55.0831 396.808 55.5464 397.33C55.995 397.834 56.6265 397.941 57.0763 397.941H68.1033C68.4218 397.941 68.6405 398.253 68.5373 398.554C68.2895 399.282 68.1178 400.038 68.027 400.813L67.382 406.289C67.3495 406.562 67.1184 406.768 66.8436 406.768H57.0763C53.8852 406.768 50.9981 405.499 48.9488 403.195C46.8883 400.877 45.9618 397.838 46.3398 394.636L47.9494 380.968C48.2994 377.99 49.7788 375.199 52.1152 373.111C54.455 371.02 57.3904 369.868 60.3818 369.868H73.8013C75.1327 369.868 76.2543 368.871 76.4091 367.548L77.939 354.56C78.3058 351.454 79.8492 348.544 82.2854 346.367C84.725 344.186 87.7849 342.986 90.902 342.986H103.627C106.942 342.986 109.94 344.303 112.069 346.696C114.208 349.102 115.171 352.259 114.782 355.588L113.776 364.109C113.74 364.411 113.484 364.639 113.18 364.639H105.506C105.147 364.639 104.869 364.326 104.91 363.969L106.013 354.561C106.079 354.001 106.038 353.2 105.47 352.56C104.921 351.944 104.164 351.814 103.627 351.814H103.628V351.813Z" fill="#522AF9"/>
<path d="M65.469 309.266C63.6171 307.181 60.9554 305.986 58.1659 305.986H39.5801C35.8764 305.986 32.4318 308.136 30.8144 311.447C30.3231 312.437 30.0079 313.504 29.8778 314.616L28.1056 329.66C27.6906 333.174 28.7079 336.512 30.9714 339.058C33.2215 341.591 36.3924 342.986 39.8998 342.986H52.6216C55.8979 342.986 59.1114 341.727 61.6699 339.44C64.2239 337.157 65.8425 334.104 66.225 330.843L67.8693 316.899C68.1935 314.132 67.3174 311.35 65.4667 309.267H65.469V309.266ZM38.1556 330.842L39.7977 316.902C39.8516 316.447 40.2374 316.104 40.6962 316.104H56.7605C57.3022 316.104 57.7217 316.576 57.6589 317.114L56.1794 329.662C55.9798 331.369 54.3186 332.867 52.6249 332.867H39.9032C39.496 332.867 38.9284 332.775 38.5392 332.339C38.1321 331.879 38.1063 331.271 38.1567 330.842H38.1556ZM93.6572 292.983L92.0465 306.656C91.6764 309.792 90.1206 312.725 87.6665 314.918C85.2078 317.115 82.1199 318.325 78.9714 318.325H69.766C69.5574 318.325 69.3947 318.143 69.4194 317.935L69.5192 317.091C69.8658 314.129 69.0358 311.153 67.2333 308.802C67.0471 308.558 67.2232 308.207 67.5294 308.207H78.9714C80.4116 308.207 81.826 306.93 81.9976 305.473L83.6072 291.805C83.6465 291.466 83.6308 290.99 83.3257 290.647C83.0363 290.321 82.5955 290.253 82.2769 290.253H69.6561C68.1968 290.253 66.9697 291.344 66.7992 292.794L65.2345 306.093C65.202 306.372 64.8846 306.513 64.6535 306.353C62.7624 305.049 60.5034 304.329 58.1659 304.329H55.6455C55.4369 304.329 55.2743 304.147 55.2989 303.939L57.466 285.544C57.8272 282.462 60.4417 280.136 63.5476 280.136H82.2769C85.6553 280.136 88.713 281.482 90.8856 283.925C93.0683 286.377 94.052 289.595 93.6561 292.984H93.6572V292.983Z" fill="#522AF9"/>
<path d="M64.197 265.465H51.4719C49.4395 265.465 47.5181 267.195 47.2758 269.243L45.3017 286.007C44.8766 289.621 41.8111 292.347 38.1713 292.347H20.9517C19.175 292.347 17.4982 293.859 17.2884 295.649L15.6777 309.321C15.6205 309.793 15.6519 310.461 16.1152 310.983C16.5638 311.487 17.1953 311.593 17.6451 311.593H28.6721C28.9906 311.593 29.2093 311.906 29.1062 312.207C28.8583 312.935 28.6867 313.691 28.5958 314.466L27.9509 319.942C27.9183 320.214 27.6873 320.421 27.4125 320.421H17.6451C14.454 320.421 11.5669 319.152 9.51763 316.848C7.45715 314.53 6.53067 311.491 6.90866 308.289L8.51823 294.621C8.86819 291.643 10.3476 288.852 12.684 286.763C15.0238 284.673 17.9592 283.521 20.9506 283.521H34.3701C35.7015 283.521 36.8231 282.524 36.9779 281.201L38.5078 268.212C38.8746 265.107 40.418 262.197 42.8542 260.02C45.2938 257.839 48.3537 256.639 51.4708 256.639H64.1959C67.5104 256.639 70.5086 257.956 72.6375 260.348C74.7765 262.754 75.74 265.912 75.3507 269.241L74.3446 277.762C74.3087 278.064 74.053 278.292 73.749 278.292H66.0747C65.7157 278.292 65.4376 277.979 65.4791 277.622L66.5817 268.213C66.6478 267.654 66.6063 266.853 66.0388 266.212C65.4903 265.597 64.7332 265.467 64.1959 265.467H64.197V265.465Z" fill="#522AF9"/>
<path d="M26.0376 222.871C24.1858 220.786 21.5241 219.591 18.7345 219.591H0.148751C-3.55494 219.591 -6.99953 221.74 -8.61696 225.051C-9.10824 226.042 -9.42342 227.108 -9.55353 228.221L-11.3257 243.265C-11.7408 246.779 -10.7234 250.117 -8.45992 252.663C-6.20989 255.196 -3.03898 256.591 0.468423 256.591H13.1902C16.4665 256.591 19.6801 255.331 22.2386 253.044C24.7926 250.762 26.4111 247.709 26.7936 244.448L28.4379 230.503C28.7621 227.736 27.8861 224.955 26.0354 222.872H26.0376V222.871ZM-1.27574 244.447L0.366352 230.507C0.420192 230.051 0.806041 229.708 1.2648 229.708H17.3291C17.8709 229.708 18.2903 230.18 18.2275 230.719L16.7481 243.267C16.5484 244.974 14.8873 246.471 13.1936 246.471H0.471787C0.0646276 246.471 -0.502928 246.379 -0.892141 245.943C-1.2993 245.483 -1.3251 244.875 -1.27462 244.447H-1.27574ZM54.2258 206.588L52.6151 220.261C52.245 223.397 50.6893 226.33 48.2351 228.523C45.7764 230.72 42.6885 231.929 39.54 231.929H30.3346C30.126 231.929 29.9634 231.747 29.9881 231.54L30.0879 230.695C30.4345 227.733 29.6045 224.757 27.802 222.406C27.6158 222.163 27.7919 221.812 28.0981 221.812H39.54C40.9802 221.812 42.3946 220.534 42.5663 219.077L44.1758 205.41C44.2151 205.07 44.1994 204.594 43.8943 204.251C43.6049 203.926 43.1641 203.858 42.8456 203.858H30.2247C28.7655 203.858 27.5384 204.949 27.3679 206.398L25.8032 219.698C25.7706 219.977 25.4532 220.117 25.2222 219.958C23.3311 218.653 21.072 217.933 18.7345 217.933H16.2142C16.0055 217.933 15.8429 217.751 15.8676 217.544L18.0346 199.149C18.3958 196.067 21.0104 193.74 24.1162 193.74H42.8456C46.224 193.74 49.2816 195.086 51.4542 197.529C53.637 199.981 54.6207 203.199 54.2247 206.589H54.2258V206.588Z" fill="#522AF9"/>
<path d="M24.7657 179.07H12.0406C10.0081 179.07 8.08673 180.8 7.84446 182.848L5.87035 199.612C5.44524 203.226 2.37977 205.952 -1.25999 205.952H-18.4796C-20.2563 205.952 -21.9332 207.464 -22.1429 209.254L-23.7536 222.926C-23.8108 223.398 -23.7794 224.065 -23.3162 224.588C-22.8675 225.092 -22.236 225.198 -21.7862 225.198H-10.7593C-10.4407 225.198 -10.222 225.511 -10.3252 225.812C-10.5731 226.54 -10.7447 227.296 -10.8355 228.071L-11.4805 233.547C-11.513 233.819 -11.7441 234.026 -12.0189 234.026H-21.7862C-24.9773 234.026 -27.8645 232.757 -29.9137 230.453C-31.9742 228.135 -32.9007 225.096 -32.5227 221.894L-30.9131 208.226C-30.5631 205.248 -29.0837 202.457 -26.7473 200.368C-24.4075 198.278 -21.4722 197.126 -18.4807 197.126H-5.06127C-3.72987 197.126 -2.60822 196.129 -2.45343 194.806L-0.923496 181.817C-0.556717 178.711 0.986675 175.802 3.4229 173.625C5.8625 171.444 8.92236 170.244 12.0394 170.244H24.7646C28.0791 170.244 31.0772 171.561 33.2061 173.953C35.3451 176.359 36.3086 179.517 35.9194 182.846L34.9133 191.367C34.8774 191.669 34.6217 191.897 34.3177 191.897H26.6433C26.2844 191.897 26.0062 191.584 26.0477 191.227L27.1503 181.818C27.2165 181.259 27.175 180.458 26.6074 179.817C26.059 179.202 25.3018 179.072 24.7646 179.072H24.7657V179.07Z" fill="#522AF9"/>
<path d="M-13.3936 136.524C-15.2454 134.439 -17.9071 133.244 -20.6966 133.244H-39.2824C-42.9861 133.244 -46.4307 135.393 -48.0481 138.704C-48.5394 139.695 -48.8546 140.762 -48.9847 141.874L-50.7569 156.918C-51.1719 160.432 -50.1546 163.77 -47.8911 166.316C-45.641 168.849 -42.4701 170.244 -38.9627 170.244H-26.241C-22.9646 170.244 -19.7511 168.985 -17.1926 166.698C-14.6386 164.415 -13.02 161.362 -12.6376 158.101L-10.9932 144.157C-10.6691 141.39 -11.5451 138.608 -13.3958 136.525H-13.3936V136.524ZM-40.7069 158.1L-39.0648 144.16C-39.011 143.705 -38.6251 143.362 -38.1664 143.362H-22.1021C-21.5603 143.362 -21.1408 143.834 -21.2036 144.372L-22.6831 156.92C-22.8827 158.627 -24.5439 160.125 -26.2376 160.125H-38.9594C-39.3665 160.125 -39.9341 160.033 -40.3233 159.596C-40.7305 159.136 -40.7563 158.529 -40.7058 158.1H-40.7069ZM14.7947 120.241L13.184 133.914C12.8138 137.05 11.2581 139.983 8.80394 142.176C6.34528 144.373 3.25737 145.582 0.108894 145.582H-9.0965C-9.30513 145.582 -9.46777 145.401 -9.4431 145.193L-9.34327 144.349C-8.99668 141.386 -9.8267 138.411 -11.6292 136.06C-11.8154 135.816 -11.6393 135.465 -11.3331 135.465H0.108894C1.5491 135.465 2.96349 134.188 3.13511 132.731L4.74467 119.063C4.78393 118.723 4.76823 118.248 4.46315 117.905C4.17376 117.579 3.73294 117.511 3.4144 117.511H-9.20643C-10.6657 117.511 -11.8928 118.602 -12.0633 120.051L-13.628 133.351C-13.6605 133.63 -13.9779 133.77 -14.209 133.611C-16.1001 132.307 -18.3591 131.586 -20.6966 131.586H-23.217C-23.4256 131.586 -23.5882 131.405 -23.5636 131.197L-21.3965 112.802C-21.0354 109.72 -18.4208 107.394 -15.3149 107.394H3.4144C6.79281 107.394 9.85044 108.74 12.0231 111.182C14.2058 113.634 15.1895 116.852 14.7936 120.242H14.7947V120.241Z" fill="#522AF9"/>
<path d="M86.6578 136.524C84.806 134.439 82.1443 133.244 79.3548 133.244H60.769C57.0653 133.244 53.6207 135.393 52.0033 138.704C51.512 139.695 51.1968 140.762 51.0667 141.874L49.2945 156.918C48.8795 160.432 49.8968 163.77 52.1603 166.316C54.4103 168.849 57.5813 170.244 61.0887 170.244H73.8104C77.0868 170.244 80.3003 168.985 82.8588 166.698C85.4128 164.415 87.0313 161.362 87.4138 158.101L89.0582 144.157C89.3823 141.39 88.5063 138.608 86.6556 136.525H86.6578V136.524ZM59.3445 158.1L60.9866 144.16C61.0404 143.705 61.4263 143.362 61.885 143.362H77.9493C78.4911 143.362 78.9106 143.834 78.8478 144.372L77.3683 156.92C77.1687 158.627 75.5075 160.125 73.8138 160.125H61.092C60.6849 160.125 60.1173 160.033 59.7281 159.596C59.3209 159.136 59.2951 158.529 59.3456 158.1H59.3445ZM114.846 120.241L113.235 133.914C112.865 137.05 111.31 139.983 108.855 142.176C106.397 144.373 103.309 145.582 100.16 145.582H90.9549C90.7463 145.582 90.5836 145.401 90.6083 145.193L90.7081 144.349C91.0547 141.386 90.2247 138.411 88.4222 136.06C88.236 135.816 88.4121 135.465 88.7183 135.465H100.16C101.6 135.465 103.015 134.188 103.186 132.731L104.796 119.063C104.835 118.723 104.82 118.248 104.515 117.905C104.225 117.579 103.784 117.511 103.466 117.511H90.845C89.3857 117.511 88.1586 118.602 87.9881 120.051L86.4234 133.351C86.3909 133.63 86.0735 133.77 85.8424 133.611C83.9513 132.307 81.6923 131.586 79.3548 131.586H76.8344C76.6258 131.586 76.4631 131.405 76.4878 131.197L78.6549 112.802C79.016 109.72 81.6306 107.394 84.7365 107.394H103.466C106.844 107.394 109.902 108.74 112.074 111.182C114.257 113.634 115.241 116.852 114.845 120.242H114.846V120.241Z" fill="#522AF9"/>
<path d="M85.3858 92.7233H72.6606C70.6282 92.7233 68.7068 94.4528 68.4645 96.501L66.4904 113.265C66.0653 116.879 62.9998 119.605 59.3601 119.605H42.1405C40.3638 119.605 38.6869 121.117 38.4772 122.907L36.8665 136.579C36.8093 137.051 36.8407 137.718 37.3039 138.241C37.7526 138.745 38.3841 138.851 38.8338 138.851H49.8608C50.1793 138.851 50.3981 139.164 50.2949 139.465C50.047 140.193 49.8754 140.949 49.7845 141.724L49.1396 147.2C49.107 147.472 48.876 147.679 48.6012 147.679H38.8338C35.6427 147.679 32.7556 146.41 30.7063 144.106C28.6459 141.788 27.7194 138.749 28.0974 135.547L29.707 121.878C30.0569 118.9 31.5364 116.11 33.8728 114.021C36.2125 111.93 39.1479 110.778 42.1393 110.778H55.5588C56.8902 110.778 58.0118 109.781 58.1666 108.459L59.6966 95.4702C60.0633 92.3643 61.6067 89.4548 64.043 87.2776C66.4826 85.0971 69.5424 83.897 72.6595 83.897H85.3846C88.6991 83.897 91.6973 85.2138 93.8262 87.6063C95.9652 90.0122 96.9287 93.1697 96.5395 96.4987L95.5333 105.02C95.4975 105.322 95.2417 105.549 94.9377 105.549H87.2634C86.9045 105.549 86.6263 105.236 86.6678 104.88L87.7704 95.4713C87.8366 94.9116 87.7951 94.1107 87.2275 93.4703C86.679 92.8545 85.9219 92.7244 85.3846 92.7244H85.3858V92.7233Z" fill="#522AF9"/>
<path d="M55.2157 53.0992C53.3638 51.014 50.7021 49.8195 47.9126 49.8195H29.3268C25.6231 49.8195 22.1785 51.9685 20.5611 55.2797C20.0698 56.2701 19.7546 57.3368 19.6245 58.4495L17.8523 73.493C17.4373 77.0072 18.4547 80.3452 20.7181 82.8914C22.9682 85.4241 26.1391 86.8194 29.6465 86.8194H42.3683C45.6446 86.8194 48.8581 85.5598 51.4166 83.2727C53.9706 80.9902 55.5892 77.937 55.9717 74.6764L57.616 60.732C57.9402 57.9649 57.0641 55.1832 55.2134 53.1003H55.2157V53.0992ZM27.9023 74.6753L29.5444 60.7354C29.5983 60.28 29.9841 59.9368 30.4429 59.9368H46.5072C47.0489 59.9368 47.4684 60.409 47.4056 60.9474L45.9261 73.4953C45.7265 75.2024 44.0653 76.6998 42.3716 76.6998H29.6499C29.2427 76.6998 28.6751 76.6079 28.2859 76.1716C27.8788 75.7117 27.853 75.1037 27.9034 74.6753H27.9023ZM83.4039 36.8161L81.7932 50.4891C81.4231 53.6252 79.8673 56.5583 77.4132 58.7512C74.9545 60.9485 71.8666 62.1576 68.7181 62.1576H59.5127C59.3041 62.1576 59.1414 61.9759 59.1661 61.7684L59.266 60.9238C59.6125 57.9615 58.7825 54.9858 56.98 52.6348C56.7938 52.3914 56.9699 52.0403 57.2761 52.0403H68.7181C70.1583 52.0403 71.5727 50.7628 71.7443 49.3057L73.3539 35.6384C73.3932 35.2986 73.3775 34.823 73.0724 34.4798C72.783 34.1545 72.3422 34.0861 72.0236 34.0861H59.4028C57.9435 34.0861 56.7164 35.1774 56.5459 36.6266L54.9812 49.926C54.9487 50.2053 54.6313 50.3455 54.4002 50.1862C52.5091 48.8818 50.2501 48.1617 47.9126 48.1617H45.3922C45.1836 48.1617 45.021 47.98 45.0457 47.7724L47.2127 29.3774C47.5739 26.2951 50.1884 23.9688 53.2943 23.9688H72.0236C75.402 23.9688 78.4597 25.3147 80.6323 27.7577C82.815 30.2096 83.7987 33.4276 83.4028 36.8173H83.4039V36.8161Z" fill="#522AF9"/>
<path d="M155.267 53.0992C153.415 51.014 150.754 49.8195 147.964 49.8195H129.378C125.674 49.8195 122.23 51.9685 120.612 55.2797C120.121 56.2701 119.806 57.3368 119.676 58.4495L117.904 73.493C117.489 77.0072 118.506 80.3452 120.77 82.8914C123.02 85.4241 126.19 86.8194 129.698 86.8194H142.42C145.696 86.8194 148.91 85.5598 151.468 83.2727C154.022 80.9902 155.641 77.937 156.023 74.6764L157.667 60.732C157.992 57.9649 157.116 55.1832 155.265 53.1003H155.267V53.0992ZM127.954 74.6753L129.596 60.7354C129.65 60.28 130.035 59.9368 130.494 59.9368H146.559C147.1 59.9368 147.52 60.409 147.457 60.9474L145.978 73.4953C145.778 75.2024 144.117 76.6998 142.423 76.6998H129.701C129.294 76.6998 128.727 76.6079 128.337 76.1716C127.93 75.7117 127.904 75.1037 127.955 74.6753H127.954ZM183.455 36.8161L181.845 50.4891C181.474 53.6252 179.919 56.5583 177.465 58.7512C175.006 60.9485 171.918 62.1576 168.769 62.1576H159.564C159.355 62.1576 159.193 61.9759 159.217 61.7684L159.317 60.9238C159.664 57.9615 158.834 54.9858 157.031 52.6348C156.845 52.3914 157.021 52.0403 157.328 52.0403H168.769C170.21 52.0403 171.624 50.7628 171.796 49.3057L173.405 35.6384C173.445 35.2986 173.429 34.823 173.124 34.4798C172.834 34.1545 172.394 34.0861 172.075 34.0861H159.454C157.995 34.0861 156.768 35.1774 156.597 36.6266L155.033 49.926C155 50.2053 154.683 50.3455 154.452 50.1862C152.56 48.8818 150.301 48.1617 147.964 48.1617H145.444C145.235 48.1617 145.072 47.98 145.097 47.7724L147.264 29.3774C147.625 26.2951 150.24 23.9688 153.346 23.9688H172.075C175.453 23.9688 178.511 25.3147 180.684 27.7577C182.866 30.2096 183.85 33.4276 183.454 36.8173H183.455V36.8161Z" fill="#522AF9"/>
<path d="M53.9437 9.29893H41.2186C39.1862 9.29893 37.2648 11.0285 37.0225 13.0767L35.0484 29.8409C34.6233 33.4548 31.5578 36.1804 27.918 36.1804H10.6984C8.92175 36.1804 7.24488 37.6924 7.03513 39.4826L5.42444 53.1544C5.36724 53.6266 5.39864 54.294 5.86189 54.8167C6.31055 55.3203 6.94204 55.4269 7.39182 55.4269H18.4188C18.7373 55.4269 18.956 55.7398 18.8529 56.0404C18.605 56.7684 18.4334 57.5244 18.3425 58.2994L17.6976 63.7753C17.665 64.0479 17.434 64.2543 17.1592 64.2543H7.39182C4.20072 64.2543 1.31359 62.9857 -0.73567 60.6818C-2.79614 58.3633 -3.72263 55.3248 -3.34463 52.1225L-1.73506 38.454C-1.38511 35.476 0.094352 32.6854 2.43075 30.5969C4.77052 28.5061 7.70588 27.3542 10.6973 27.3542H24.1168C25.4482 27.3542 26.5698 26.357 26.7246 25.0346L28.2545 12.0459C28.6213 8.94001 30.1647 6.03044 32.6009 3.85332C35.0405 1.67282 38.1004 0.472656 41.2175 0.472656H53.9426C57.2571 0.472656 60.2553 1.78948 62.3842 4.18196C64.5232 6.5879 65.4867 9.74535 65.0974 13.0744L64.0913 21.5956C64.0554 21.8973 63.7997 22.125 63.4957 22.125H55.8214C55.4625 22.125 55.1843 21.8121 55.2258 21.4554L56.3284 12.047C56.3945 11.4873 56.353 10.6864 55.7855 10.046C55.237 9.43017 54.4799 9.30006 53.9426 9.30006H53.9437V9.29893Z" fill="#522AF9"/>
<path d="M153.995 9.29893H141.27C139.237 9.29893 137.316 11.0285 137.074 13.0767L135.1 29.8409C134.675 33.4548 131.609 36.1804 127.969 36.1804H110.75C108.973 36.1804 107.296 37.6924 107.086 39.4826L105.476 53.1544C105.419 53.6266 105.45 54.294 105.913 54.8167C106.362 55.3203 106.993 55.4269 107.443 55.4269H118.47C118.789 55.4269 119.007 55.7398 118.904 56.0404C118.656 56.7684 118.485 57.5244 118.394 58.2994L117.749 63.7753C117.716 64.0479 117.485 64.2543 117.21 64.2543H107.443C104.252 64.2543 101.365 62.9857 99.3156 60.6818C97.2552 58.3633 96.3287 55.3248 96.7067 52.1225L98.3162 38.454C98.6662 35.476 100.146 32.6854 102.482 30.5969C104.822 28.5061 107.757 27.3542 110.749 27.3542H124.168C125.499 27.3542 126.621 26.357 126.776 25.0346L128.306 12.0459C128.673 8.94001 130.216 6.03044 132.652 3.85332C135.092 1.67282 138.152 0.472656 141.269 0.472656H153.994C157.308 0.472656 160.307 1.78948 162.435 4.18196C164.574 6.5879 165.538 9.74535 165.149 13.0744L164.143 21.5956C164.107 21.8973 163.851 22.125 163.547 22.125H155.873C155.514 22.125 155.236 21.8121 155.277 21.4554L156.38 12.047C156.446 11.4873 156.404 10.6864 155.837 10.046C155.288 9.43017 154.531 9.30006 153.994 9.30006H153.995V9.29893Z" fill="#522AF9"/>
</g>
</svg>
