<svg width="83" height="83" viewBox="0 0 83 83" fill="none" xmlns="http://www.w3.org/2000/svg">
<circle cx="41.1969" cy="41.3125" r="40.8706" fill="#522AF9"/>
<path d="M45.366 40.3036L51.077 28.5321C51.534 27.6353 52.3335 27.0747 53.3615 27.0747H56.6739C58.0446 27.0747 58.5015 27.8595 57.9304 29.2048L54.1611 40.4157H57.702C59.4153 40.4157 60.329 41.3126 60.329 42.9942V53.084C60.329 54.7657 59.301 55.5505 57.4735 55.5505H47.422C45.4802 55.5505 44.5665 54.7657 44.5665 53.084V43.6669C44.5665 42.5458 44.7949 41.4247 45.366 40.3036ZM22.7501 40.3036L28.4611 28.5321C28.9181 27.6353 29.7176 27.0747 30.7456 27.0747H34.058C35.4287 27.0747 35.8856 27.8595 35.4287 29.2048L31.5452 40.4157H35.086C36.7994 40.4157 37.7131 41.3126 37.7131 42.9942V53.084C37.7131 54.7657 36.7994 55.5505 34.9718 55.5505H24.8061C22.9785 55.5505 22.0647 54.7657 22.0647 53.084V43.6669C22.0647 42.4337 22.2932 41.3126 22.7501 40.3036Z" fill="#73CBD9"/>
</svg>
