<svg width="569" height="430" viewBox="0 0 569 430" fill="none" xmlns="http://www.w3.org/2000/svg">
<g opacity="0.1">
<path d="M237.631 395.596C235.779 393.511 233.117 392.316 230.328 392.316H211.742C208.038 392.316 204.594 394.465 202.976 397.776C202.485 398.767 202.17 399.833 202.04 400.946L200.268 415.99C199.853 419.504 200.87 422.842 203.133 425.388C205.383 427.921 208.554 429.316 212.062 429.316H224.784C228.06 429.316 231.273 428.056 233.832 425.769C236.386 423.487 238.004 420.434 238.387 417.173L240.031 403.229C240.355 400.461 239.479 397.68 237.629 395.597H237.631V395.596ZM210.318 417.172L211.96 403.232C212.014 402.777 212.399 402.433 212.858 402.433H228.922C229.464 402.433 229.884 402.906 229.821 403.444L228.341 415.992C228.142 417.699 226.481 419.196 224.787 419.196H212.065C211.658 419.196 211.09 419.104 210.701 418.668C210.294 418.208 210.268 417.6 210.319 417.172H210.318ZM265.819 379.313L264.209 392.986C263.838 396.122 262.283 399.055 259.828 401.248C257.37 403.445 254.282 404.654 251.133 404.654H241.928C241.719 404.654 241.557 404.473 241.581 404.265L241.681 403.42C242.028 400.458 241.198 397.482 239.395 395.131C239.209 394.888 239.385 394.537 239.691 394.537H251.133C252.574 394.537 253.988 393.259 254.16 391.802L255.769 378.135C255.808 377.795 255.793 377.32 255.488 376.976C255.198 376.651 254.757 376.583 254.439 376.583H241.818C240.359 376.583 239.132 377.674 238.961 379.123L237.397 392.423C237.364 392.702 237.047 392.842 236.816 392.683C234.924 391.378 232.665 390.658 230.328 390.658H227.808C227.599 390.658 227.436 390.477 227.461 390.269L229.628 371.874C229.989 368.792 232.604 366.465 235.71 366.465H254.439C257.817 366.465 260.875 367.811 263.048 370.254C265.23 372.706 266.214 375.924 265.818 379.314H265.819V379.313Z" fill="#522AF9"/>
<path d="M337.682 395.596C335.831 393.511 333.169 392.316 330.379 392.316H311.794C308.09 392.316 304.645 394.465 303.028 397.776C302.537 398.767 302.221 399.833 302.091 400.946L300.319 415.99C299.904 419.504 300.921 422.842 303.185 425.388C305.435 427.921 308.606 429.316 312.113 429.316H324.835C328.111 429.316 331.325 428.056 333.883 425.769C336.437 423.487 338.056 420.434 338.438 417.173L340.083 403.229C340.407 400.461 339.531 397.68 337.68 395.597H337.682V395.596ZM310.369 417.172L312.011 403.232C312.065 402.777 312.451 402.433 312.91 402.433H328.974C329.516 402.433 329.935 402.906 329.872 403.444L328.393 415.992C328.193 417.699 326.532 419.196 324.838 419.196H312.117C311.709 419.196 311.142 419.104 310.753 418.668C310.345 418.208 310.32 417.6 310.37 417.172H310.369ZM365.871 379.313L364.26 392.986C363.89 396.122 362.334 399.055 359.88 401.248C357.421 403.445 354.333 404.654 351.185 404.654H341.979C341.771 404.654 341.608 404.473 341.633 404.265L341.733 403.42C342.079 400.458 341.249 397.482 339.447 395.131C339.261 394.888 339.437 394.537 339.743 394.537H351.185C352.625 394.537 354.039 393.259 354.211 391.802L355.821 378.135C355.86 377.795 355.844 377.32 355.539 376.976C355.25 376.651 354.809 376.583 354.49 376.583H341.869C340.41 376.583 339.183 377.674 339.013 379.123L337.448 392.423C337.415 392.702 337.098 392.842 336.867 392.683C334.976 391.378 332.717 390.658 330.379 390.658H327.859C327.65 390.658 327.488 390.477 327.512 390.269L329.679 371.874C330.041 368.792 332.655 366.465 335.761 366.465H354.49C357.869 366.465 360.926 367.811 363.099 370.254C365.282 372.706 366.265 375.924 365.869 379.314H365.871V379.313Z" fill="#522AF9"/>
<path d="M437.734 395.596C435.882 393.511 433.22 392.316 430.431 392.316H411.845C408.141 392.316 404.697 394.465 403.079 397.776C402.588 398.767 402.273 399.833 402.143 400.946L400.37 415.99C399.955 419.504 400.973 422.842 403.236 425.388C405.486 427.921 408.657 429.316 412.164 429.316H424.886C428.163 429.316 431.376 428.056 433.935 425.769C436.489 423.487 438.107 420.434 438.49 417.173L440.134 403.229C440.458 400.461 439.582 397.68 437.731 395.597H437.734V395.596ZM410.42 417.172L412.062 403.232C412.116 402.777 412.502 402.433 412.961 402.433H429.025C429.567 402.433 429.986 402.906 429.924 403.444L428.444 415.992C428.244 417.699 426.583 419.196 424.89 419.196H412.168C411.761 419.196 411.193 419.104 410.804 418.668C410.397 418.208 410.371 417.6 410.421 417.172H410.42ZM465.922 379.313L464.311 392.986C463.941 396.122 462.385 399.055 459.931 401.248C457.472 403.445 454.385 404.654 451.236 404.654H442.031C441.822 404.654 441.659 404.473 441.684 404.265L441.784 403.42C442.131 400.458 441.3 397.482 439.498 395.131C439.312 394.888 439.488 394.537 439.794 394.537H451.236C452.676 394.537 454.091 393.259 454.262 391.802L455.872 378.135C455.911 377.795 455.895 377.32 455.59 376.976C455.301 376.651 454.86 376.583 454.542 376.583H441.921C440.461 376.583 439.234 377.674 439.064 379.123L437.499 392.423C437.467 392.702 437.149 392.842 436.918 392.683C435.027 391.378 432.768 390.658 430.431 390.658H427.91C427.702 390.658 427.539 390.477 427.564 390.269L429.731 371.874C430.092 368.792 432.706 366.465 435.812 366.465H454.542C457.92 366.465 460.978 367.811 463.15 370.254C465.333 372.706 466.317 375.924 465.921 379.314H465.922V379.313Z" fill="#522AF9"/>
<path d="M236.359 351.796H223.634C221.601 351.796 219.68 353.525 219.438 355.573L217.464 372.337C217.039 375.951 213.973 378.677 210.333 378.677H193.114C191.337 378.677 189.66 380.189 189.45 381.979L187.84 395.651C187.783 396.123 187.814 396.791 188.277 397.313C188.726 397.817 189.357 397.923 189.807 397.923H200.834C201.153 397.923 201.371 398.236 201.268 398.537C201.02 399.265 200.849 400.021 200.758 400.796L200.113 406.272C200.08 406.544 199.849 406.751 199.574 406.751H189.807C186.616 406.751 183.729 405.482 181.68 403.178C179.619 400.86 178.693 397.821 179.071 394.619L180.68 380.951C181.03 377.973 182.51 375.182 184.846 373.093C187.186 371.003 190.121 369.851 193.113 369.851H206.532C207.863 369.851 208.985 368.854 209.14 367.531L210.67 354.542C211.037 351.437 212.58 348.527 215.016 346.35C217.456 344.169 220.516 342.969 223.633 342.969H236.358C239.672 342.969 242.671 344.286 244.799 346.679C246.938 349.084 247.902 352.242 247.513 355.571L246.507 364.092C246.471 364.394 246.215 364.622 245.911 364.622H238.237C237.878 364.622 237.6 364.309 237.641 363.952L238.744 354.544C238.81 353.984 238.768 353.183 238.201 352.543C237.652 351.927 236.895 351.797 236.358 351.797H236.359V351.796Z" fill="#522AF9"/>
<path d="M336.41 351.796H323.685C321.653 351.796 319.731 353.525 319.489 355.573L317.515 372.337C317.09 375.951 314.024 378.677 310.385 378.677H293.165C291.388 378.677 289.711 380.189 289.502 381.979L287.891 395.651C287.834 396.123 287.865 396.791 288.328 397.313C288.777 397.817 289.409 397.923 289.858 397.923H300.885C301.204 397.923 301.423 398.236 301.319 398.537C301.072 399.265 300.9 400.021 300.809 400.796L300.164 406.272C300.132 406.544 299.901 406.751 299.626 406.751H289.858C286.667 406.751 283.78 405.482 281.731 403.178C279.67 400.86 278.744 397.821 279.122 394.619L280.732 380.951C281.082 377.973 282.561 375.182 284.897 373.093C287.237 371.003 290.172 369.851 293.164 369.851H306.583C307.915 369.851 309.036 368.854 309.191 367.531L310.721 354.542C311.088 351.437 312.631 348.527 315.068 346.35C317.507 344.169 320.567 342.969 323.684 342.969H336.409C339.724 342.969 342.722 344.286 344.851 346.679C346.99 349.084 347.953 352.242 347.564 355.571L346.558 364.092C346.522 364.394 346.266 364.622 345.962 364.622H338.288C337.929 364.622 337.651 364.309 337.692 363.952L338.795 354.544C338.861 353.984 338.82 353.183 338.252 352.543C337.704 351.927 336.947 351.797 336.409 351.797H336.41V351.796Z" fill="#522AF9"/>
<path d="M436.462 351.796H423.737C421.704 351.796 419.783 353.525 419.541 355.573L417.566 372.337C417.141 375.951 414.076 378.677 410.436 378.677H393.216C391.44 378.677 389.763 380.189 389.553 381.979L387.942 395.651C387.885 396.123 387.917 396.791 388.38 397.313C388.829 397.817 389.46 397.923 389.91 397.923H400.937C401.255 397.923 401.474 398.236 401.371 398.537C401.123 399.265 400.951 400.021 400.861 400.796L400.216 406.272C400.183 406.544 399.952 406.751 399.677 406.751H389.91C386.719 406.751 383.832 405.482 381.782 403.178C379.722 400.86 378.795 397.821 379.173 394.619L380.783 380.951C381.133 377.973 382.612 375.182 384.949 373.093C387.289 371.003 390.224 369.851 393.215 369.851H406.635C407.966 369.851 409.088 368.854 409.243 367.531L410.773 354.542C411.139 351.437 412.683 348.527 415.119 346.35C417.559 344.169 420.618 342.969 423.735 342.969H436.461C439.775 342.969 442.773 344.286 444.902 346.679C447.041 349.084 448.005 352.242 447.615 355.571L446.609 364.092C446.573 364.394 446.318 364.622 446.014 364.622H438.339C437.98 364.622 437.702 364.309 437.744 363.952L438.846 354.544C438.913 353.984 438.871 353.183 438.303 352.543C437.755 351.927 436.998 351.797 436.461 351.797H436.462V351.796Z" fill="#522AF9"/>
<path d="M98.1484 309.249C96.2965 307.163 93.6348 305.969 90.8453 305.969H72.2595C68.5558 305.969 65.1112 308.118 63.4938 311.429C63.0025 312.419 62.6874 313.486 62.5572 314.599L60.785 329.642C60.37 333.157 61.3874 336.495 63.6509 339.041C65.9009 341.573 69.0718 342.969 72.5792 342.969H85.301C88.5773 342.969 91.7909 341.709 94.3493 339.422C96.9033 337.14 98.5219 334.086 98.9044 330.826L100.549 316.881C100.873 314.114 99.9969 311.333 98.1461 309.25H98.1484V309.249ZM70.835 330.825L72.4771 316.885C72.531 316.429 72.9168 316.086 73.3756 316.086H89.4399C89.9816 316.086 90.4011 316.558 90.3383 317.097L88.8589 329.645C88.6592 331.352 86.998 332.849 85.3043 332.849H72.5826C72.1754 332.849 71.6079 332.757 71.2186 332.321C70.8115 331.861 70.7857 331.253 70.8362 330.825H70.835ZM126.337 292.966L124.726 306.639C124.356 309.775 122.8 312.708 120.346 314.901C117.887 317.098 114.799 318.307 111.651 318.307H102.445C102.237 318.307 102.074 318.125 102.099 317.918L102.199 317.073C102.545 314.111 101.715 311.135 99.9127 308.784C99.7265 308.541 99.9026 308.19 100.209 308.19H111.651C113.091 308.19 114.505 306.912 114.677 305.455L116.287 291.788C116.326 291.448 116.31 290.972 116.005 290.629C115.716 290.304 115.275 290.235 114.956 290.235H102.335C100.876 290.235 99.6491 291.327 99.4787 292.776L97.914 306.075C97.8814 306.355 97.564 306.495 97.3329 306.336C95.4418 305.031 93.1828 304.311 90.8453 304.311H88.325C88.1163 304.311 87.9537 304.129 87.9784 303.922L90.1454 285.527C90.5066 282.444 93.1211 280.118 96.227 280.118H114.956C118.335 280.118 121.392 281.464 123.565 283.907C125.748 286.359 126.731 289.577 126.335 292.967H126.337V292.966Z" fill="#522AF9"/>
<path d="M198.2 309.249C196.348 307.163 193.686 305.969 190.897 305.969H172.311C168.607 305.969 165.163 308.118 163.545 311.429C163.054 312.419 162.739 313.486 162.609 314.599L160.836 329.642C160.421 333.157 161.439 336.495 163.702 339.041C165.952 341.573 169.123 342.969 172.631 342.969H185.352C188.629 342.969 191.842 341.709 194.401 339.422C196.955 337.14 198.573 334.086 198.956 330.826L200.6 316.881C200.924 314.114 200.048 311.333 198.198 309.25H198.2V309.249ZM170.886 330.825L172.529 316.885C172.582 316.429 172.968 316.086 173.427 316.086H189.491C190.033 316.086 190.453 316.558 190.39 317.097L188.91 329.645C188.711 331.352 187.049 332.849 185.356 332.849H172.634C172.227 332.849 171.659 332.757 171.27 332.321C170.863 331.861 170.837 331.253 170.888 330.825H170.886ZM226.388 292.966L224.777 306.639C224.407 309.775 222.851 312.708 220.397 314.901C217.939 317.098 214.851 318.307 211.702 318.307H202.497C202.288 318.307 202.126 318.125 202.15 317.918L202.25 317.073C202.597 314.111 201.767 311.135 199.964 308.784C199.778 308.541 199.954 308.19 200.26 308.19H211.702C213.142 308.19 214.557 306.912 214.728 305.455L216.338 291.788C216.377 291.448 216.362 290.972 216.056 290.629C215.767 290.304 215.326 290.235 215.008 290.235H202.387C200.928 290.235 199.701 291.327 199.53 292.776L197.965 306.075C197.933 306.355 197.615 306.495 197.384 306.336C195.493 305.031 193.234 304.311 190.897 304.311H188.376C188.168 304.311 188.005 304.129 188.03 303.922L190.197 285.527C190.558 282.444 193.173 280.118 196.278 280.118H215.008C218.386 280.118 221.444 281.464 223.616 283.907C225.799 286.359 226.783 289.577 226.387 292.967H226.388V292.966Z" fill="#522AF9"/>
<path d="M298.251 309.249C296.399 307.163 293.738 305.969 290.948 305.969H272.362C268.659 305.969 265.214 308.118 263.597 311.429C263.105 312.419 262.79 313.486 262.66 314.599L260.888 329.642C260.473 333.157 261.49 336.495 263.754 339.041C266.004 341.573 269.175 342.969 272.682 342.969H285.404C288.68 342.969 291.894 341.709 294.452 339.422C297.006 337.14 298.625 334.086 299.007 330.826L300.652 316.881C300.976 314.114 300.1 311.333 298.249 309.25H298.251V309.249ZM270.938 330.825L272.58 316.885C272.634 316.429 273.02 316.086 273.478 316.086H289.543C290.084 316.086 290.504 316.558 290.441 317.097L288.962 329.645C288.762 331.352 287.101 332.849 285.407 332.849H272.685C272.278 332.849 271.711 332.757 271.321 332.321C270.914 331.861 270.889 331.253 270.939 330.825H270.938ZM326.439 292.966L324.829 306.639C324.459 309.775 322.903 312.708 320.449 314.901C317.99 317.098 314.902 318.307 311.754 318.307H302.548C302.34 318.307 302.177 318.125 302.202 317.918L302.302 317.073C302.648 314.111 301.818 311.135 300.016 308.784C299.829 308.541 300.005 308.19 300.312 308.19H311.754C313.194 308.19 314.608 306.912 314.78 305.455L316.389 291.788C316.429 291.448 316.413 290.972 316.108 290.629C315.819 290.304 315.378 290.235 315.059 290.235H302.438C300.979 290.235 299.752 291.327 299.582 292.776L298.017 306.075C297.984 306.355 297.667 306.495 297.436 306.336C295.545 305.031 293.286 304.311 290.948 304.311H288.428C288.219 304.311 288.057 304.129 288.081 303.922L290.248 285.527C290.609 282.444 293.224 280.118 296.33 280.118H315.059C318.438 280.118 321.495 281.464 323.668 283.907C325.851 286.359 326.834 289.577 326.438 292.967H326.439V292.966Z" fill="#522AF9"/>
<path d="M398.302 309.249C396.451 307.163 393.789 305.969 390.999 305.969H372.414C368.71 305.969 365.265 308.118 363.648 311.429C363.157 312.419 362.841 313.486 362.711 314.599L360.939 329.642C360.524 333.157 361.541 336.495 363.805 339.041C366.055 341.573 369.226 342.969 372.733 342.969H385.455C388.731 342.969 391.945 341.709 394.503 339.422C397.057 337.14 398.676 334.086 399.058 330.826L400.703 316.881C401.027 314.114 400.151 311.333 398.3 309.25H398.302V309.249ZM370.989 330.825L372.631 316.885C372.685 316.429 373.071 316.086 373.53 316.086H389.594C390.136 316.086 390.555 316.558 390.492 317.097L389.013 329.645C388.813 331.352 387.152 332.849 385.458 332.849H372.737C372.33 332.849 371.762 332.757 371.373 332.321C370.966 331.861 370.94 331.253 370.99 330.825H370.989ZM426.491 292.966L424.88 306.639C424.51 309.775 422.954 312.708 420.5 314.901C418.041 317.098 414.953 318.307 411.805 318.307H402.6C402.391 318.307 402.228 318.125 402.253 317.918L402.353 317.073C402.699 314.111 401.869 311.135 400.067 308.784C399.881 308.541 400.057 308.19 400.363 308.19H411.805C413.245 308.19 414.66 306.912 414.831 305.455L416.441 291.788C416.48 291.448 416.464 290.972 416.159 290.629C415.87 290.304 415.429 290.235 415.11 290.235H402.49C401.03 290.235 399.803 291.327 399.633 292.776L398.068 306.075C398.036 306.355 397.718 306.495 397.487 306.336C395.596 305.031 393.337 304.311 390.999 304.311H388.479C388.27 304.311 388.108 304.129 388.132 303.922L390.3 285.527C390.661 282.444 393.275 280.118 396.381 280.118H415.11C418.489 280.118 421.546 281.464 423.719 283.907C425.902 286.359 426.886 289.577 426.49 292.967H426.491V292.966Z" fill="#522AF9"/>
<path d="M498.354 309.249C496.502 307.163 493.84 305.969 491.051 305.969H472.465C468.761 305.969 465.317 308.118 463.699 311.429C463.208 312.419 462.893 313.486 462.763 314.599L460.99 329.642C460.575 333.157 461.593 336.495 463.856 339.041C466.106 341.573 469.277 342.969 472.785 342.969H485.506C488.783 342.969 491.996 341.709 494.555 339.422C497.109 337.14 498.727 334.086 499.11 330.826L500.754 316.881C501.078 314.114 500.202 311.333 498.352 309.25H498.354V309.249ZM471.04 330.825L472.683 316.885C472.736 316.429 473.122 316.086 473.581 316.086H489.645C490.187 316.086 490.607 316.558 490.544 317.097L489.064 329.645C488.865 331.352 487.203 332.849 485.51 332.849H472.788C472.381 332.849 471.813 332.757 471.424 332.321C471.017 331.861 470.991 331.253 471.042 330.825H471.04ZM526.542 292.966L524.931 306.639C524.561 309.775 523.005 312.708 520.551 314.901C518.093 317.098 515.005 318.307 511.856 318.307H502.651C502.442 318.307 502.28 318.125 502.304 317.918L502.404 317.073C502.751 314.111 501.921 311.135 500.118 308.784C499.932 308.541 500.108 308.19 500.414 308.19H511.856C513.296 308.19 514.711 306.912 514.882 305.455L516.492 291.788C516.531 291.448 516.516 290.972 516.21 290.629C515.921 290.304 515.48 290.235 515.162 290.235H502.541C501.082 290.235 499.855 291.327 499.684 292.776L498.119 306.075C498.087 306.355 497.769 306.495 497.538 306.336C495.647 305.031 493.388 304.311 491.051 304.311H488.53C488.322 304.311 488.159 304.129 488.184 303.922L490.351 285.527C490.712 282.444 493.327 280.118 496.432 280.118H515.162C518.54 280.118 521.598 281.464 523.77 283.907C525.953 286.359 526.937 289.577 526.541 292.967H526.542V292.966Z" fill="#522AF9"/>
<path d="M96.8764 265.448H84.1513C82.1188 265.448 80.1975 267.178 79.9552 269.226L77.9811 285.99C77.556 289.604 74.4905 292.33 70.8507 292.33H53.6311C51.8544 292.33 50.1776 293.842 49.9678 295.632L48.3571 309.304C48.2999 309.776 48.3313 310.443 48.7946 310.966C49.2432 311.47 49.8747 311.576 50.3245 311.576H61.3515C61.67 311.576 61.8887 311.889 61.7855 312.19C61.5377 312.918 61.366 313.674 61.2752 314.449L60.6302 319.925C60.5977 320.197 60.3666 320.404 60.0918 320.404H50.3245C47.1334 320.404 44.2463 319.135 42.197 316.831C40.1365 314.513 39.21 311.474 39.588 308.272L41.1976 294.603C41.5476 291.625 43.027 288.835 45.3634 286.746C47.7032 284.656 50.6386 283.504 53.63 283.504H67.0494C68.3808 283.504 69.5025 282.506 69.6573 281.184L71.1872 268.195C71.554 265.089 73.0974 262.18 75.5336 260.003C77.9732 257.822 81.0331 256.622 84.1502 256.622H96.8753C100.19 256.622 103.188 257.939 105.317 260.331C107.456 262.737 108.419 265.895 108.03 269.224L107.024 277.745C106.988 278.047 106.732 278.274 106.428 278.274H98.7541C98.3951 278.274 98.117 277.961 98.1585 277.605L99.261 268.196C99.3272 267.637 99.2857 266.836 98.7182 266.195C98.1697 265.58 97.4126 265.449 96.8753 265.449H96.8764V265.448Z" fill="#522AF9"/>
<path d="M196.928 265.448H184.203C182.17 265.448 180.249 267.178 180.007 269.226L178.032 285.99C177.607 289.604 174.542 292.33 170.902 292.33H153.683C151.906 292.33 150.229 293.842 150.019 295.632L148.409 309.304C148.351 309.776 148.383 310.443 148.846 310.966C149.295 311.47 149.926 311.576 150.376 311.576H161.403C161.721 311.576 161.94 311.889 161.837 312.19C161.589 312.918 161.417 313.674 161.327 314.449L160.682 319.925C160.649 320.197 160.418 320.404 160.143 320.404H150.376C147.185 320.404 144.298 319.135 142.248 316.831C140.188 314.513 139.261 311.474 139.639 308.272L141.249 294.603C141.599 291.625 143.078 288.835 145.415 286.746C147.755 284.656 150.69 283.504 153.681 283.504H167.101C168.432 283.504 169.554 282.506 169.709 281.184L171.239 268.195C171.605 265.089 173.149 262.18 175.585 260.003C178.025 257.822 181.084 256.622 184.202 256.622H196.927C200.241 256.622 203.239 257.939 205.368 260.331C207.507 262.737 208.471 265.895 208.082 269.224L207.075 277.745C207.04 278.047 206.784 278.274 206.48 278.274H198.805C198.447 278.274 198.168 277.961 198.21 277.605L199.312 268.196C199.379 267.637 199.337 266.836 198.77 266.195C198.221 265.58 197.464 265.449 196.927 265.449H196.928V265.448Z" fill="#522AF9"/>
<path d="M296.979 265.448H284.254C282.222 265.448 280.3 267.178 280.058 269.226L278.084 285.99C277.659 289.604 274.593 292.33 270.953 292.33H253.734C251.957 292.33 250.28 293.842 250.07 295.632L248.46 309.304C248.403 309.776 248.434 310.443 248.897 310.966C249.346 311.47 249.977 311.576 250.427 311.576H261.454C261.773 311.576 261.991 311.889 261.888 312.19C261.64 312.918 261.469 313.674 261.378 314.449L260.733 319.925C260.7 320.197 260.469 320.404 260.195 320.404H250.427C247.236 320.404 244.349 319.135 242.3 316.831C240.239 314.513 239.313 311.474 239.691 308.272L241.3 294.603C241.65 291.625 243.13 288.835 245.466 286.746C247.806 284.656 250.741 283.504 253.733 283.504H267.152C268.484 283.504 269.605 282.506 269.76 281.184L271.29 268.195C271.657 265.089 273.2 262.18 275.636 260.003C278.076 257.822 281.136 256.622 284.253 256.622H296.978C300.292 256.622 303.291 257.939 305.42 260.331C307.558 262.737 308.522 265.895 308.133 269.224L307.127 277.745C307.091 278.047 306.835 278.274 306.531 278.274H298.857C298.498 278.274 298.22 277.961 298.261 277.605L299.364 268.196C299.43 267.637 299.388 266.836 298.821 266.195C298.272 265.58 297.515 265.449 296.978 265.449H296.979V265.448Z" fill="#522AF9"/>
<path d="M397.03 265.448H384.305C382.273 265.448 380.352 267.178 380.109 269.226L378.135 285.99C377.71 289.604 374.645 292.33 371.005 292.33H353.785C352.008 292.33 350.332 293.842 350.122 295.632L348.511 309.304C348.454 309.776 348.485 310.443 348.949 310.966C349.397 311.47 350.029 311.576 350.479 311.576H361.506C361.824 311.576 362.043 311.889 361.94 312.19C361.692 312.918 361.52 313.674 361.429 314.449L360.784 319.925C360.752 320.197 360.521 320.404 360.246 320.404H350.479C347.287 320.404 344.4 319.135 342.351 316.831C340.291 314.513 339.364 311.474 339.742 308.272L341.352 294.603C341.702 291.625 343.181 288.835 345.517 286.746C347.857 284.656 350.793 283.504 353.784 283.504H367.204C368.535 283.504 369.657 282.506 369.811 281.184L371.341 268.195C371.708 265.089 373.251 262.18 375.688 260.003C378.127 257.822 381.187 256.622 384.304 256.622H397.029C400.344 256.622 403.342 257.939 405.471 260.331C407.61 262.737 408.573 265.895 408.184 269.224L407.178 277.745C407.142 278.047 406.886 278.274 406.582 278.274H398.908C398.549 278.274 398.271 277.961 398.313 277.605L399.415 268.196C399.481 267.637 399.44 266.836 398.872 266.195C398.324 265.58 397.567 265.449 397.029 265.449H397.03V265.448Z" fill="#522AF9"/>
<path d="M497.082 265.448H484.357C482.324 265.448 480.403 267.178 480.16 269.226L478.186 285.99C477.761 289.604 474.696 292.33 471.056 292.33H453.836C452.06 292.33 450.383 293.842 450.173 295.632L448.562 309.304C448.505 309.776 448.537 310.443 449 310.966C449.449 311.47 450.08 311.576 450.53 311.576H461.557C461.875 311.576 462.094 311.889 461.991 312.19C461.743 312.918 461.571 313.674 461.481 314.449L460.836 319.925C460.803 320.197 460.572 320.404 460.297 320.404H450.53C447.339 320.404 444.452 319.135 442.402 316.831C440.342 314.513 439.415 311.474 439.793 308.272L441.403 294.603C441.753 291.625 443.232 288.835 445.569 286.746C447.909 284.656 450.844 283.504 453.835 283.504H467.255C468.586 283.504 469.708 282.506 469.863 281.184L471.393 268.195C471.759 265.089 473.303 262.18 475.739 260.003C478.179 257.822 481.238 256.622 484.355 256.622H497.081C500.395 256.622 503.393 257.939 505.522 260.331C507.661 262.737 508.625 265.895 508.235 269.224L507.229 277.745C507.193 278.047 506.938 278.274 506.634 278.274H498.959C498.6 278.274 498.322 277.961 498.364 277.605L499.466 268.196C499.533 267.637 499.491 266.836 498.923 266.195C498.375 265.58 497.618 265.449 497.081 265.449H497.082V265.448Z" fill="#522AF9"/>
<path d="M58.717 222.871C56.8652 220.786 54.2035 219.591 51.414 219.591H32.8282C29.1245 219.591 25.6799 221.74 24.0625 225.051C23.5712 226.042 23.256 227.108 23.1259 228.221L21.3537 243.265C20.9387 246.779 21.956 250.117 24.2195 252.663C26.4696 255.196 29.6405 256.591 33.1479 256.591H45.8696C49.146 256.591 52.3595 255.331 54.918 253.044C57.472 250.762 59.0906 247.709 59.473 244.448L61.1174 230.503C61.4415 227.736 60.5655 224.955 58.7148 222.872H58.717V222.871ZM31.4037 244.447L33.0458 230.507C33.0996 230.051 33.4855 229.708 33.9442 229.708H50.0085C50.5503 229.708 50.9698 230.18 50.907 230.719L49.4275 243.267C49.2279 244.974 47.5667 246.471 45.873 246.471H33.1512C32.7441 246.471 32.1765 246.379 31.7873 245.943C31.3801 245.483 31.3543 244.875 31.4048 244.447H31.4037ZM86.9053 206.588L85.2946 220.261C84.9244 223.397 83.3687 226.33 80.9145 228.523C78.4559 230.72 75.368 231.929 72.2195 231.929H63.0141C62.8055 231.929 62.6428 231.747 62.6675 231.54L62.7673 230.695C63.1139 227.733 62.2839 224.757 60.4814 222.406C60.2952 222.163 60.4713 221.812 60.7775 221.812H72.2195C73.6597 221.812 75.0741 220.534 75.2457 219.077L76.8553 205.41C76.8945 205.07 76.8788 204.594 76.5737 204.251C76.2844 203.926 75.8435 203.858 75.525 203.858H62.9042C61.4449 203.858 60.2178 204.949 60.0473 206.398L58.4826 219.698C58.4501 219.977 58.1327 220.117 57.9016 219.958C56.0105 218.653 53.7515 217.933 51.414 217.933H48.8936C48.685 217.933 48.5224 217.751 48.547 217.544L50.7141 199.149C51.0752 196.067 53.6898 193.74 56.7957 193.74H75.525C78.9034 193.74 81.961 195.086 84.1337 197.529C86.3164 199.981 87.3001 203.199 86.9042 206.589H86.9053V206.588Z" fill="#522AF9"/>
<path d="M158.768 222.871C156.917 220.786 154.255 219.591 151.465 219.591H132.88C129.176 219.591 125.731 221.74 124.114 225.051C123.623 226.042 123.307 227.108 123.177 228.221L121.405 243.265C120.99 246.779 122.007 250.117 124.271 252.663C126.521 255.196 129.692 256.591 133.199 256.591H145.921C149.197 256.591 152.411 255.331 154.969 253.044C157.523 250.762 159.142 247.709 159.524 244.448L161.169 230.503C161.493 227.736 160.617 224.955 158.766 222.872H158.768V222.871ZM131.455 244.447L133.097 230.507C133.151 230.051 133.537 229.708 133.996 229.708H150.06C150.602 229.708 151.021 230.18 150.958 230.719L149.479 243.267C149.279 244.974 147.618 246.471 145.924 246.471H133.203C132.795 246.471 132.228 246.379 131.839 245.943C131.432 245.483 131.406 244.875 131.456 244.447H131.455ZM186.957 206.588L185.346 220.261C184.976 223.397 183.42 226.33 180.966 228.523C178.507 230.72 175.419 231.929 172.271 231.929H163.065C162.857 231.929 162.694 231.747 162.719 231.54L162.819 230.695C163.165 227.733 162.335 224.757 160.533 222.406C160.347 222.163 160.523 221.812 160.829 221.812H172.271C173.711 221.812 175.125 220.534 175.297 219.077L176.907 205.41C176.946 205.07 176.93 204.594 176.625 204.251C176.336 203.926 175.895 203.858 175.576 203.858H162.956C161.496 203.858 160.269 204.949 160.099 206.398L158.534 219.698C158.501 219.977 158.184 220.117 157.953 219.958C156.062 218.653 153.803 217.933 151.465 217.933H148.945C148.736 217.933 148.574 217.751 148.598 217.544L150.765 199.149C151.127 196.067 153.741 193.74 156.847 193.74H175.576C178.955 193.74 182.012 195.086 184.185 197.529C186.368 199.981 187.351 203.199 186.956 206.589H186.957V206.588Z" fill="#522AF9"/>
<path d="M258.82 222.871C256.968 220.786 254.306 219.591 251.517 219.591H232.931C229.227 219.591 225.783 221.74 224.165 225.051C223.674 226.042 223.359 227.108 223.229 228.221L221.456 243.265C221.041 246.779 222.059 250.117 224.322 252.663C226.572 255.196 229.743 256.591 233.251 256.591H245.972C249.249 256.591 252.462 255.331 255.021 253.044C257.575 250.762 259.193 247.709 259.576 244.448L261.22 230.503C261.544 227.736 260.668 224.955 258.817 222.872H258.82V222.871ZM231.506 244.447L233.148 230.507C233.202 230.051 233.588 229.708 234.047 229.708H250.111C250.653 229.708 251.072 230.18 251.01 230.719L249.53 243.267C249.331 244.974 247.669 246.471 245.976 246.471H233.254C232.847 246.471 232.279 246.379 231.89 245.943C231.483 245.483 231.457 244.875 231.507 244.447H231.506ZM287.008 206.588L285.397 220.261C285.027 223.397 283.471 226.33 281.017 228.523C278.559 230.72 275.471 231.929 272.322 231.929H263.117C262.908 231.929 262.745 231.747 262.77 231.54L262.87 230.695C263.217 227.733 262.387 224.757 260.584 222.406C260.398 222.163 260.574 221.812 260.88 221.812H272.322C273.762 221.812 275.177 220.534 275.348 219.077L276.958 205.41C276.997 205.07 276.981 204.594 276.676 204.251C276.387 203.926 275.946 203.858 275.628 203.858H263.007C261.548 203.858 260.32 204.949 260.15 206.398L258.585 219.698C258.553 219.977 258.235 220.117 258.004 219.958C256.113 218.653 253.854 217.933 251.517 217.933H248.996C248.788 217.933 248.625 217.751 248.65 217.544L250.817 199.149C251.178 196.067 253.792 193.74 256.898 193.74H275.628C279.006 193.74 282.064 195.086 284.236 197.529C286.419 199.981 287.403 203.199 287.007 206.589H287.008V206.588Z" fill="#522AF9"/>
<path d="M358.871 222.871C357.019 220.786 354.358 219.591 351.568 219.591H332.982C329.279 219.591 325.834 221.74 324.217 225.051C323.725 226.042 323.41 227.108 323.28 228.221L321.508 243.265C321.093 246.779 322.11 250.117 324.374 252.663C326.624 255.196 329.795 256.591 333.302 256.591H346.024C349.3 256.591 352.514 255.331 355.072 253.044C357.626 250.762 359.245 247.709 359.627 244.448L361.271 230.503C361.596 227.736 360.72 224.955 358.869 222.872H358.871V222.871ZM331.558 244.447L333.2 230.507C333.254 230.051 333.64 229.708 334.098 229.708H350.163C350.704 229.708 351.124 230.18 351.061 230.719L349.582 243.267C349.382 244.974 347.721 246.471 346.027 246.471H333.305C332.898 246.471 332.331 246.379 331.941 245.943C331.534 245.483 331.508 244.875 331.559 244.447H331.558ZM387.059 206.588L385.449 220.261C385.078 223.397 383.523 226.33 381.069 228.523C378.61 230.72 375.522 231.929 372.374 231.929H363.168C362.96 231.929 362.797 231.747 362.822 231.54L362.921 230.695C363.268 227.733 362.438 224.757 360.635 222.406C360.449 222.163 360.625 221.812 360.932 221.812H372.374C373.814 221.812 375.228 220.534 375.4 219.077L377.009 205.41C377.049 205.07 377.033 204.594 376.728 204.251C376.438 203.926 375.998 203.858 375.679 203.858H363.058C361.599 203.858 360.372 204.949 360.201 206.398L358.637 219.698C358.604 219.977 358.287 220.117 358.056 219.958C356.165 218.653 353.906 217.933 351.568 217.933H349.048C348.839 217.933 348.676 217.751 348.701 217.544L350.868 199.149C351.229 196.067 353.844 193.74 356.95 193.74H375.679C379.057 193.74 382.115 195.086 384.288 197.529C386.47 199.981 387.454 203.199 387.058 206.589H387.059V206.588Z" fill="#522AF9"/>
<path d="M458.922 222.871C457.071 220.786 454.409 219.591 451.619 219.591H433.034C429.33 219.591 425.885 221.74 424.268 225.051C423.777 226.042 423.461 227.108 423.331 228.221L421.559 243.265C421.144 246.779 422.161 250.117 424.425 252.663C426.675 255.196 429.846 256.591 433.353 256.591H446.075C449.351 256.591 452.565 255.331 455.123 253.044C457.677 250.762 459.296 247.709 459.678 244.448L461.323 230.503C461.647 227.736 460.771 224.955 458.92 222.872H458.922V222.871ZM431.609 244.447L433.251 230.507C433.305 230.051 433.691 229.708 434.15 229.708H450.214C450.756 229.708 451.175 230.18 451.112 230.719L449.633 243.267C449.433 244.974 447.772 246.471 446.078 246.471H433.357C432.95 246.471 432.382 246.379 431.993 245.943C431.586 245.483 431.56 244.875 431.61 244.447H431.609ZM487.111 206.588L485.5 220.261C485.13 223.397 483.574 226.33 481.12 228.523C478.661 230.72 475.573 231.929 472.425 231.929H463.22C463.011 231.929 462.848 231.747 462.873 231.54L462.973 230.695C463.319 227.733 462.489 224.757 460.687 222.406C460.501 222.163 460.677 221.812 460.983 221.812H472.425C473.865 221.812 475.28 220.534 475.451 219.077L477.061 205.41C477.1 205.07 477.084 204.594 476.779 204.251C476.49 203.926 476.049 203.858 475.73 203.858H463.11C461.65 203.858 460.423 204.949 460.253 206.398L458.688 219.698C458.656 219.977 458.338 220.117 458.107 219.958C456.216 218.653 453.957 217.933 451.619 217.933H449.099C448.89 217.933 448.728 217.751 448.752 217.544L450.92 199.149C451.281 196.067 453.895 193.74 457.001 193.74H475.73C479.109 193.74 482.166 195.086 484.339 197.529C486.522 199.981 487.506 203.199 487.11 206.589H487.111V206.588Z" fill="#522AF9"/>
<path d="M558.974 222.871C557.122 220.786 554.46 219.591 551.671 219.591H533.085C529.381 219.591 525.937 221.74 524.319 225.051C523.828 226.042 523.513 227.108 523.383 228.221L521.611 243.265C521.196 246.779 522.213 250.117 524.476 252.663C526.726 255.196 529.897 256.591 533.405 256.591H546.126C549.403 256.591 552.616 255.331 555.175 253.044C557.729 250.762 559.347 247.709 559.73 244.448L561.374 230.503C561.698 227.736 560.822 224.955 558.972 222.872H558.974V222.871ZM531.661 244.447L533.303 230.507C533.356 230.051 533.742 229.708 534.201 229.708H550.265C550.807 229.708 551.227 230.18 551.164 230.719L549.684 243.267C549.485 244.974 547.824 246.471 546.13 246.471H533.408C533.001 246.471 532.433 246.379 532.044 245.943C531.637 245.483 531.611 244.875 531.662 244.447H531.661ZM587.162 206.588L585.551 220.261C585.181 223.397 583.626 226.33 581.171 228.523C578.713 230.72 575.625 231.929 572.476 231.929H563.271C563.062 231.929 562.9 231.747 562.924 231.54L563.024 230.695C563.371 227.733 562.541 224.757 560.738 222.406C560.552 222.163 560.728 221.812 561.034 221.812H572.476C573.917 221.812 575.331 220.534 575.503 219.077L577.112 205.41C577.151 205.07 577.136 204.594 576.831 204.251C576.541 203.926 576.1 203.858 575.782 203.858H563.161C561.702 203.858 560.475 204.949 560.304 206.398L558.739 219.698C558.707 219.977 558.389 220.117 558.158 219.958C556.267 218.653 554.008 217.933 551.671 217.933H549.15C548.942 217.933 548.779 217.751 548.804 217.544L550.971 199.149C551.332 196.067 553.947 193.74 557.052 193.74H575.782C579.16 193.74 582.218 195.086 584.391 197.529C586.573 199.981 587.557 203.199 587.161 206.589H587.162V206.588Z" fill="#522AF9"/>
<path d="M57.4451 179.07H44.7199C42.6875 179.07 40.7661 180.8 40.5238 182.848L38.5497 199.612C38.1246 203.226 35.0592 205.952 31.4194 205.952H14.1998C12.4231 205.952 10.7462 207.464 10.5365 209.254L8.92578 222.926C8.86858 223.398 8.89999 224.065 9.36323 224.588C9.81189 225.092 10.4434 225.198 10.8932 225.198H21.9201C22.2387 225.198 22.4574 225.511 22.3542 225.812C22.1063 226.54 21.9347 227.296 21.8438 228.071L21.1989 233.547C21.1664 233.819 20.9353 234.026 20.6605 234.026H10.8932C7.70206 234.026 4.81493 232.757 2.76567 230.453C0.705198 228.135 -0.221287 225.096 0.15671 221.894L1.76628 208.226C2.11624 205.248 3.59569 202.457 5.9321 200.368C8.27186 198.278 11.2072 197.126 14.1987 197.126H27.6181C28.9495 197.126 30.0712 196.129 30.226 194.806L31.7559 181.817C32.1227 178.711 33.6661 175.802 36.1023 173.625C38.5419 171.444 41.6017 170.244 44.7188 170.244H57.444C60.7584 170.244 63.7566 171.561 65.8855 173.953C68.0245 176.359 68.988 179.517 68.5988 182.846L67.5927 191.367C67.5568 191.669 67.301 191.897 66.9971 191.897H59.3227C58.9638 191.897 58.6856 191.584 58.7271 191.227L59.8297 181.818C59.8959 181.259 59.8544 180.458 59.2868 179.817C58.7383 179.202 57.9812 179.072 57.444 179.072H57.4451V179.07Z" fill="#522AF9"/>
<path d="M157.497 179.07H144.771C142.739 179.07 140.818 180.8 140.575 182.848L138.601 199.612C138.176 203.226 135.111 205.952 131.471 205.952H114.251C112.475 205.952 110.798 207.464 110.588 209.254L108.977 222.926C108.92 223.398 108.951 224.065 109.415 224.588C109.863 225.092 110.495 225.198 110.945 225.198H121.972C122.29 225.198 122.509 225.511 122.406 225.812C122.158 226.54 121.986 227.296 121.895 228.071L121.25 233.547C121.218 233.819 120.987 234.026 120.712 234.026H110.945C107.754 234.026 104.866 232.757 102.817 230.453C100.757 228.135 99.8302 225.096 100.208 221.894L101.818 208.226C102.168 205.248 103.647 202.457 105.984 200.368C108.323 198.278 111.259 197.126 114.25 197.126H127.67C129.001 197.126 130.123 196.129 130.277 194.806L131.807 181.817C132.174 178.711 133.718 175.802 136.154 173.625C138.593 171.444 141.653 170.244 144.77 170.244H157.495C160.81 170.244 163.808 171.561 165.937 173.953C168.076 176.359 169.039 179.517 168.65 182.846L167.644 191.367C167.608 191.669 167.352 191.897 167.049 191.897H159.374C159.015 191.897 158.737 191.584 158.779 191.227L159.881 181.818C159.947 181.259 159.906 180.458 159.338 179.817C158.79 179.202 158.033 179.072 157.495 179.072H157.497V179.07Z" fill="#522AF9"/>
<path d="M257.548 179.07H244.823C242.79 179.07 240.869 180.8 240.627 182.848L238.653 199.612C238.227 203.226 235.162 205.952 231.522 205.952H214.303C212.526 205.952 210.849 207.464 210.639 209.254L209.029 222.926C208.971 223.398 209.003 224.065 209.466 224.588C209.915 225.092 210.546 225.198 210.996 225.198H222.023C222.342 225.198 222.56 225.511 222.457 225.812C222.209 226.54 222.038 227.296 221.947 228.071L221.302 233.547C221.269 233.819 221.038 234.026 220.763 234.026H210.996C207.805 234.026 204.918 232.757 202.869 230.453C200.808 228.135 199.882 225.096 200.26 221.894L201.869 208.226C202.219 205.248 203.699 202.457 206.035 200.368C208.375 198.278 211.31 197.126 214.302 197.126H227.721C229.052 197.126 230.174 196.129 230.329 194.806L231.859 181.817C232.226 178.711 233.769 175.802 236.205 173.625C238.645 171.444 241.705 170.244 244.822 170.244H257.547C260.861 170.244 263.859 171.561 265.988 173.953C268.127 176.359 269.091 179.517 268.702 182.846L267.696 191.367C267.66 191.669 267.404 191.897 267.1 191.897H259.426C259.067 191.897 258.788 191.584 258.83 191.227L259.933 181.818C259.999 181.259 259.957 180.458 259.39 179.817C258.841 179.202 258.084 179.072 257.547 179.072H257.548V179.07Z" fill="#522AF9"/>
<path d="M357.599 179.07H344.874C342.842 179.07 340.92 180.8 340.678 182.848L338.704 199.612C338.279 203.226 335.213 205.952 331.574 205.952H314.354C312.577 205.952 310.9 207.464 310.691 209.254L309.08 222.926C309.023 223.398 309.054 224.065 309.517 224.588C309.966 225.092 310.597 225.198 311.047 225.198H322.074C322.393 225.198 322.612 225.511 322.508 225.812C322.26 226.54 322.089 227.296 321.998 228.071L321.353 233.547C321.32 233.819 321.089 234.026 320.815 234.026H311.047C307.856 234.026 304.969 232.757 302.92 230.453C300.859 228.135 299.933 225.096 300.311 221.894L301.92 208.226C302.27 205.248 303.75 202.457 306.086 200.368C308.426 198.278 311.361 197.126 314.353 197.126H327.772C329.104 197.126 330.225 196.129 330.38 194.806L331.91 181.817C332.277 178.711 333.82 175.802 336.256 173.625C338.696 171.444 341.756 170.244 344.873 170.244H357.598C360.913 170.244 363.911 171.561 366.04 173.953C368.179 176.359 369.142 179.517 368.753 182.846L367.747 191.367C367.711 191.669 367.455 191.897 367.151 191.897H359.477C359.118 191.897 358.84 191.584 358.881 191.227L359.984 181.818C360.05 181.259 360.008 180.458 359.441 179.817C358.892 179.202 358.135 179.072 357.598 179.072H357.599V179.07Z" fill="#522AF9"/>
<path d="M457.65 179.07H444.925C442.893 179.07 440.972 180.8 440.729 182.848L438.755 199.612C438.33 203.226 435.265 205.952 431.625 205.952H414.405C412.628 205.952 410.952 207.464 410.742 209.254L409.131 222.926C409.074 223.398 409.105 224.065 409.569 224.588C410.017 225.092 410.649 225.198 411.099 225.198H422.126C422.444 225.198 422.663 225.511 422.56 225.812C422.312 226.54 422.14 227.296 422.049 228.071L421.404 233.547C421.372 233.819 421.141 234.026 420.866 234.026H411.099C407.907 234.026 405.02 232.757 402.971 230.453C400.911 228.135 399.984 225.096 400.362 221.894L401.972 208.226C402.322 205.248 403.801 202.457 406.137 200.368C408.477 198.278 411.413 197.126 414.404 197.126H427.823C429.155 197.126 430.277 196.129 430.431 194.806L431.961 181.817C432.328 178.711 433.871 175.802 436.308 173.625C438.747 171.444 441.807 170.244 444.924 170.244H457.649C460.964 170.244 463.962 171.561 466.091 173.953C468.23 176.359 469.193 179.517 468.804 182.846L467.798 191.367C467.762 191.669 467.506 191.897 467.202 191.897H459.528C459.169 191.897 458.891 191.584 458.933 191.227L460.035 181.818C460.101 181.259 460.06 180.458 459.492 179.817C458.944 179.202 458.187 179.072 457.649 179.072H457.65V179.07Z" fill="#522AF9"/>
<path d="M557.702 179.07H544.977C542.944 179.07 541.023 180.8 540.781 182.848L538.807 199.612C538.381 203.226 535.316 205.952 531.676 205.952H514.457C512.68 205.952 511.003 207.464 510.793 209.254L509.183 222.926C509.125 223.398 509.157 224.065 509.62 224.588C510.069 225.092 510.7 225.198 511.15 225.198H522.177C522.495 225.198 522.714 225.511 522.611 225.812C522.363 226.54 522.191 227.296 522.101 228.071L521.456 233.547C521.423 233.819 521.192 234.026 520.917 234.026H511.15C507.959 234.026 505.072 232.757 503.022 230.453C500.962 228.135 500.035 225.096 500.413 221.894L502.023 208.226C502.373 205.248 503.852 202.457 506.189 200.368C508.529 198.278 511.464 197.126 514.455 197.126H527.875C529.206 197.126 530.328 196.129 530.483 194.806L532.013 181.817C532.379 178.711 533.923 175.802 536.359 173.625C538.799 171.444 541.859 170.244 544.976 170.244H557.701C561.015 170.244 564.013 171.561 566.142 173.953C568.281 176.359 569.245 179.517 568.856 182.846L567.849 191.367C567.814 191.669 567.558 191.897 567.254 191.897H559.579C559.221 191.897 558.942 191.584 558.984 191.227L560.086 181.818C560.153 181.259 560.111 180.458 559.544 179.817C558.995 179.202 558.238 179.072 557.701 179.072H557.702V179.07Z" fill="#522AF9"/>
<path d="M119.337 136.524C117.485 134.439 114.824 133.244 112.034 133.244H93.4484C89.7447 133.244 86.3001 135.393 84.6827 138.704C84.1914 139.695 83.8762 140.762 83.7461 141.874L81.9739 156.918C81.5589 160.432 82.5762 163.77 84.8397 166.316C87.0897 168.849 90.2606 170.244 93.768 170.244H106.49C109.766 170.244 112.98 168.985 115.538 166.698C118.092 164.415 119.711 161.362 120.093 158.101L121.738 144.157C122.062 141.39 121.186 138.608 119.335 136.525H119.337V136.524ZM92.0239 158.1L93.666 144.16C93.7198 143.705 94.1057 143.362 94.5644 143.362H110.629C111.17 143.362 111.59 143.834 111.527 144.372L110.048 156.92C109.848 158.627 108.187 160.125 106.493 160.125H93.7714C93.3642 160.125 92.7967 160.033 92.4075 159.596C92.0003 159.136 91.9745 158.529 92.025 158.1H92.0239ZM147.525 120.241L145.915 133.914C145.545 137.05 143.989 139.983 141.535 142.176C139.076 144.373 135.988 145.582 132.84 145.582H123.634C123.426 145.582 123.263 145.401 123.288 145.193L123.388 144.349C123.734 141.386 122.904 138.411 121.102 136.06C120.915 135.816 121.091 135.465 121.398 135.465H132.84C134.28 135.465 135.694 134.188 135.866 132.731L137.475 119.063C137.515 118.723 137.499 118.248 137.194 117.905C136.905 117.579 136.464 117.511 136.145 117.511H123.524C122.065 117.511 120.838 118.602 120.667 120.051L119.103 133.351C119.07 133.63 118.753 133.77 118.522 133.611C116.631 132.307 114.372 131.586 112.034 131.586H109.514C109.305 131.586 109.143 131.405 109.167 131.197L111.334 112.802C111.695 109.72 114.31 107.394 117.416 107.394H136.145C139.524 107.394 142.581 108.74 144.754 111.182C146.937 113.634 147.92 116.852 147.524 120.242H147.525V120.241Z" fill="#522AF9"/>
<path d="M219.388 136.524C217.537 134.439 214.875 133.244 212.085 133.244H193.5C189.796 133.244 186.351 135.393 184.734 138.704C184.243 139.695 183.927 140.762 183.797 141.874L182.025 156.918C181.61 160.432 182.627 163.77 184.891 166.316C187.141 168.849 190.312 170.244 193.819 170.244H206.541C209.817 170.244 213.031 168.985 215.589 166.698C218.143 164.415 219.762 161.362 220.144 158.101L221.789 144.157C222.113 141.39 221.237 138.608 219.386 136.525H219.388V136.524ZM192.075 158.1L193.717 144.16C193.771 143.705 194.157 143.362 194.616 143.362H210.68C211.222 143.362 211.641 143.834 211.578 144.372L210.099 156.92C209.899 158.627 208.238 160.125 206.544 160.125H193.823C193.416 160.125 192.848 160.033 192.459 159.596C192.052 159.136 192.026 158.529 192.076 158.1H192.075ZM247.577 120.241L245.966 133.914C245.596 137.05 244.04 139.983 241.586 142.176C239.127 144.373 236.039 145.582 232.891 145.582H223.686C223.477 145.582 223.314 145.401 223.339 145.193L223.439 144.349C223.785 141.386 222.955 138.411 221.153 136.06C220.967 135.816 221.143 135.465 221.449 135.465H232.891C234.331 135.465 235.746 134.188 235.917 132.731L237.527 119.063C237.566 118.723 237.55 118.248 237.245 117.905C236.956 117.579 236.515 117.511 236.196 117.511H223.576C222.116 117.511 220.889 118.602 220.719 120.051L219.154 133.351C219.122 133.63 218.804 133.77 218.573 133.611C216.682 132.307 214.423 131.586 212.085 131.586H209.565C209.356 131.586 209.194 131.405 209.218 131.197L211.386 112.802C211.747 109.72 214.361 107.394 217.467 107.394H236.196C239.575 107.394 242.632 108.74 244.805 111.182C246.988 113.634 247.972 116.852 247.576 120.242H247.577V120.241Z" fill="#522AF9"/>
<path d="M319.44 136.524C317.588 134.439 314.926 133.244 312.137 133.244H293.551C289.847 133.244 286.403 135.393 284.785 138.704C284.294 139.695 283.979 140.762 283.849 141.874L282.077 156.918C281.662 160.432 282.679 163.77 284.942 166.316C287.192 168.849 290.363 170.244 293.871 170.244H306.593C309.869 170.244 313.082 168.985 315.641 166.698C318.195 164.415 319.813 161.362 320.196 158.101L321.84 144.157C322.164 141.39 321.288 138.608 319.438 136.525H319.44V136.524ZM292.127 158.1L293.769 144.16C293.823 143.705 294.208 143.362 294.667 143.362H310.731C311.273 143.362 311.693 143.834 311.63 144.372L310.15 156.92C309.951 158.627 308.29 160.125 306.596 160.125H293.874C293.467 160.125 292.899 160.033 292.51 159.596C292.103 159.136 292.077 158.529 292.128 158.1H292.127ZM347.628 120.241L346.017 133.914C345.647 137.05 344.092 139.983 341.637 142.176C339.179 144.373 336.091 145.582 332.942 145.582H323.737C323.528 145.582 323.366 145.401 323.39 145.193L323.49 144.349C323.837 141.386 323.007 138.411 321.204 136.06C321.018 135.816 321.194 135.465 321.5 135.465H332.942C334.383 135.465 335.797 134.188 335.969 132.731L337.578 119.063C337.617 118.723 337.602 118.248 337.297 117.905C337.007 117.579 336.566 117.511 336.248 117.511H323.627C322.168 117.511 320.941 118.602 320.77 120.051L319.206 133.351C319.173 133.63 318.856 133.77 318.625 133.611C316.733 132.307 314.474 131.586 312.137 131.586H309.617C309.408 131.586 309.245 131.405 309.27 131.197L311.437 112.802C311.798 109.72 314.413 107.394 317.519 107.394H336.248C339.626 107.394 342.684 108.74 344.857 111.182C347.039 113.634 348.023 116.852 347.627 120.242H347.628V120.241Z" fill="#522AF9"/>
<path d="M419.491 136.524C417.639 134.439 414.978 133.244 412.188 133.244H393.602C389.899 133.244 386.454 135.393 384.837 138.704C384.345 139.695 384.03 140.762 383.9 141.874L382.128 156.918C381.713 160.432 382.73 163.77 384.994 166.316C387.244 168.849 390.415 170.244 393.922 170.244H406.644C409.92 170.244 413.134 168.985 415.692 166.698C418.246 164.415 419.865 161.362 420.247 158.101L421.892 144.157C422.216 141.39 421.34 138.608 419.489 136.525H419.491V136.524ZM392.178 158.1L393.82 144.16C393.874 143.705 394.26 143.362 394.719 143.362H410.783C411.325 143.362 411.744 143.834 411.681 144.372L410.202 156.92C410.002 158.627 408.341 160.125 406.647 160.125H393.926C393.518 160.125 392.951 160.033 392.562 159.596C392.154 159.136 392.129 158.529 392.179 158.1H392.178ZM447.68 120.241L446.069 133.914C445.699 137.05 444.143 139.983 441.689 142.176C439.23 144.373 436.142 145.582 432.994 145.582H423.788C423.58 145.582 423.417 145.401 423.442 145.193L423.542 144.349C423.888 141.386 423.058 138.411 421.256 136.06C421.069 135.816 421.246 135.465 421.552 135.465H432.994C434.434 135.465 435.848 134.188 436.02 132.731L437.63 119.063C437.669 118.723 437.653 118.248 437.348 117.905C437.059 117.579 436.618 117.511 436.299 117.511H423.678C422.219 117.511 420.992 118.602 420.822 120.051L419.257 133.351C419.224 133.63 418.907 133.77 418.676 133.611C416.785 132.307 414.526 131.586 412.188 131.586H409.668C409.459 131.586 409.297 131.405 409.321 131.197L411.488 112.802C411.85 109.72 414.464 107.394 417.57 107.394H436.299C439.678 107.394 442.735 108.74 444.908 111.182C447.091 113.634 448.074 116.852 447.678 120.242H447.68V120.241Z" fill="#522AF9"/>
<path d="M118.065 92.7233H105.34C103.308 92.7233 101.386 94.4528 101.144 96.501L99.1698 113.265C98.7447 116.879 95.6792 119.605 92.0394 119.605H74.8198C73.0432 119.605 71.3663 121.117 71.1565 122.907L69.5458 136.579C69.4886 137.051 69.52 137.718 69.9833 138.241C70.4319 138.745 71.0634 138.851 71.5132 138.851H82.5402C82.8587 138.851 83.0774 139.164 82.9743 139.465C82.7264 140.193 82.5548 140.949 82.4639 141.724L81.819 147.2C81.7864 147.472 81.5554 147.679 81.2806 147.679H71.5132C68.3221 147.679 65.435 146.41 63.3857 144.106C61.3253 141.788 60.3988 138.749 60.7768 135.547L62.3863 121.878C62.7363 118.9 64.2158 116.11 66.5522 114.021C68.8919 111.93 71.8273 110.778 74.8187 110.778H88.2382C89.5696 110.778 90.6912 109.781 90.846 108.459L92.3759 95.4702C92.7427 92.3643 94.2861 89.4548 96.7223 87.2776C99.1619 85.0971 102.222 83.897 105.339 83.897H118.064C121.378 83.897 124.377 85.2138 126.506 87.6063C128.645 90.0122 129.608 93.1697 129.219 96.4987L128.213 105.02C128.177 105.322 127.921 105.549 127.617 105.549H119.943C119.584 105.549 119.306 105.236 119.347 104.88L120.45 95.4713C120.516 94.9116 120.474 94.1107 119.907 93.4703C119.358 92.8545 118.601 92.7244 118.064 92.7244H118.065V92.7233Z" fill="#522AF9"/>
<path d="M218.117 92.7233H205.391C203.359 92.7233 201.438 94.4528 201.195 96.501L199.221 113.265C198.796 116.879 195.731 119.605 192.091 119.605H174.871C173.095 119.605 171.418 121.117 171.208 122.907L169.597 136.579C169.54 137.051 169.571 137.718 170.035 138.241C170.483 138.745 171.115 138.851 171.565 138.851H182.592C182.91 138.851 183.129 139.164 183.026 139.465C182.778 140.193 182.606 140.949 182.515 141.724L181.87 147.2C181.838 147.472 181.607 147.679 181.332 147.679H171.565C168.374 147.679 165.486 146.41 163.437 144.106C161.377 141.788 160.45 138.749 160.828 135.547L162.438 121.878C162.788 118.9 164.267 116.11 166.604 114.021C168.943 111.93 171.879 110.778 174.87 110.778H188.29C189.621 110.778 190.743 109.781 190.897 108.459L192.427 95.4702C192.794 92.3643 194.338 89.4548 196.774 87.2776C199.213 85.0971 202.273 83.897 205.39 83.897H218.115C221.43 83.897 224.428 85.2138 226.557 87.6063C228.696 90.0122 229.66 93.1697 229.27 96.4987L228.264 105.02C228.228 105.322 227.973 105.549 227.669 105.549H219.994C219.635 105.549 219.357 105.236 219.399 104.88L220.501 95.4713C220.567 94.9116 220.526 94.1107 219.958 93.4703C219.41 92.8545 218.653 92.7244 218.115 92.7244H218.117V92.7233Z" fill="#522AF9"/>
<path d="M318.168 92.7233H305.443C303.41 92.7233 301.489 94.4528 301.247 96.501L299.273 113.265C298.847 116.879 295.782 119.605 292.142 119.605H274.923C273.146 119.605 271.469 121.117 271.259 122.907L269.649 136.579C269.591 137.051 269.623 137.718 270.086 138.241C270.535 138.745 271.166 138.851 271.616 138.851H282.643C282.962 138.851 283.18 139.164 283.077 139.465C282.829 140.193 282.658 140.949 282.567 141.724L281.922 147.2C281.889 147.472 281.658 147.679 281.383 147.679H271.616C268.425 147.679 265.538 146.41 263.489 144.106C261.428 141.788 260.502 138.749 260.88 135.547L262.489 121.878C262.839 118.9 264.319 116.11 266.655 114.021C268.995 111.93 271.93 110.778 274.922 110.778H288.341C289.672 110.778 290.794 109.781 290.949 108.459L292.479 95.4702C292.846 92.3643 294.389 89.4548 296.825 87.2776C299.265 85.0971 302.325 83.897 305.442 83.897H318.167C321.481 83.897 324.479 85.2138 326.608 87.6063C328.747 90.0122 329.711 93.1697 329.322 96.4987L328.316 105.02C328.28 105.322 328.024 105.549 327.72 105.549H320.046C319.687 105.549 319.408 105.236 319.45 104.88L320.553 95.4713C320.619 94.9116 320.577 94.1107 320.01 93.4703C319.461 92.8545 318.704 92.7244 318.167 92.7244H318.168V92.7233Z" fill="#522AF9"/>
<path d="M418.219 92.7233H405.494C403.462 92.7233 401.54 94.4528 401.298 96.501L399.324 113.265C398.899 116.879 395.833 119.605 392.193 119.605H374.974C373.197 119.605 371.52 121.117 371.311 122.907L369.7 136.579C369.643 137.051 369.674 137.718 370.137 138.241C370.586 138.745 371.217 138.851 371.667 138.851H382.694C383.013 138.851 383.232 139.164 383.128 139.465C382.88 140.193 382.709 140.949 382.618 141.724L381.973 147.2C381.94 147.472 381.709 147.679 381.435 147.679H371.667C368.476 147.679 365.589 146.41 363.54 144.106C361.479 141.788 360.553 138.749 360.931 135.547L362.54 121.878C362.89 118.9 364.37 116.11 366.706 114.021C369.046 111.93 371.981 110.778 374.973 110.778H388.392C389.724 110.778 390.845 109.781 391 108.459L392.53 95.4702C392.897 92.3643 394.44 89.4548 396.876 87.2776C399.316 85.0971 402.376 83.897 405.493 83.897H418.218C421.533 83.897 424.531 85.2138 426.66 87.6063C428.799 90.0122 429.762 93.1697 429.373 96.4987L428.367 105.02C428.331 105.322 428.075 105.549 427.771 105.549H420.097C419.738 105.549 419.46 105.236 419.501 104.88L420.604 95.4713C420.67 94.9116 420.628 94.1107 420.061 93.4703C419.512 92.8545 418.755 92.7244 418.218 92.7244H418.219V92.7233Z" fill="#522AF9"/>
<path d="M187.947 53.0992C186.095 51.014 183.433 49.8195 180.643 49.8195H162.058C158.354 49.8195 154.909 51.9685 153.292 55.2797C152.801 56.2701 152.486 57.3368 152.355 58.4495L150.583 73.493C150.168 77.0072 151.186 80.3452 153.449 82.8914C155.699 85.4241 158.87 86.8194 162.377 86.8194H175.099C178.375 86.8194 181.589 85.5598 184.147 83.2727C186.701 80.9902 188.32 77.937 188.703 74.6764L190.347 60.732C190.671 57.9649 189.795 55.1832 187.944 53.1003H187.947V53.0992ZM160.633 74.6753L162.275 60.7354C162.329 60.28 162.715 59.9368 163.174 59.9368H179.238C179.78 59.9368 180.199 60.409 180.136 60.9474L178.657 73.4953C178.457 75.2024 176.796 76.6998 175.103 76.6998H162.381C161.974 76.6998 161.406 76.6079 161.017 76.1716C160.61 75.7117 160.584 75.1037 160.634 74.6753H160.633ZM216.135 36.8161L214.524 50.4891C214.154 53.6252 212.598 56.5583 210.144 58.7512C207.685 60.9485 204.597 62.1576 201.449 62.1576H192.244C192.035 62.1576 191.872 61.9759 191.897 61.7684L191.997 60.9238C192.343 57.9615 191.513 54.9858 189.711 52.6348C189.525 52.3914 189.701 52.0403 190.007 52.0403H201.449C202.889 52.0403 204.304 50.7628 204.475 49.3057L206.085 35.6384C206.124 35.2986 206.108 34.823 205.803 34.4798C205.514 34.1545 205.073 34.0861 204.754 34.0861H192.134C190.674 34.0861 189.447 35.1774 189.277 36.6266L187.712 49.926C187.68 50.2053 187.362 50.3455 187.131 50.1862C185.24 48.8818 182.981 48.1617 180.643 48.1617H178.123C177.914 48.1617 177.752 47.98 177.777 47.7724L179.944 29.3774C180.305 26.2951 182.919 23.9688 186.025 23.9688H204.754C208.133 23.9688 211.191 25.3147 213.363 27.7577C215.546 30.2096 216.53 33.4276 216.134 36.8173H216.135V36.8161Z" fill="#522AF9"/>
<path d="M287.998 53.0992C286.146 51.014 283.484 49.8195 280.695 49.8195H262.109C258.405 49.8195 254.961 51.9685 253.343 55.2797C252.852 56.2701 252.537 57.3368 252.407 58.4495L250.634 73.493C250.219 77.0072 251.237 80.3452 253.5 82.8914C255.75 85.4241 258.921 86.8194 262.429 86.8194H275.15C278.427 86.8194 281.64 85.5598 284.199 83.2727C286.753 80.9902 288.371 77.937 288.754 74.6764L290.398 60.732C290.722 57.9649 289.846 55.1832 287.996 53.1003H287.998V53.0992ZM260.684 74.6753L262.327 60.7354C262.38 60.28 262.766 59.9368 263.225 59.9368H279.289C279.831 59.9368 280.251 60.409 280.188 60.9474L278.708 73.4953C278.509 75.2024 276.847 76.6998 275.154 76.6998H262.432C262.025 76.6998 261.457 76.6079 261.068 76.1716C260.661 75.7117 260.635 75.1037 260.686 74.6753H260.684ZM316.186 36.8161L314.575 50.4891C314.205 53.6252 312.649 56.5583 310.195 58.7512C307.737 60.9485 304.649 62.1576 301.5 62.1576H292.295C292.086 62.1576 291.924 61.9759 291.948 61.7684L292.048 60.9238C292.395 57.9615 291.565 54.9858 289.762 52.6348C289.576 52.3914 289.752 52.0403 290.058 52.0403H301.5C302.94 52.0403 304.355 50.7628 304.526 49.3057L306.136 35.6384C306.175 35.2986 306.16 34.823 305.855 34.4798C305.565 34.1545 305.124 34.0861 304.806 34.0861H292.185C290.726 34.0861 289.499 35.1774 289.328 36.6266L287.763 49.926C287.731 50.2053 287.413 50.3455 287.182 50.1862C285.291 48.8818 283.032 48.1617 280.695 48.1617H278.174C277.966 48.1617 277.803 47.98 277.828 47.7724L279.995 29.3774C280.356 26.2951 282.971 23.9688 286.076 23.9688H304.806C308.184 23.9688 311.242 25.3147 313.414 27.7577C315.597 30.2096 316.581 33.4276 316.185 36.8173H316.186V36.8161Z" fill="#522AF9"/>
<path d="M388.049 53.0992C386.197 51.014 383.536 49.8195 380.746 49.8195H362.16C358.457 49.8195 355.012 51.9685 353.395 55.2797C352.903 56.2701 352.588 57.3368 352.458 58.4495L350.686 73.493C350.271 77.0072 351.288 80.3452 353.552 82.8914C355.802 85.4241 358.973 86.8194 362.48 86.8194H375.202C378.478 86.8194 381.692 85.5598 384.25 83.2727C386.804 80.9902 388.423 77.937 388.805 74.6764L390.45 60.732C390.774 57.9649 389.898 55.1832 388.047 53.1003H388.049V53.0992ZM360.736 74.6753L362.378 60.7354C362.432 60.28 362.818 59.9368 363.276 59.9368H379.341C379.882 59.9368 380.302 60.409 380.239 60.9474L378.76 73.4953C378.56 75.2024 376.899 76.6998 375.205 76.6998H362.483C362.076 76.6998 361.509 76.6079 361.119 76.1716C360.712 75.7117 360.686 75.1037 360.737 74.6753H360.736ZM416.237 36.8161L414.627 50.4891C414.257 53.6252 412.701 56.5583 410.247 58.7512C407.788 60.9485 404.7 62.1576 401.552 62.1576H392.346C392.138 62.1576 391.975 61.9759 392 61.7684L392.099 60.9238C392.446 57.9615 391.616 54.9858 389.814 52.6348C389.627 52.3914 389.803 52.0403 390.11 52.0403H401.552C402.992 52.0403 404.406 50.7628 404.578 49.3057L406.187 35.6384C406.227 35.2986 406.211 34.823 405.906 34.4798C405.617 34.1545 405.176 34.0861 404.857 34.0861H392.236C390.777 34.0861 389.55 35.1774 389.379 36.6266L387.815 49.926C387.782 50.2053 387.465 50.3455 387.234 50.1862C385.343 48.8818 383.084 48.1617 380.746 48.1617H378.226C378.017 48.1617 377.855 47.98 377.879 47.7724L380.046 29.3774C380.407 26.2951 383.022 23.9688 386.128 23.9688H404.857C408.236 23.9688 411.293 25.3147 413.466 27.7577C415.649 30.2096 416.632 33.4276 416.236 36.8173H416.237V36.8161Z" fill="#522AF9"/>
<path d="M488.101 53.0992C486.249 51.014 483.587 49.8195 480.798 49.8195H462.212C458.508 49.8195 455.063 51.9685 453.446 55.2797C452.955 56.2701 452.64 57.3368 452.509 58.4495L450.737 73.493C450.322 77.0072 451.34 80.3452 453.603 82.8914C455.853 85.4241 459.024 86.8194 462.531 86.8194H475.253C478.53 86.8194 481.743 85.5598 484.302 83.2727C486.856 80.9902 488.474 77.937 488.857 74.6764L490.501 60.732C490.825 57.9649 489.949 55.1832 488.098 53.1003H488.101V53.0992ZM460.787 74.6753L462.429 60.7354C462.483 60.28 462.869 59.9368 463.328 59.9368H479.392C479.934 59.9368 480.353 60.409 480.291 60.9474L478.811 73.4953C478.611 75.2024 476.95 76.6998 475.257 76.6998H462.535C462.128 76.6998 461.56 76.6079 461.171 76.1716C460.764 75.7117 460.738 75.1037 460.788 74.6753H460.787ZM516.289 36.8161L514.678 50.4891C514.308 53.6252 512.752 56.5583 510.298 58.7512C507.839 60.9485 504.752 62.1576 501.603 62.1576H492.398C492.189 62.1576 492.026 61.9759 492.051 61.7684L492.151 60.9238C492.497 57.9615 491.667 54.9858 489.865 52.6348C489.679 52.3914 489.855 52.0403 490.161 52.0403H501.603C503.043 52.0403 504.458 50.7628 504.629 49.3057L506.239 35.6384C506.278 35.2986 506.262 34.823 505.957 34.4798C505.668 34.1545 505.227 34.0861 504.909 34.0861H492.288C490.828 34.0861 489.601 35.1774 489.431 36.6266L487.866 49.926C487.834 50.2053 487.516 50.3455 487.285 50.1862C485.394 48.8818 483.135 48.1617 480.798 48.1617H478.277C478.069 48.1617 477.906 47.98 477.931 47.7724L480.098 29.3774C480.459 26.2951 483.073 23.9688 486.179 23.9688H504.909C508.287 23.9688 511.345 25.3147 513.517 27.7577C515.7 30.2096 516.684 33.4276 516.288 36.8173H516.289V36.8161Z" fill="#522AF9"/>
<path d="M186.674 9.29893H173.949C171.917 9.29893 169.995 11.0285 169.753 13.0767L167.779 29.8409C167.354 33.4548 164.288 36.1804 160.649 36.1804H143.429C141.652 36.1804 139.976 37.6924 139.766 39.4826L138.155 53.1544C138.098 53.6266 138.129 54.294 138.593 54.8167C139.041 55.3203 139.673 55.4269 140.122 55.4269H151.149C151.468 55.4269 151.687 55.7398 151.584 56.0404C151.336 56.7684 151.164 57.5244 151.073 58.2994L150.428 63.7753C150.396 64.0479 150.165 64.2543 149.89 64.2543H140.122C136.931 64.2543 134.044 62.9857 131.995 60.6818C129.935 58.3633 129.008 55.3248 129.386 52.1225L130.996 38.454C131.346 35.476 132.825 32.6854 135.161 30.5969C137.501 28.5061 140.437 27.3542 143.428 27.3542H156.847C158.179 27.3542 159.3 26.357 159.455 25.0346L160.985 12.0459C161.352 8.94001 162.895 6.03044 165.332 3.85332C167.771 1.67282 170.831 0.472656 173.948 0.472656H186.673C189.988 0.472656 192.986 1.78948 195.115 4.18196C197.254 6.5879 198.217 9.74535 197.828 13.0744L196.822 21.5956C196.786 21.8973 196.53 22.125 196.226 22.125H188.552C188.193 22.125 187.915 21.8121 187.956 21.4554L189.059 12.047C189.125 11.4873 189.084 10.6864 188.516 10.046C187.968 9.43017 187.211 9.30006 186.673 9.30006H186.674V9.29893Z" fill="#522AF9"/>
<path d="M286.726 9.29893H274.001C271.968 9.29893 270.047 11.0285 269.805 13.0767L267.83 29.8409C267.405 33.4548 264.34 36.1804 260.7 36.1804H243.48C241.704 36.1804 240.027 37.6924 239.817 39.4826L238.206 53.1544C238.149 53.6266 238.181 54.294 238.644 54.8167C239.093 55.3203 239.724 55.4269 240.174 55.4269H251.201C251.519 55.4269 251.738 55.7398 251.635 56.0404C251.387 56.7684 251.215 57.5244 251.125 58.2994L250.48 63.7753C250.447 64.0479 250.216 64.2543 249.941 64.2543H240.174C236.983 64.2543 234.096 62.9857 232.046 60.6818C229.986 58.3633 229.059 55.3248 229.437 52.1225L231.047 38.454C231.397 35.476 232.876 32.6854 235.213 30.5969C237.553 28.5061 240.488 27.3542 243.479 27.3542H256.899C258.23 27.3542 259.352 26.357 259.507 25.0346L261.037 12.0459C261.403 8.94001 262.947 6.03044 265.383 3.85332C267.823 1.67282 270.882 0.472656 274 0.472656H286.725C290.039 0.472656 293.037 1.78948 295.166 4.18196C297.305 6.5879 298.269 9.74535 297.879 13.0744L296.873 21.5956C296.837 21.8973 296.582 22.125 296.278 22.125H288.603C288.244 22.125 287.966 21.8121 288.008 21.4554L289.11 12.047C289.177 11.4873 289.135 10.6864 288.568 10.046C288.019 9.43017 287.262 9.30006 286.725 9.30006H286.726V9.29893Z" fill="#522AF9"/>
<path d="M386.777 9.29893H374.052C372.02 9.29893 370.098 11.0285 369.856 13.0767L367.882 29.8409C367.457 33.4548 364.391 36.1804 360.752 36.1804H343.532C341.755 36.1804 340.078 37.6924 339.869 39.4826L338.258 53.1544C338.201 53.6266 338.232 54.294 338.695 54.8167C339.144 55.3203 339.776 55.4269 340.225 55.4269H351.252C351.571 55.4269 351.79 55.7398 351.686 56.0404C351.439 56.7684 351.267 57.5244 351.176 58.2994L350.531 63.7753C350.499 64.0479 350.268 64.2543 349.993 64.2543H340.225C337.034 64.2543 334.147 62.9857 332.098 60.6818C330.037 58.3633 329.111 55.3248 329.489 52.1225L331.098 38.454C331.448 35.476 332.928 32.6854 335.264 30.5969C337.604 28.5061 340.539 27.3542 343.531 27.3542H356.95C358.282 27.3542 359.403 26.357 359.558 25.0346L361.088 12.0459C361.455 8.94001 362.998 6.03044 365.435 3.85332C367.874 1.67282 370.934 0.472656 374.051 0.472656H386.776C390.091 0.472656 393.089 1.78948 395.218 4.18196C397.357 6.5879 398.32 9.74535 397.931 13.0744L396.925 21.5956C396.889 21.8973 396.633 22.125 396.329 22.125H388.655C388.296 22.125 388.018 21.8121 388.059 21.4554L389.162 12.047C389.228 11.4873 389.187 10.6864 388.619 10.046C388.071 9.43017 387.313 9.30006 386.776 9.30006H386.777V9.29893Z" fill="#522AF9"/>
<path d="M486.829 9.29893H474.103C472.071 9.29893 470.15 11.0285 469.907 13.0767L467.933 29.8409C467.508 33.4548 464.443 36.1804 460.803 36.1804H443.583C441.807 36.1804 440.13 37.6924 439.92 39.4826L438.309 53.1544C438.252 53.6266 438.283 54.294 438.747 54.8167C439.195 55.3203 439.827 55.4269 440.277 55.4269H451.304C451.622 55.4269 451.841 55.7398 451.738 56.0404C451.49 56.7684 451.318 57.5244 451.227 58.2994L450.582 63.7753C450.55 64.0479 450.319 64.2543 450.044 64.2543H440.277C437.086 64.2543 434.198 62.9857 432.149 60.6818C430.089 58.3633 429.162 55.3248 429.54 52.1225L431.15 38.454C431.5 35.476 432.979 32.6854 435.316 30.5969C437.655 28.5061 440.591 27.3542 443.582 27.3542H457.002C458.333 27.3542 459.455 26.357 459.609 25.0346L461.139 12.0459C461.506 8.94001 463.05 6.03044 465.486 3.85332C467.925 1.67282 470.985 0.472656 474.102 0.472656H486.827C490.142 0.472656 493.14 1.78948 495.269 4.18196C497.408 6.5879 498.371 9.74535 497.982 13.0744L496.976 21.5956C496.94 21.8973 496.685 22.125 496.381 22.125H488.706C488.347 22.125 488.069 21.8121 488.111 21.4554L489.213 12.047C489.279 11.4873 489.238 10.6864 488.67 10.046C488.122 9.43017 487.365 9.30006 486.827 9.30006H486.829V9.29893Z" fill="#522AF9"/>
</g>
</svg>
